SplineFontDB: 3.0
FontName: Monomachus
FullName: Monomachus
FamilyName: Monomachus
Weight: Medium
Copyright: Copyright (c) Alexey Kryukov, 2011. All rights reserved.
UComments: "2011-5-3: Created.+AAoACgAA-Ratios for superscript digits:+AAoA-thin stems: 82+AAoA-thick stems: 72+AAoA-vertical: 56+AAoA-horizontal: 64+AAoACgAA-Ratios for combining letters:+AAoA-ZONES:+AAoA--582,-22+AD0A-960+AAoA-0,-48+AD0A-1100+AAoA-946,34+AD0A-1572+AAoA-vscale+AD0A-50%+AAoA-csize+AD0A-44%+AAoA-wstem+AD0A-66%+AAoA-nstem+AD0A-73%" 
Version: 1.0
ItalicAngle: 0
UnderlinePosition: -256
UnderlineWidth: 122
Ascent: 1500
Descent: 548
LayerCount: 3
Layer: 0 0 "Back"  1
Layer: 1 0 "Fore"  0
Layer: 2 1 "TTF"  0
NeedsXUIDChange: 1
XUID: [1021 211 1460294968 11180153]
FSType: 0
OS2Version: 0
OS2_WeightWidthSlopeOnly: 0
OS2_UseTypoMetrics: 1
CreationTime: 1315915564
ModificationTime: 1376310817
PfmFamily: 17
TTFWeight: 500
TTFWidth: 5
LineGap: 560
VLineGap: 184
Panose: 2 6 7 3 8 0 6 0 0 0
OS2TypoAscent: 0
OS2TypoAOffset: 1
OS2TypoDescent: 0
OS2TypoDOffset: 1
OS2TypoLinegap: 560
OS2WinAscent: 0
OS2WinAOffset: 1
OS2WinDescent: 0
OS2WinDOffset: 1
HheadAscent: 0
HheadAOffset: 1
HheadDescent: 0
HheadDOffset: 1
OS2Vendor: 'PfEd'
Lookup: 1 0 0 "'ss06' Cyrillic i with dot above"  {"'ss06' Cyrillic i with dot above-1"  } ['ss06' ('DFLT' <'dflt' > 'cyrl' <'dflt' > 'latn' <'MOL ' 'ROM ' 'dflt' > ) ]
Lookup: 1 0 0 "'ss07' Cyrillic i with two dots above"  {"'ss07' Cyrillic i with two dots above-1"  } ['ss07' ('DFLT' <'dflt' > 'cyrl' <'dflt' > 'latn' <'MOL ' 'ROM ' 'dflt' > ) ]
Lookup: 1 0 0 "'ss08' Sharp Cyrillic Zemlya"  {"'ss08' Sharp Cyrillic Zemlya-1"  } ['ss08' ('DFLT' <'dflt' > 'cyrl' <'dflt' > 'latn' <'MOL ' 'ROM ' 'dflt' > ) ]
Lookup: 1 0 0 "'ss09' Double-Sided Cyrillic Cherv"  {"'ss09' Double-Sided Cyrillic Cherv-1"  } ['ss09' ('DFLT' <'dflt' > 'cyrl' <'dflt' > 'latn' <'MOL ' 'ROM ' 'dflt' > ) ]

StartChar: exclam
Encoding: 33 33 1
Width: 528
VWidth: 2078
Flags: W
HStem: -36 320<153.751 374.249> 1428 20G<370.5 413>
VStem: 96 354<1021.31 1291.74> 104 320<13.7508 234.249>
LayerCount: 3
Fore
SplineSet
96 1205 m 0xe0
 96 1254 155 1315 216 1361 c 0
 279 1409 354 1448 387 1448 c 0
 439 1448 450 1415 450 1394 c 0
 450 1349 432 1205 425 1155 c 2
 320 442 l 2
 316 417 292 396 264 396 c 0
 236 396 214 406 208 442 c 2
 120 1011 l 2
 112 1065 96 1185 96 1205 c 0xe0
104 124 m 0xd0
 104 212 176 284 264 284 c 0
 352 284 424 212 424 124 c 0
 424 36 352 -36 264 -36 c 0
 176 -36 104 36 104 124 c 0xd0
EndSplineSet
Layer: 2
SplineSet
96 1205 m 0,0,1
 96 1271 96 1271 216 1361 c 0,2,3
 264 1397 264 1397 313.5 1422.5 c 128,-1,4
 363 1448 363 1448 387 1448 c 0,5,6
 422 1448 422 1448 436 1431.5 c 128,-1,7
 450 1415 450 1415 450 1394 c 0,8,9
 450 1334 450 1334 425 1155 c 1,10,-1
 320 442 l 2,11,12
 317 423 317 423 301 409.5 c 128,-1,13
 285 396 285 396 264 396 c 0,14,15
 216 396 216 396 208 442 c 2,16,-1
 120 1011 l 1,17,18
 96 1173 96 1173 96 1205 c 0,0,1
104 124 m 128,-1,20
 104 190 104 190 151 237 c 128,-1,21
 198 284 198 284 264 284 c 128,-1,22
 330 284 330 284 377 237 c 128,-1,23
 424 190 424 190 424 124 c 128,-1,24
 424 58 424 58 377 11 c 128,-1,25
 330 -36 330 -36 264 -36 c 128,-1,26
 198 -36 198 -36 151 11 c 128,-1,19
 104 58 104 58 104 124 c 128,-1,20
EndSplineSet
EndChar

StartChar: numbersign
Encoding: 35 35 3
Width: 1640
VWidth: 2078
Flags: W
HStem: -24 21G<431.5 443 907.5 919> 428 122<169.321 444 607 920 1083 1470.68> 874 122<169.321 557 720 1033 1196 1470.68> 1428 20G<721 732.5 1197 1208.5>
DStem2: 444 428 576 428 0.246569 0.969125<-391.841 0 158.424 460.092 618.516 1010.36> 920 428 1052 428 0.246569 0.969125<-391.841 0 158.424 460.092 618.516 1010.36>
LayerCount: 3
Fore
SplineSet
152 451 m 0
 152 463 156 475 168 502 c 0
 182 534 190 550 204 550 c 2
 475 550 l 1
 557 874 l 1
 185 874 l 2
 170 874 152 885 152 897 c 0
 152 909 156 921 168 948 c 0
 182 980 190 996 204 996 c 2
 588 996 l 1
 696 1420 l 2
 700 1435 715 1448 727 1448 c 0
 738 1448 751 1439 775 1421 c 0
 800 1403 816 1389 816 1376 c 0
 816 1374 814 1362 813 1360 c 2
 720 996 l 1
 1064 996 l 1
 1172 1420 l 2
 1176 1435 1191 1448 1203 1448 c 0
 1214 1448 1227 1439 1251 1421 c 0
 1276 1403 1292 1389 1292 1376 c 0
 1292 1374 1290 1362 1289 1360 c 2
 1196 996 l 1
 1455 996 l 2
 1470 996 1488 985 1488 973 c 0
 1488 961 1484 949 1472 922 c 0
 1458 890 1450 874 1436 874 c 2
 1165 874 l 1
 1083 550 l 1
 1455 550 l 2
 1470 550 1488 539 1488 527 c 0
 1488 515 1484 503 1472 476 c 0
 1458 444 1450 428 1436 428 c 2
 1052 428 l 1
 944 4 l 2
 940 -11 925 -24 913 -24 c 0
 902 -24 889 -15 865 3 c 0
 840 21 824 35 824 48 c 0
 824 50 826 61 827 64 c 2
 920 428 l 1
 576 428 l 1
 468 4 l 2
 464 -11 449 -24 437 -24 c 0
 426 -24 413 -15 389 3 c 0
 364 21 348 35 348 48 c 0
 348 50 350 61 351 64 c 2
 444 428 l 1
 185 428 l 2
 170 428 152 439 152 451 c 0
607 550 m 1
 951 550 l 1
 1033 874 l 1
 689 874 l 1
 607 550 l 1
EndSplineSet
Layer: 2
SplineSet
152 451 m 0,0,1
 152 466 152 466 168 502 c 0,2,3
 180 529 180 529 187 539.5 c 128,-1,4
 194 550 194 550 204 550 c 2,5,-1
 475 550 l 1,6,-1
 557 874 l 1,7,-1
 185 874 l 2,8,9
 173 874 173 874 162.5 881 c 128,-1,10
 152 888 152 888 152 897 c 0,11,12
 152 912 152 912 168 948 c 0,13,14
 180 975 180 975 187 985.5 c 128,-1,15
 194 996 194 996 204 996 c 2,16,-1
 588 996 l 1,17,-1
 696 1420 l 2,18,19
 699 1431 699 1431 708.5 1439.5 c 128,-1,20
 718 1448 718 1448 727 1448 c 0,21,22
 739 1448 739 1448 775 1421 c 0,23,24
 816 1391 816 1391 816 1376 c 0,25,26
 816 1366 816 1366 813 1360 c 1,27,-1
 720 996 l 1,28,-1
 1064 996 l 1,29,-1
 1172 1420 l 2,30,31
 1175 1431 1175 1431 1184.5 1439.5 c 128,-1,32
 1194 1448 1194 1448 1203 1448 c 0,33,34
 1215 1448 1215 1448 1251 1421 c 0,35,36
 1292 1391 1292 1391 1292 1376 c 0,37,38
 1292 1366 1292 1366 1289 1360 c 1,39,-1
 1196 996 l 1,40,-1
 1455 996 l 2,41,42
 1467 996 1467 996 1477.5 989 c 128,-1,43
 1488 982 1488 982 1488 973 c 0,44,45
 1488 958 1488 958 1472 922 c 0,46,47
 1460 895 1460 895 1453 884.5 c 128,-1,48
 1446 874 1446 874 1436 874 c 2,49,-1
 1165 874 l 1,50,-1
 1083 550 l 1,51,-1
 1455 550 l 2,52,53
 1467 550 1467 550 1477.5 543 c 128,-1,54
 1488 536 1488 536 1488 527 c 0,55,56
 1488 512 1488 512 1472 476 c 0,57,58
 1460 449 1460 449 1453 438.5 c 128,-1,59
 1446 428 1446 428 1436 428 c 2,60,-1
 1052 428 l 1,61,-1
 944 4 l 2,62,63
 941 -7 941 -7 931.5 -15.5 c 128,-1,64
 922 -24 922 -24 913 -24 c 0,65,66
 901 -24 901 -24 865 3 c 0,67,68
 824 33 824 33 824 48 c 0,69,70
 824 55 824 55 827 64 c 2,71,-1
 920 428 l 1,72,-1
 576 428 l 1,73,-1
 468 4 l 2,74,75
 465 -7 465 -7 455.5 -15.5 c 128,-1,76
 446 -24 446 -24 437 -24 c 0,77,78
 425 -24 425 -24 389 3 c 0,79,80
 348 33 348 33 348 48 c 0,81,82
 348 55 348 55 351 64 c 2,83,-1
 444 428 l 1,84,-1
 185 428 l 2,85,86
 173 428 173 428 162.5 435 c 128,-1,87
 152 442 152 442 152 451 c 0,0,1
607 550 m 1,88,-1
 951 550 l 1,89,-1
 1033 874 l 1,90,-1
 689 874 l 1,91,-1
 607 550 l 1,88,-1
EndSplineSet
EndChar

StartChar: dollar
Encoding: 36 36 4
Width: 1240
VWidth: 0
Flags: W
HStem: -33 61<505.03 606> 1393 62<686 761.458>
VStem: 182 224<1019.96 1271.12> 606 80<-201.19 -33 30 578 893 1393 1455 1599.19> 920 232<171.725 427.121>
LayerCount: 3
Fore
SplineSet
134 140 m 0
 134 149 135 177 136 193 c 2
 149 457 l 2
 150 479 164 490 178 490 c 0
 215 490 234 453 247 418 c 0
 319 219 426 43 606 28 c 1
 606 621 l 1
 380 730 182 840 182 1101 c 0
 182 1289 316 1442 606 1455 c 1
 606 1579 l 2
 606 1596 614 1608 622 1608 c 0
 630 1608 636 1605 654 1595 c 0
 675 1583 686 1576 686 1562 c 2
 686 1455 l 1
 779 1450 882 1426 954 1394 c 0
 1047 1353 1065 1333 1065 1286 c 0
 1065 1269 1063 1239 1050 1172 c 0
 1040 1122 1024 1047 1003 1047 c 0
 979 1047 965 1068 946 1112 c 0
 893 1232 812 1370 686 1393 c 1
 686 851 l 1
 964 704 1152 596 1152 350 c 0
 1152 106 967 -18 686 -32 c 1
 686 -181 l 2
 686 -198 678 -210 670 -210 c 0
 662 -210 656 -207 638 -197 c 0
 617 -185 606 -178 606 -164 c 2
 606 -33 l 1
 489 -29 342 3 237 47 c 0
 145 85 134 93 134 140 c 0
406 1174 m 0
 406 1027 492 957 606 893 c 1
 606 1393 l 1
 477 1377 406 1286 406 1174 c 0
686 30 m 1
 836 49 920 145 920 280 c 0
 920 428 828 500 686 578 c 1
 686 30 l 1
EndSplineSet
Layer: 2
SplineSet
134 140 m 0,0,1
 134 161 134 161 136 193 c 2,2,-1
 149 457 l 2,3,4
 150 473 150 473 158.5 481.5 c 128,-1,5
 167 490 167 490 178 490 c 0,6,7
 220 490 220 490 247 418 c 0,8,9
 381 47 381 47 606 28 c 1,10,-1
 606 621 l 1,11,12
 549 648 549 648 510.5 668.5 c 128,-1,13
 472 689 472 689 423.5 718 c 128,-1,14
 375 747 375 747 343.5 773.5 c 128,-1,15
 312 800 312 800 278.5 836.5 c 128,-1,16
 245 873 245 873 226 911 c 128,-1,17
 207 949 207 949 194.5 997.5 c 128,-1,18
 182 1046 182 1046 182 1101 c 0,19,20
 182 1250 182 1250 290 1348 c 128,-1,21
 398 1446 398 1446 606 1455 c 1,22,-1
 606 1579 l 2,23,24
 606 1591 606 1591 611 1599.5 c 128,-1,25
 616 1608 616 1608 622 1608 c 0,26,27
 631 1608 631 1608 654 1595 c 0,28,29
 686 1577 686 1577 686 1562 c 2,30,-1
 686 1455 l 1,31,32
 835 1447 835 1447 954 1394 c 0,33,34
 1023 1364 1023 1364 1044 1343 c 128,-1,35
 1065 1322 1065 1322 1065 1286 c 0,36,37
 1065 1249 1065 1249 1050 1172 c 0,38,39
 1025 1047 1025 1047 1003 1047 c 0,40,41
 986 1047 986 1047 973.5 1062 c 128,-1,42
 961 1077 961 1077 946 1112 c 0,43,44
 834 1366 834 1366 686 1393 c 1,45,-1
 686 851 l 1,46,47
 748 818 748 818 786.5 797 c 128,-1,48
 825 776 825 776 875.5 746 c 128,-1,49
 926 716 926 716 956.5 692.5 c 128,-1,50
 987 669 987 669 1022.5 638 c 128,-1,51
 1058 607 1058 607 1078.5 577.5 c 128,-1,52
 1099 548 1099 548 1117.5 512 c 128,-1,53
 1136 476 1136 476 1144 436 c 128,-1,54
 1152 396 1152 396 1152 350 c 0,55,56
 1152 172 1152 172 1028 75.5 c 128,-1,57
 904 -21 904 -21 686 -32 c 1,58,-1
 686 -181 l 2,59,60
 686 -193 686 -193 681 -201.5 c 128,-1,61
 676 -210 676 -210 670 -210 c 0,62,63
 661 -210 661 -210 638 -197 c 0,64,65
 606 -179 606 -179 606 -164 c 2,66,-1
 606 -33 l 1,67,68
 518 -30 518 -30 417 -8 c 128,-1,69
 316 14 316 14 237 47 c 0,70,71
 167 76 167 76 150.5 90.5 c 128,-1,72
 134 105 134 105 134 140 c 0,0,1
406 1174 m 0,73,74
 406 1073 406 1073 456.5 1010.5 c 128,-1,75
 507 948 507 948 606 893 c 1,76,-1
 606 1393 l 1,77,78
 512 1381 512 1381 459 1320.5 c 128,-1,79
 406 1260 406 1260 406 1174 c 0,73,74
686 30 m 1,80,81
 797 44 797 44 858.5 111 c 128,-1,82
 920 178 920 178 920 280 c 0,83,84
 920 334 920 334 904.5 377.5 c 128,-1,85
 889 421 889 421 855.5 456.5 c 128,-1,86
 822 492 822 492 783.5 519 c 128,-1,87
 745 546 745 546 686 578 c 1,88,-1
 686 30 l 1,80,81
EndSplineSet
EndChar

StartChar: percent
Encoding: 37 37 5
Width: 1488
VWidth: 0
Flags: W
HStem: -24 48<1044.04 1176.18> 547 48<1016.21 1152.35> 824 48<340.039 472.179> 1171 61<756.829 1019.47> 1396 48<311.614 447.892>
VStem: 64 176<971.186 1297.65> 544 176<971.101 1261.62> 768 176<125.664 449.02> 1248 176<123.101 449.209>
DStem2: 1054 1204 1299 1344 0.608529 0.793531<-1440.67 0>
LayerCount: 3
Fore
SplineSet
64 1135 m 0
 64 1327 217 1444 390 1444 c 0
 479 1444 564 1410 618 1361 c 0
 695 1291 781 1232 880 1232 c 0
 1019 1232 1126 1312 1235 1440 c 0
 1242 1450 1247 1456 1258 1456 c 0
 1271 1456 1283 1439 1295 1410 c 0
 1304 1389 1306 1375 1306 1363 c 0
 1306 1359 1304 1350 1299 1344 c 2
 253 -20 l 2
 246 -30 241 -36 230 -36 c 0
 217 -36 205 -19 193 10 c 0
 184 31 182 45 182 57 c 0
 182 61 184 70 189 76 c 2
 1054 1204 l 25
 1050 1208 l 17
 1010 1182 958 1171 894 1171 c 0
 833 1171 761 1188 715 1220 c 1
 710 1217 l 1
 717 1190 720 1163 720 1135 c 0
 720 943 567 824 392 824 c 0
 217 824 64 943 64 1135 c 0
240 1184 m 0
 240 1004 305 872 404 872 c 0
 492 872 544 960 544 1084 c 0
 544 1264 480 1396 381 1396 c 0
 293 1396 240 1308 240 1184 c 0
768 287 m 0
 768 479 921 595 1096 595 c 0
 1271 595 1424 479 1424 287 c 0
 1424 95 1271 -24 1096 -24 c 0
 921 -24 768 95 768 287 c 0
944 335 m 0
 944 155 1009 24 1108 24 c 0
 1196 24 1248 112 1248 236 c 0
 1248 416 1184 547 1085 547 c 0
 997 547 944 459 944 335 c 0
EndSplineSet
Layer: 2
SplineSet
64 1135 m 0,0,1
 64 1274 64 1274 159.5 1359 c 128,-1,2
 255 1444 255 1444 390 1444 c 0,3,4
 455 1444 455 1444 515.5 1421.5 c 128,-1,5
 576 1399 576 1399 618 1361 c 0,6,7
 760 1232 760 1232 880 1232 c 0,8,9
 979 1232 979 1232 1063 1284.5 c 128,-1,10
 1147 1337 1147 1337 1235 1440 c 1,11,12
 1246 1456 1246 1456 1258 1456 c 0,13,14
 1276 1456 1276 1456 1295 1410 c 0,15,16
 1306 1384 1306 1384 1306 1363 c 0,17,18
 1306 1352 1306 1352 1299 1344 c 2,19,-1
 253 -20 l 1,20,21
 242 -36 242 -36 230 -36 c 0,22,23
 212 -36 212 -36 193 10 c 0,24,25
 182 36 182 36 182 57 c 0,26,27
 182 68 182 68 189 76 c 2,28,-1
 1054 1204 l 1,29,-1
 1050 1208 l 1,30,31
 993 1171 993 1171 894 1171 c 0,32,33
 785 1171 785 1171 715 1220 c 1,34,-1
 710 1217 l 1,35,36
 720 1178 720 1178 720 1135 c 0,37,38
 720 995 720 995 624 909.5 c 128,-1,39
 528 824 528 824 392 824 c 128,-1,40
 256 824 256 824 160 909.5 c 128,-1,41
 64 995 64 995 64 1135 c 0,0,1
240 1184 m 0,42,43
 240 1048 240 1048 285.5 960 c 128,-1,44
 331 872 331 872 404 872 c 0,45,46
 469 872 469 872 506.5 930.5 c 128,-1,47
 544 989 544 989 544 1084 c 0,48,49
 544 1221 544 1221 499 1308.5 c 128,-1,50
 454 1396 454 1396 381 1396 c 0,51,52
 316 1396 316 1396 278 1337.5 c 128,-1,53
 240 1279 240 1279 240 1184 c 0,42,43
768 287 m 0,54,55
 768 426 768 426 863.5 510.5 c 128,-1,56
 959 595 959 595 1096 595 c 128,-1,57
 1233 595 1233 595 1328.5 510.5 c 128,-1,58
 1424 426 1424 426 1424 287 c 0,59,60
 1424 147 1424 147 1328 61.5 c 128,-1,61
 1232 -24 1232 -24 1096 -24 c 128,-1,62
 960 -24 960 -24 864 61.5 c 128,-1,63
 768 147 768 147 768 287 c 0,54,55
944 335 m 0,64,65
 944 199 944 199 989 111.5 c 128,-1,66
 1034 24 1034 24 1108 24 c 0,67,68
 1173 24 1173 24 1210.5 82.5 c 128,-1,69
 1248 141 1248 141 1248 236 c 0,70,71
 1248 373 1248 373 1203 460 c 128,-1,72
 1158 547 1158 547 1085 547 c 0,73,74
 1020 547 1020 547 982 488.5 c 128,-1,75
 944 430 944 430 944 335 c 0,64,65
EndSplineSet
EndChar

StartChar: ampersand
Encoding: 38 38 6
Width: 1620
VWidth: 0
Flags: W
HStem: -36 112<1282.74 1452.62> -32 152<361 711.733> 948 20G<1134 1147 1524 1538> 1361 84<485.016 661.559>
VStem: 88 244<256.48 482.836> 282 128<1068.71 1251.63> 758 152<1037.19 1263.58> 1234 320<786 950>
LayerCount: 3
Fore
SplineSet
88 311 m 0x7b
 88 512 256 663 446 768 c 1
 446 773 l 1
 357 842 282 934 282 1090 c 0
 282 1283 455 1445 652 1445 c 0
 820 1445 910 1287 910 1173 c 0
 910 1062 811 948 708 873 c 1
 708 863 l 1
 810 796 931 712 993 633 c 0
 1033 582 1068 532 1096 480 c 1
 1099 480 l 1
 1176 608 1234 738 1234 834 c 0
 1234 884 1187 903 1146 908 c 0
 1126 910 1118 922 1118 940 c 0
 1118 960 1128 968 1140 968 c 0
 1154 968 1193 965 1233 960 c 0
 1280 954 1310 952 1336 952 c 0
 1362 952 1392 954 1439 960 c 0
 1479 965 1516 968 1532 968 c 0
 1544 968 1554 960 1554 940 c 0
 1554 922 1545 915 1525 910 c 0
 1434 888 1408 875 1354 798 c 0
 1327 759 1290 685 1252 608 c 0
 1213 530 1172 449 1140 406 c 1
 1162 362 1183 320 1201 270 c 0
 1239 168 1294 76 1364 76 c 0
 1429 76 1456 101 1495 159 c 0
 1510 181 1529 207 1553 207 c 0
 1571 207 1584 195 1584 179 c 0
 1584 128 1476 -36 1306 -36 c 0xb7
 1131 -36 1037 51 987 194 c 1
 982 194 l 1
 839 40 657 -32 472 -32 c 0
 250 -32 88 103 88 311 c 0x7b
332 423 m 0x7b
 332 163 559 120 657 120 c 0
 768 120 870 182 954 267 c 1
 921 334 888 395 835 466 c 0
 761 565 619 664 497 735 c 1
 377 658 332 549 332 423 c 0x7b
410 1198 m 0x37
 410 1063 533 975 660 897 c 1
 734 950 758 1008 758 1126 c 0
 758 1238 664 1361 556 1361 c 0
 482 1361 410 1268 410 1198 c 0x37
EndSplineSet
Layer: 2
SplineSet
88 311 m 0,0,1
 88 570 88 570 446 768 c 1,2,-1
 446 773 l 1,3,4
 370 832 370 832 326 907 c 128,-1,5
 282 982 282 982 282 1090 c 0,6,7
 282 1234 282 1234 393 1339.5 c 128,-1,8
 504 1445 504 1445 652 1445 c 0,9,10
 731 1445 731 1445 792 1400 c 128,-1,11
 853 1355 853 1355 881.5 1294 c 128,-1,12
 910 1233 910 1233 910 1173 c 0,13,14
 910 1095 910 1095 852 1015 c 128,-1,15
 794 935 794 935 708 873 c 1,16,-1
 708 863 l 1,17,18
 924 721 924 721 993 633 c 0,19,20
 1059 549 1059 549 1096 480 c 1,21,-1
 1099 480 l 1,22,23
 1234 704 1234 704 1234 834 c 0,24,25
 1234 897 1234 897 1146 908 c 0,26,27
 1118 911 1118 911 1118 940 c 0,28,29
 1118 968 1118 968 1140 968 c 0,30,31
 1169 968 1169 968 1233 960 c 0,32,33
 1296 952 1296 952 1336 952 c 128,-1,34
 1376 952 1376 952 1439 960 c 0,35,36
 1503 968 1503 968 1532 968 c 0,37,38
 1554 968 1554 968 1554 940 c 0,39,40
 1554 917 1554 917 1525 910 c 0,41,42
 1455 893 1455 893 1424 873.5 c 128,-1,43
 1393 854 1393 854 1354 798 c 0,44,45
 1325 757 1325 757 1252 608 c 0,46,47
 1174 451 1174 451 1140 406 c 1,48,49
 1183 320 1183 320 1201 270 c 0,50,51
 1273 76 1273 76 1364 76 c 0,52,53
 1410 76 1410 76 1437 94 c 128,-1,54
 1464 112 1464 112 1495 159 c 1,55,56
 1528 207 1528 207 1553 207 c 0,57,58
 1566 207 1566 207 1575 199 c 128,-1,59
 1584 191 1584 191 1584 179 c 0,60,61
 1584 158 1584 158 1564 123.5 c 128,-1,62
 1544 89 1544 89 1509.5 52.5 c 128,-1,63
 1475 16 1475 16 1420.5 -10 c 128,-1,64
 1366 -36 1366 -36 1306 -36 c 0,65,66
 1067 -36 1067 -36 987 194 c 1,67,-1
 982 194 l 1,68,69
 877 81 877 81 745.5 24.5 c 128,-1,70
 614 -32 614 -32 472 -32 c 0,71,72
 304 -32 304 -32 196 62.5 c 128,-1,73
 88 157 88 157 88 311 c 0,0,1
332 423 m 0,74,75
 332 349 332 349 357 292 c 128,-1,76
 382 235 382 235 418 203.5 c 128,-1,77
 454 172 454 172 501 152 c 128,-1,78
 548 132 548 132 585 126 c 128,-1,79
 622 120 622 120 657 120 c 0,80,81
 809 120 809 120 954 267 c 1,82,83
 897 383 897 383 835 466 c 0,84,85
 739 594 739 594 497 735 c 1,86,87
 332 629 332 629 332 423 c 0,74,75
410 1198 m 0,88,89
 410 1150 410 1150 430 1106.5 c 128,-1,90
 450 1063 450 1063 489 1025 c 128,-1,91
 528 987 528 987 566 959.5 c 128,-1,92
 604 932 604 932 660 897 c 1,93,94
 715 937 715 937 736.5 987 c 128,-1,95
 758 1037 758 1037 758 1126 c 0,96,97
 758 1212 758 1212 696.5 1286.5 c 128,-1,98
 635 1361 635 1361 556 1361 c 0,99,100
 502 1361 502 1361 456 1307 c 128,-1,101
 410 1253 410 1253 410 1198 c 0,88,89
EndSplineSet
EndChar

StartChar: quotesingle
Encoding: 39 39 7
Width: 580
VWidth: 0
Flags: W
HStem: 794 652<234.751 345.249>
VStem: 168 244<975.266 1389.64> 234 112<794.354 915.518>
LayerCount: 3
Fore
SplineSet
168 1320 m 0xc0
 168 1382 283 1446 346 1446 c 0xa0
 391 1446 412 1387 412 1348 c 0xc0
 412 1339 408 1303 405 1277 c 2
 346 806 l 1
 330 798 312 794 290 794 c 0
 268 794 250 798 234 806 c 1xa0
 173 1272 l 2
 170 1294 168 1312 168 1320 c 0xc0
EndSplineSet
Layer: 2
SplineSet
168 1320 m 0,0,1
 168 1364 168 1364 231.5 1405 c 128,-1,2
 295 1446 295 1446 346 1446 c 0,3,4
 377 1446 377 1446 394.5 1414.5 c 128,-1,5
 412 1383 412 1383 412 1348 c 0,6,7
 412 1338 412 1338 405 1277 c 2,8,-1
 346 806 l 1,9,10
 322 794 322 794 290 794 c 128,-1,11
 258 794 258 794 234 806 c 1,12,-1
 173 1272 l 2,13,14
 168 1309 168 1309 168 1320 c 0,0,1
EndSplineSet
EndChar

StartChar: parenleft
Encoding: 40 40 8
Width: 720
VWidth: 0
Flags: W
HStem: 1424 20G<582.5 632.5>
VStem: 154 194<232.202 841.798>
LayerCount: 3
Fore
SplineSet
154 537 m 0
 154 1069 542 1444 623 1444 c 0
 642 1444 656 1426 656 1413 c 0
 656 1403 645 1387 618 1358 c 0
 425 1151 348 862 348 537 c 0
 348 212 425 -77 618 -284 c 0
 645 -313 656 -329 656 -339 c 0
 656 -352 642 -370 623 -370 c 0
 542 -370 154 5 154 537 c 0
EndSplineSet
Layer: 2
SplineSet
154 537 m 128,-1,1
 154 687 154 687 195 834 c 128,-1,2
 236 981 236 981 296 1087 c 128,-1,3
 356 1193 356 1193 423 1276.5 c 128,-1,4
 490 1360 490 1360 543.5 1402 c 128,-1,5
 597 1444 597 1444 623 1444 c 0,6,7
 636 1444 636 1444 646 1434 c 128,-1,8
 656 1424 656 1424 656 1413 c 0,9,10
 656 1399 656 1399 618 1358 c 0,11,12
 348 1068 348 1068 348 537 c 128,-1,13
 348 6 348 6 618 -284 c 0,14,15
 656 -325 656 -325 656 -339 c 0,16,17
 656 -350 656 -350 646 -360 c 128,-1,18
 636 -370 636 -370 623 -370 c 0,19,20
 597 -370 597 -370 543.5 -328 c 128,-1,21
 490 -286 490 -286 423 -202.5 c 128,-1,22
 356 -119 356 -119 296 -13 c 128,-1,23
 236 93 236 93 195 240 c 128,-1,0
 154 387 154 387 154 537 c 128,-1,1
EndSplineSet
EndChar

StartChar: parenright
Encoding: 41 41 9
Width: 720
VWidth: 0
Flags: W
HStem: 1424 20G<87.5 137.5>
VStem: 372 194<232.202 841.798>
LayerCount: 3
Fore
SplineSet
64 -339 m 0
 64 -329 75 -313 102 -284 c 0
 295 -77 372 212 372 537 c 0
 372 862 295 1151 102 1358 c 0
 75 1387 64 1403 64 1413 c 0
 64 1426 78 1444 97 1444 c 0
 178 1444 566 1069 566 537 c 0
 566 5 178 -370 97 -370 c 0
 78 -370 64 -352 64 -339 c 0
EndSplineSet
Layer: 2
SplineSet
64 -339 m 0,0,1
 64 -325 64 -325 102 -284 c 0,2,3
 372 6 372 6 372 537 c 128,-1,4
 372 1068 372 1068 102 1358 c 0,5,6
 64 1399 64 1399 64 1413 c 0,7,8
 64 1424 64 1424 74 1434 c 128,-1,9
 84 1444 84 1444 97 1444 c 0,10,11
 123 1444 123 1444 176.5 1402 c 128,-1,12
 230 1360 230 1360 297 1276.5 c 128,-1,13
 364 1193 364 1193 424 1087 c 128,-1,14
 484 981 484 981 525 834 c 128,-1,15
 566 687 566 687 566 537 c 128,-1,16
 566 387 566 387 525 240 c 128,-1,17
 484 93 484 93 424 -13 c 128,-1,18
 364 -119 364 -119 297 -202.5 c 128,-1,19
 230 -286 230 -286 176.5 -328 c 128,-1,20
 123 -370 123 -370 97 -370 c 0,21,22
 84 -370 84 -370 74 -360 c 128,-1,23
 64 -350 64 -350 64 -339 c 0,0,1
EndSplineSet
EndChar

StartChar: asterisk
Encoding: 42 42 10
Width: 960
VWidth: 0
Flags: W
HStem: 1062 176<108.208 264.922 676.844 814.665> 1434 20G<485 517.5>
VStem: 384 174<1133.03 1424.33>
LayerCount: 3
Fore
SplineSet
94 1180 m 0
 94 1218 123 1238 164 1238 c 0
 183 1238 204 1227 215 1221 c 2
 428 1104 l 1
 432 1107 l 1
 387 1343 l 2
 385 1354 384 1365 384 1370 c 0
 384 1407 466 1454 504 1454 c 0
 531 1454 558 1407 558 1384 c 0
 558 1377 557 1360 554 1345 c 2
 508 1107 l 1
 512 1104 l 1
 723 1220 l 2
 737 1228 747 1232 759 1232 c 0
 793 1232 866 1175 866 1136 c 0
 866 1110 834 1077 815 1069 c 0
 808 1066 792 1063 777 1061 c 2
 534 1032 l 1
 534 1026 l 1
 709 863 l 2
 717 855 725 846 728 842 c 0
 732 836 734 828 734 818 c 0
 734 778 702 698 660 698 c 0
 616 698 591 728 575 762 c 2
 472 984 l 1
 468 984 l 1
 364 764 l 2
 350 734 335 722 290 722 c 0
 257 722 222 731 205 743 c 0
 194 751 190 767 190 784 c 0
 190 822 205 839 229 861 c 2
 408 1026 l 1
 408 1032 l 1
 166 1062 l 2
 155 1063 144 1065 139 1067 c 0
 111 1076 94 1137 94 1180 c 0
EndSplineSet
Layer: 2
SplineSet
94 1180 m 0,0,1
 94 1208 94 1208 113 1223 c 128,-1,2
 132 1238 132 1238 164 1238 c 0,3,4
 184 1238 184 1238 215 1221 c 2,5,-1
 428 1104 l 1,6,-1
 432 1107 l 1,7,-1
 387 1343 l 2,8,9
 384 1360 384 1360 384 1370 c 0,10,11
 384 1396 384 1396 428.5 1425 c 128,-1,12
 473 1454 473 1454 504 1454 c 0,13,14
 523 1454 523 1454 540.5 1428.5 c 128,-1,15
 558 1403 558 1403 558 1384 c 128,-1,16
 558 1365 558 1365 554 1345 c 2,17,-1
 508 1107 l 1,18,-1
 512 1104 l 1,19,-1
 723 1220 l 2,20,21
 744 1232 744 1232 759 1232 c 0,22,23
 786 1232 786 1232 826 1198 c 128,-1,24
 866 1164 866 1164 866 1136 c 0,25,26
 866 1118 866 1118 848.5 1097 c 128,-1,27
 831 1076 831 1076 815 1069 c 0,28,29
 805 1065 805 1065 777 1061 c 2,30,-1
 534 1032 l 1,31,-1
 534 1026 l 1,32,-1
 709 863 l 2,33,34
 722 850 722 850 728 842 c 0,35,36
 734 833 734 833 734 818 c 0,37,38
 734 783 734 783 711.5 740.5 c 128,-1,39
 689 698 689 698 660 698 c 0,40,41
 605 698 605 698 575 762 c 2,42,-1
 472 984 l 1,43,-1
 468 984 l 1,44,-1
 364 764 l 2,45,46
 353 740 353 740 338 731 c 128,-1,47
 323 722 323 722 290 722 c 0,48,49
 235 722 235 722 205 743 c 0,50,51
 190 754 190 754 190 784 c 0,52,53
 190 810 190 810 199 826 c 128,-1,54
 208 842 208 842 229 861 c 2,55,-1
 408 1026 l 1,56,-1
 408 1032 l 1,57,-1
 166 1062 l 2,58,59
 147 1064 147 1064 139 1067 c 0,60,61
 119 1073 119 1073 106.5 1108.5 c 128,-1,62
 94 1144 94 1144 94 1180 c 0,0,1
EndSplineSet
EndChar

StartChar: plus
Encoding: 43 43 11
Width: 1312
VWidth: 2078
Flags: W
HStem: -12 21G<689 701> 434 122<169.321 592 720 1142.68>
VStem: 592 128<6.0512 434 556 983.949>
LayerCount: 3
Fore
SplineSet
152 457 m 0
 152 469 156 481 168 508 c 0
 182 540 190 556 204 556 c 2
 592 556 l 1
 592 967 l 2
 592 982 605 1002 617 1002 c 0
 629 1002 640 998 668 987 c 0
 700 974 720 965 720 950 c 2
 720 556 l 1
 1127 556 l 2
 1142 556 1160 545 1160 533 c 0
 1160 521 1156 509 1144 482 c 0
 1130 450 1122 434 1108 434 c 2
 720 434 l 1
 720 23 l 2
 720 8 707 -12 695 -12 c 0
 683 -12 672 -8 644 3 c 0
 612 16 592 25 592 40 c 2
 592 434 l 1
 185 434 l 2
 170 434 152 445 152 457 c 0
EndSplineSet
Layer: 2
SplineSet
152 457 m 0,0,1
 152 472 152 472 168 508 c 0,2,3
 180 535 180 535 187 545.5 c 128,-1,4
 194 556 194 556 204 556 c 2,5,-1
 592 556 l 1,6,-1
 592 967 l 2,7,8
 592 979 592 979 600 990.5 c 128,-1,9
 608 1002 608 1002 617 1002 c 0,10,11
 630 1002 630 1002 668 987 c 0,12,13
 696 976 696 976 708 968 c 128,-1,14
 720 960 720 960 720 950 c 2,15,-1
 720 556 l 1,16,-1
 1127 556 l 2,17,18
 1139 556 1139 556 1149.5 549 c 128,-1,19
 1160 542 1160 542 1160 533 c 0,20,21
 1160 518 1160 518 1144 482 c 0,22,23
 1132 455 1132 455 1125 444.5 c 128,-1,24
 1118 434 1118 434 1108 434 c 2,25,-1
 720 434 l 1,26,-1
 720 23 l 2,27,28
 720 11 720 11 712 -0.5 c 128,-1,29
 704 -12 704 -12 695 -12 c 0,30,31
 682 -12 682 -12 644 3 c 0,32,33
 616 14 616 14 604 22 c 128,-1,34
 592 30 592 30 592 40 c 2,35,-1
 592 434 l 1,36,-1
 185 434 l 2,37,38
 173 434 173 434 162.5 441 c 128,-1,39
 152 448 152 448 152 457 c 0,0,1
EndSplineSet
EndChar

StartChar: comma
Encoding: 44 44 12
Width: 528
Flags: W
HStem: -318 623
VStem: 268 174<-109.188 125.5>
LayerCount: 3
Fore
SplineSet
104 131 m 0
 104 159 130 176 167 192 c 0
 196 205 217 231 236 261 c 0
 257 294 267 305 298 305 c 0
 329 305 442 195 442 56 c 0
 442 -67 376 -157 312 -213 c 0
 253 -265 173 -318 143 -318 c 0
 130 -318 108 -297 108 -283 c 0
 108 -270 133 -251 171 -225 c 0
 225 -188 268 -134 268 -64 c 0
 268 -10 244 16 197 46 c 0
 144 80 104 106 104 131 c 0
EndSplineSet
Layer: 2
SplineSet
104 131 m 0,0,1
 104 165 104 165 167 192 c 0,2,3
 202 208 202 208 236 261 c 0,4,5
 253 287 253 287 264.5 296 c 128,-1,6
 276 305 276 305 298 305 c 0,7,8
 310 305 310 305 333.5 285 c 128,-1,9
 357 265 357 265 381.5 233 c 128,-1,10
 406 201 406 201 424 153 c 128,-1,11
 442 105 442 105 442 56 c 0,12,13
 442 -99 442 -99 312 -213 c 0,14,15
 265 -254 265 -254 215 -286 c 128,-1,16
 165 -318 165 -318 143 -318 c 0,17,18
 133 -318 133 -318 120.5 -305.5 c 128,-1,19
 108 -293 108 -293 108 -283 c 0,20,21
 108 -268 108 -268 171 -225 c 0,22,23
 268 -159 268 -159 268 -64 c 0,24,25
 268 -26 268 -26 251.5 -2 c 128,-1,26
 235 22 235 22 197 46 c 0,27,28
 164 67 164 67 148 78.5 c 128,-1,29
 132 90 132 90 118 104.5 c 128,-1,30
 104 119 104 119 104 131 c 0,0,1
EndSplineSet
EndChar

StartChar: hyphen
Encoding: 45 45 13
Width: 900
VWidth: 2078
Flags: W
HStem: 398 184<146.447 753.553>
VStem: 116 668<416.052 563.948>
LayerCount: 3
Fore
SplineSet
116 435 m 0
 116 453 124 481 136 513 c 0
 148 544 164 582 186 582 c 2
 753 582 l 2
 766 582 784 559 784 545 c 0
 784 527 776 499 764 467 c 0
 752 436 736 398 714 398 c 2
 147 398 l 2
 134 398 116 421 116 435 c 0
EndSplineSet
Layer: 2
SplineSet
116 435 m 0,0,1
 116 460 116 460 136 513 c 0,2,3
 163 582 163 582 186 582 c 2,4,-1
 753 582 l 2,5,6
 763 582 763 582 773.5 569 c 128,-1,7
 784 556 784 556 784 545 c 0,8,9
 784 520 784 520 764 467 c 0,10,11
 737 398 737 398 714 398 c 2,12,-1
 147 398 l 2,13,14
 137 398 137 398 126.5 411 c 128,-1,15
 116 424 116 424 116 435 c 0,0,1
EndSplineSet
EndChar

StartChar: period
Encoding: 46 46 14
Width: 528
VWidth: 2078
Flags: W
HStem: -36 320<153.751 374.249>
VStem: 104 320<13.7508 234.249>
LayerCount: 3
Fore
SplineSet
104 124 m 0
 104 212 176 284 264 284 c 0
 352 284 424 212 424 124 c 0
 424 36 352 -36 264 -36 c 0
 176 -36 104 36 104 124 c 0
EndSplineSet
Layer: 2
SplineSet
104 124 m 128,-1,1
 104 190 104 190 151 237 c 128,-1,2
 198 284 198 284 264 284 c 128,-1,3
 330 284 330 284 377 237 c 128,-1,4
 424 190 424 190 424 124 c 128,-1,5
 424 58 424 58 377 11 c 128,-1,6
 330 -36 330 -36 264 -36 c 128,-1,7
 198 -36 198 -36 151 11 c 128,-1,0
 104 58 104 58 104 124 c 128,-1,1
EndSplineSet
EndChar

StartChar: slash
Encoding: 47 47 15
Width: 992
VWidth: 2078
Flags: W
HStem: 1429 20G<838.5 846.5>
DStem2: 72 -119 174 -202 0.434586 0.90063<-27.4125 1713.56>
LayerCount: 3
Fore
SplineSet
64 -146 m 0
 64 -137 68 -128 72 -119 c 2
 818 1427 l 2
 824 1440 833 1449 844 1449 c 0
 849 1449 858 1445 867 1440 c 0
 920 1409 928 1388 928 1371 c 0
 928 1362 924 1353 920 1344 c 2
 174 -202 l 2
 168 -215 159 -224 148 -224 c 0
 143 -224 134 -220 125 -215 c 0
 72 -184 64 -163 64 -146 c 0
EndSplineSet
Layer: 2
SplineSet
64 -146 m 0,0,1
 64 -137 64 -137 72 -119 c 2,2,-1
 818 1427 l 2,3,4
 828 1449 828 1449 844 1449 c 0,5,6
 851 1449 851 1449 867 1440 c 0,7,8
 928 1404 928 1404 928 1371 c 0,9,10
 928 1362 928 1362 920 1344 c 2,11,-1
 174 -202 l 2,12,13
 164 -224 164 -224 148 -224 c 0,14,15
 141 -224 141 -224 125 -215 c 0,16,17
 64 -179 64 -179 64 -146 c 0,0,1
EndSplineSet
EndChar

StartChar: zero
Encoding: 48 48 16
Width: 1312
VWidth: 0
Flags: W
HStem: -34 60<558.353 753.647> 1396 60<558.353 753.647>
VStem: 112 282<408.486 1013.51> 918 282<408.486 1013.51>
LayerCount: 3
Fore
SplineSet
112 711 m 0
 112 1147 362 1456 656 1456 c 0
 950 1456 1200 1147 1200 711 c 0
 1200 275 950 -34 656 -34 c 0
 362 -34 112 275 112 711 c 0
394 711 m 0
 394 315 450 26 656 26 c 0
 862 26 918 315 918 711 c 0
 918 1107 862 1396 656 1396 c 0
 450 1396 394 1107 394 711 c 0
EndSplineSet
Layer: 2
SplineSet
112 711 m 128,-1,1
 112 871 112 871 156 1011 c 128,-1,2
 200 1151 200 1151 274 1248 c 128,-1,3
 348 1345 348 1345 447.5 1400.5 c 128,-1,4
 547 1456 547 1456 656 1456 c 128,-1,5
 765 1456 765 1456 864.5 1400.5 c 128,-1,6
 964 1345 964 1345 1038 1248 c 128,-1,7
 1112 1151 1112 1151 1156 1011 c 128,-1,8
 1200 871 1200 871 1200 711 c 128,-1,9
 1200 551 1200 551 1156 411 c 128,-1,10
 1112 271 1112 271 1038 174 c 128,-1,11
 964 77 964 77 864.5 21.5 c 128,-1,12
 765 -34 765 -34 656 -34 c 128,-1,13
 547 -34 547 -34 447.5 21.5 c 128,-1,14
 348 77 348 77 274 174 c 128,-1,15
 200 271 200 271 156 411 c 128,-1,0
 112 551 112 551 112 711 c 128,-1,1
394 711 m 128,-1,17
 394 554 394 554 406.5 435.5 c 128,-1,18
 419 317 419 317 447.5 221.5 c 128,-1,19
 476 126 476 126 528.5 76 c 128,-1,20
 581 26 581 26 656 26 c 128,-1,21
 731 26 731 26 783.5 76 c 128,-1,22
 836 126 836 126 864.5 221.5 c 128,-1,23
 893 317 893 317 905.5 435.5 c 128,-1,24
 918 554 918 554 918 711 c 128,-1,25
 918 868 918 868 905.5 986.5 c 128,-1,26
 893 1105 893 1105 864.5 1200.5 c 128,-1,27
 836 1296 836 1296 783.5 1346 c 128,-1,28
 731 1396 731 1396 656 1396 c 128,-1,29
 581 1396 581 1396 528.5 1346 c 128,-1,30
 476 1296 476 1296 447.5 1200.5 c 128,-1,31
 419 1105 419 1105 406.5 986.5 c 128,-1,16
 394 868 394 868 394 711 c 128,-1,17
EndSplineSet
EndChar

StartChar: one
Encoding: 49 49 17
Width: 784
VWidth: 0
Flags: W
HStem: -16 60<92.0587 240 547.495 739.941> 1218 60<92.0579 258.567> 1410 20G<504.5 523>
VStem: 292 248<55.7166 1196.51>
LayerCount: 3
Fore
SplineSet
92 12 m 0
 92 30 100 42 120 44 c 2
 240 55 l 2
 267 57 292 64 292 103 c 2
 292 1091 l 2
 292 1194 243 1218 134 1218 c 0
 109 1218 92 1226 92 1246 c 0
 92 1270 112 1276 129 1278 c 0
 279 1300 392 1351 474 1414 c 0
 484 1421 498 1430 511 1430 c 0
 535 1430 540 1415 540 1398 c 10
 540 103 l 18
 540 64 565 57 592 55 c 2
 712 44 l 2
 732 42 740 30 740 12 c 0
 740 -8 731 -16 719 -16 c 0
 693 -16 617 -10 576 -6 c 0
 530 -2 455 4 416 4 c 0
 377 4 302 -2 256 -6 c 0
 215 -10 139 -16 113 -16 c 0
 101 -16 92 -8 92 12 c 0
EndSplineSet
Layer: 2
SplineSet
92 12 m 0,0,1
 92 41 92 41 120 44 c 2,2,-1
 240 55 l 2,3,4
 264 57 264 57 278 66.5 c 128,-1,5
 292 76 292 76 292 103 c 2,6,-1
 292 1091 l 2,7,8
 292 1165 292 1165 256 1191.5 c 128,-1,9
 220 1218 220 1218 134 1218 c 0,10,11
 92 1218 92 1218 92 1246 c 128,-1,12
 92 1274 92 1274 129 1278 c 1,13,14
 337 1308 337 1308 474 1414 c 1,15,16
 497 1430 497 1430 511 1430 c 0,17,18
 540 1430 540 1430 540 1398 c 2,19,-1
 540 103 l 2,20,21
 540 76 540 76 554 66.5 c 128,-1,22
 568 57 568 57 592 55 c 2,23,-1
 712 44 l 2,24,25
 740 41 740 41 740 12 c 0,26,27
 740 -16 740 -16 719 -16 c 0,28,29
 678 -16 678 -16 576 -6 c 1,30,31
 461 4 461 4 416 4 c 128,-1,32
 371 4 371 4 256 -6 c 1,33,34
 154 -16 154 -16 113 -16 c 0,35,36
 92 -16 92 -16 92 12 c 0,0,1
EndSplineSet
EndChar

StartChar: two
Encoding: 50 50 18
Width: 1170
VWidth: 0
Flags: W
HStem: 0 220<353 972> 1270 180<395.022 623.543>
VStem: 722 282<917.457 1173.4>
LayerCount: 3
Fore
SplineSet
62 16 m 0
 62 36 72 52 78 57 c 0
 465 426 722 692 722 1031 c 0
 722 1160 635 1270 461 1270 c 0
 365 1270 250 1216 164 1107 c 0
 148 1087 138 1075 121 1075 c 0
 96 1075 86 1085 86 1110 c 0
 86 1164 312 1450 576 1450 c 0
 826 1450 1004 1312 1004 1083 c 0
 1004 876 771 638 559 437 c 0
 483 365 412 297 353 229 c 1
 353 220 l 9
 877 220 l 18
 947 220 964 241 1000 309 c 0
 1013 334 1037 373 1063 373 c 0
 1082 373 1094 363 1094 346 c 0
 1094 337 1086 310 1079 291 c 2
 972 0 l 9
 77 0 l 18
 68 0 62 8 62 16 c 0
EndSplineSet
Layer: 2
SplineSet
62 16 m 0,0,1
 62 44 62 44 78 57 c 1,2,3
 174 148 174 148 237 210 c 128,-1,4
 300 272 300 272 374 351 c 128,-1,5
 448 430 448 430 495 489.5 c 128,-1,6
 542 549 542 549 589.5 620.5 c 128,-1,7
 637 692 637 692 663 755 c 128,-1,8
 689 818 689 818 705.5 888.5 c 128,-1,9
 722 959 722 959 722 1031 c 0,10,11
 722 1133 722 1133 654 1201.5 c 128,-1,12
 586 1270 586 1270 461 1270 c 0,13,14
 386 1270 386 1270 306 1228 c 128,-1,15
 226 1186 226 1186 164 1107 c 0,16,17
 150 1089 150 1089 141.5 1082 c 128,-1,18
 133 1075 133 1075 121 1075 c 0,19,20
 102 1075 102 1075 94 1083 c 128,-1,21
 86 1091 86 1091 86 1110 c 0,22,23
 86 1127 86 1127 111 1166 c 128,-1,24
 136 1205 136 1205 183 1253.5 c 128,-1,25
 230 1302 230 1302 288.5 1346 c 128,-1,26
 347 1390 347 1390 424 1420 c 128,-1,27
 501 1450 501 1450 576 1450 c 0,28,29
 767 1450 767 1450 885.5 1351 c 128,-1,30
 1004 1252 1004 1252 1004 1083 c 0,31,32
 1004 1023 1004 1023 977 954.5 c 128,-1,33
 950 886 950 886 910 825 c 128,-1,34
 870 764 870 764 806 690.5 c 128,-1,35
 742 617 742 617 688 562.5 c 128,-1,36
 634 508 634 508 559 437 c 0,37,38
 416 301 416 301 353 229 c 1,39,-1
 353 220 l 1,40,-1
 877 220 l 2,41,42
 927 220 927 220 949 237.5 c 128,-1,43
 971 255 971 255 1000 309 c 1,44,45
 1033 373 1033 373 1063 373 c 0,46,47
 1094 373 1094 373 1094 346 c 0,48,49
 1094 332 1094 332 1079 291 c 2,50,-1
 972 0 l 1,51,-1
 77 0 l 2,52,53
 62 0 62 0 62 16 c 0,0,1
EndSplineSet
EndChar

StartChar: three
Encoding: 51 51 19
Width: 1000
VWidth: 0
Flags: W
HStem: -34 80<56.5977 358.723> 1268 180<354.782 575.268>
VStem: 624 222<1080.9 1220.47> 646 282<322.669 570.573>
LayerCount: 3
Fore
SplineSet
52 20 m 0xd0
 52 38 67 46 90 46 c 0
 379 46 646 152 646 451 c 0xd0
 646 626 442 670 283 670 c 0
 266 670 250 677 250 691 c 0
 250 721 273 736 337 774 c 0
 473 854 624 961 624 1115 c 0
 624 1196 571 1268 435 1268 c 0
 327 1268 232 1207 145 1120 c 0
 135 1110 116 1094 103 1094 c 0
 86 1094 77 1102 77 1121 c 0
 77 1193 290 1448 530 1448 c 0
 682 1448 846 1364 846 1196 c 0xe0
 846 1108 750 1007 670 951 c 0
 623 918 597 899 556 863 c 1
 558 853 l 1
 756 833 928 710 928 520 c 0
 928 192 602 -34 219 -34 c 0
 129 -34 52 -16 52 20 c 0xd0
EndSplineSet
Layer: 2
SplineSet
52 20 m 128,-1,1
 52 46 52 46 90 46 c 0,2,3
 203 46 203 46 299.5 68 c 128,-1,4
 396 90 396 90 475.5 136 c 128,-1,5
 555 182 555 182 600.5 262.5 c 128,-1,6
 646 343 646 343 646 451 c 0,7,8
 646 513 646 513 612.5 558.5 c 128,-1,9
 579 604 579 604 523 627 c 128,-1,10
 467 650 467 650 408 660 c 128,-1,11
 349 670 349 670 283 670 c 0,12,13
 250 670 250 670 250 691 c 128,-1,14
 250 712 250 712 267 727.5 c 128,-1,15
 284 743 284 743 337 774 c 0,16,17
 397 809 397 809 441 840.5 c 128,-1,18
 485 872 485 872 530 915.5 c 128,-1,19
 575 959 575 959 599.5 1009.5 c 128,-1,20
 624 1060 624 1060 624 1115 c 0,21,22
 624 1181 624 1181 577.5 1224.5 c 128,-1,23
 531 1268 531 1268 435 1268 c 0,24,25
 293 1268 293 1268 145 1120 c 0,26,27
 119 1094 119 1094 103 1094 c 0,28,29
 77 1094 77 1094 77 1121 c 0,30,31
 77 1143 77 1143 100.5 1182.5 c 128,-1,32
 124 1222 124 1222 168 1267.5 c 128,-1,33
 212 1313 212 1313 266.5 1353.5 c 128,-1,34
 321 1394 321 1394 391.5 1421 c 128,-1,35
 462 1448 462 1448 530 1448 c 0,36,37
 609 1448 609 1448 679.5 1421 c 128,-1,38
 750 1394 750 1394 798 1335 c 128,-1,39
 846 1276 846 1276 846 1196 c 0,40,41
 846 1135 846 1135 792.5 1067 c 128,-1,42
 739 999 739 999 670 951 c 128,-1,43
 601 903 601 903 556 863 c 1,44,-1
 558 853 l 1,45,46
 714 837 714 837 821 747 c 128,-1,47
 928 657 928 657 928 520 c 0,48,49
 928 360 928 360 830.5 232 c 128,-1,50
 733 104 733 104 571.5 35 c 128,-1,51
 410 -34 410 -34 219 -34 c 0,52,53
 148 -34 148 -34 100 -20 c 128,-1,0
 52 -6 52 -6 52 20 c 128,-1,1
EndSplineSet
EndChar

StartChar: four
Encoding: 52 52 20
Width: 1208
VWidth: 0
Flags: W
HStem: -16 60<396.059 588.505 896 1043.94> 342 172<222.009 596 844 1063.7> 1420 20G<807.5 826>
VStem: 596 248<55.7166 342 514 1032>
DStem2: 90 470 239 574 0.585806 0.810451<131.351 742.88>
LayerCount: 3
Fore
SplineSet
24 327 m 0
 24 381 67 440 90 470 c 2
 768 1408 l 2
 779 1423 801 1440 814 1440 c 0
 838 1440 844 1425 844 1408 c 2
 844 514 l 1
 951 514 l 2
 1027 514 1058 530 1094 612 c 0
 1107 642 1121 669 1147 669 c 0
 1163 669 1172 657 1172 645 c 0
 1172 629 1162 592 1155 570 c 2
 1081 342 l 1
 844 342 l 1
 844 103 l 2
 844 64 869 57 896 55 c 2
 1016 44 l 2
 1036 42 1044 30 1044 12 c 0
 1044 -8 1035 -16 1023 -16 c 0
 997 -16 921 -10 880 -6 c 0
 834 -2 759 4 720 4 c 0
 681 4 606 -2 560 -6 c 0
 519 -10 443 -16 417 -16 c 0
 405 -16 396 -8 396 12 c 0
 396 30 404 42 424 44 c 2
 544 55 l 2
 571 57 596 64 596 103 c 2
 596 342 l 1
 142 342 l 2
 117 342 95 339 78 314 c 0
 69 301 65 296 49 296 c 0
 39 296 24 302 24 327 c 0
222 536 m 0
 222 522 234 514 258 514 c 2
 596 514 l 1
 596 1012 l 2
 596 1027 589 1032 581 1032 c 0
 573 1032 565 1025 555 1011 c 2
 239 574 l 2
 231 563 222 550 222 536 c 0
EndSplineSet
Layer: 2
SplineSet
24 327 m 0,0,1
 24 384 24 384 90 470 c 1,2,-1
 768 1408 l 2,3,4
 777 1420 777 1420 791 1430 c 128,-1,5
 805 1440 805 1440 814 1440 c 0,6,7
 844 1440 844 1440 844 1408 c 2,8,-1
 844 514 l 1,9,-1
 951 514 l 2,10,11
 1010 514 1010 514 1039 533 c 128,-1,12
 1068 552 1068 552 1094 612 c 0,13,14
 1106 640 1106 640 1117.5 654.5 c 128,-1,15
 1129 669 1129 669 1147 669 c 0,16,17
 1158 669 1158 669 1165 662 c 128,-1,18
 1172 655 1172 655 1172 645 c 0,19,20
 1172 623 1172 623 1155 570 c 2,21,-1
 1081 342 l 1,22,-1
 844 342 l 1,23,-1
 844 103 l 2,24,25
 844 76 844 76 858 66.5 c 128,-1,26
 872 57 872 57 896 55 c 2,27,-1
 1016 44 l 2,28,29
 1044 41 1044 41 1044 12 c 0,30,31
 1044 -16 1044 -16 1023 -16 c 0,32,33
 982 -16 982 -16 880 -6 c 1,34,35
 765 4 765 4 720 4 c 128,-1,36
 675 4 675 4 560 -6 c 1,37,38
 458 -16 458 -16 417 -16 c 0,39,40
 396 -16 396 -16 396 12 c 0,41,42
 396 41 396 41 424 44 c 2,43,-1
 544 55 l 2,44,45
 568 57 568 57 582 66.5 c 128,-1,46
 596 76 596 76 596 103 c 2,47,-1
 596 342 l 1,48,-1
 142 342 l 2,49,50
 97 342 97 342 78 314 c 0,51,52
 66 296 66 296 49 296 c 0,53,54
 24 296 24 296 24 327 c 0,0,1
222 536 m 0,55,56
 222 514 222 514 258 514 c 2,57,-1
 596 514 l 1,58,-1
 596 1012 l 2,59,60
 596 1032 596 1032 581 1032 c 0,61,62
 570 1032 570 1032 555 1011 c 2,63,-1
 239 574 l 2,64,65
 222 551 222 551 222 536 c 0,55,56
EndSplineSet
EndChar

StartChar: five
Encoding: 53 53 21
Width: 1032
VWidth: 0
Flags: W
HStem: -34 80<58.4819 359.433> 750 230<270.646 598.098> 1201 214<251.757 831.55> 1423 20G<201.429 271.5>
VStem: 694 260<411.191 659.707>
DStem2: 155 832 230 923 0.0783184 0.996928<96.5944 397.396>
LayerCount: 3
Fore
SplineSet
56 20 m 0
 56 38 71 46 90 46 c 0
 411 46 694 192 694 510 c 0
 694 660 607 750 429 750 c 0
 355 750 278 725 225 693 c 0
 204 680 174 664 156 664 c 0
 135 664 126 682 126 697 c 0
 126 710 129 725 136 745 c 0
 145 771 152 794 155 832 c 10
 203 1443 l 17
 340 1426 469 1415 569 1415 c 0
 629 1415 692 1418 743 1424 c 0
 814 1432 830 1445 866 1513 c 0
 879 1538 903 1577 929 1577 c 0
 948 1577 960 1567 960 1550 c 0
 960 1541 952 1514 945 1495 c 2
 843 1216 l 1
 720 1205 658 1201 535 1201 c 0
 460 1201 334 1210 252 1223 c 9
 230 923 l 25
 234 919 l 17
 326 966 442 980 510 980 c 0
 780 980 954 833 954 619 c 0
 954 261 589 -34 169 -34 c 0
 82 -34 56 -9 56 20 c 0
EndSplineSet
Layer: 2
SplineSet
56 20 m 0,0,1
 56 46 56 46 90 46 c 0,2,3
 213 46 213 46 320 74.5 c 128,-1,4
 427 103 427 103 511.5 158 c 128,-1,5
 596 213 596 213 645 303.5 c 128,-1,6
 694 394 694 394 694 510 c 0,7,8
 694 625 694 625 627 687.5 c 128,-1,9
 560 750 560 750 429 750 c 0,10,11
 319 750 319 750 225 693 c 0,12,13
 178 664 178 664 156 664 c 0,14,15
 141 664 141 664 133.5 674 c 128,-1,16
 126 684 126 684 126 697 c 0,17,18
 126 716 126 716 136 745 c 0,19,20
 152 790 152 790 155 832 c 2,21,-1
 203 1443 l 1,22,23
 429 1415 429 1415 569 1415 c 0,24,25
 666 1415 666 1415 743 1424 c 0,26,27
 796 1430 796 1430 817.5 1445.5 c 128,-1,28
 839 1461 839 1461 866 1513 c 0,29,30
 899 1577 899 1577 929 1577 c 0,31,32
 960 1577 960 1577 960 1550 c 0,33,34
 960 1536 960 1536 945 1495 c 2,35,-1
 843 1216 l 1,36,37
 675 1201 675 1201 535 1201 c 0,38,39
 391 1201 391 1201 252 1223 c 1,40,-1
 230 923 l 1,41,-1
 234 919 l 1,42,43
 353 980 353 980 510 980 c 0,44,45
 711 980 711 980 832.5 880 c 128,-1,46
 954 780 954 780 954 619 c 0,47,48
 954 488 954 488 890 366.5 c 128,-1,49
 826 245 826 245 719.5 157.5 c 128,-1,50
 613 70 613 70 468.5 18 c 128,-1,51
 324 -34 324 -34 169 -34 c 0,52,53
 56 -34 56 -34 56 20 c 0,0,1
EndSplineSet
EndChar

StartChar: six
Encoding: 54 54 22
Width: 1180
VWidth: 0
Flags: W
HStem: -31 66<520.569 727.281> 742 80<496.204 751.107> 1372 80<771.591 1057.94>
VStem: 92 276<298.806 748.088> 850 248<241.668 632.99>
LayerCount: 3
Fore
SplineSet
92 555 m 0
 92 1032 379 1452 916 1452 c 0
 952 1452 1062 1443 1062 1399 c 0
 1062 1381 1046 1372 978 1372 c 0
 589 1372 411 1085 378 721 c 1
 383 717 l 1
 449 767 557 822 680 822 c 0
 951 822 1098 660 1098 456 c 0
 1098 132 858 -31 588 -31 c 0
 311 -31 92 201 92 555 c 0
368 530 m 0
 368 214 455 35 634 35 c 0
 740 35 850 134 850 382 c 0
 850 592 821 742 597 742 c 0
 507 742 410 674 373 642 c 1
 370 602 368 565 368 530 c 0
EndSplineSet
Layer: 2
SplineSet
92 555 m 0,0,1
 92 699 92 699 125.5 831.5 c 128,-1,2
 159 964 159 964 228 1077 c 128,-1,3
 297 1190 297 1190 393.5 1273.5 c 128,-1,4
 490 1357 490 1357 624.5 1404.5 c 128,-1,5
 759 1452 759 1452 916 1452 c 0,6,7
 941 1452 941 1452 971 1448.5 c 128,-1,8
 1001 1445 1001 1445 1031.5 1432 c 128,-1,9
 1062 1419 1062 1419 1062 1399 c 0,10,11
 1062 1385 1062 1385 1044.5 1378.5 c 128,-1,12
 1027 1372 1027 1372 978 1372 c 0,13,14
 836 1372 836 1372 725.5 1322 c 128,-1,15
 615 1272 615 1272 544 1182 c 128,-1,16
 473 1092 473 1092 432 977 c 128,-1,17
 391 862 391 862 378 721 c 1,18,-1
 383 717 l 1,19,20
 522 822 522 822 680 822 c 0,21,22
 877 822 877 822 987.5 718.5 c 128,-1,23
 1098 615 1098 615 1098 456 c 0,24,25
 1098 338 1098 338 1056.5 243.5 c 128,-1,26
 1015 149 1015 149 944 90 c 128,-1,27
 873 31 873 31 782 0 c 128,-1,28
 691 -31 691 -31 588 -31 c 128,-1,29
 485 -31 485 -31 394 11 c 128,-1,30
 303 53 303 53 236 128.5 c 128,-1,31
 169 204 169 204 130.5 314.5 c 128,-1,32
 92 425 92 425 92 555 c 0,0,1
368 530 m 0,33,34
 368 290 368 290 434.5 162.5 c 128,-1,35
 501 35 501 35 634 35 c 0,36,37
 723 35 723 35 786.5 122 c 128,-1,38
 850 209 850 209 850 382 c 0,39,40
 850 452 850 452 845.5 501 c 128,-1,41
 841 550 841 550 825.5 598.5 c 128,-1,42
 810 647 810 647 783 676.5 c 128,-1,43
 756 706 756 706 709.5 724 c 128,-1,44
 663 742 663 742 597 742 c 0,45,46
 538 742 538 742 475.5 709.5 c 128,-1,47
 413 677 413 677 373 642 c 1,48,49
 368 575 368 575 368 530 c 0,33,34
EndSplineSet
EndChar

StartChar: seven
Encoding: 55 55 23
Width: 1020
VWidth: 0
Flags: W
HStem: 0 21G<346 719.5> 1196 224<145.111 851>
VStem: 280 276<66.5 362.305>
LayerCount: 3
Fore
SplineSet
32 1068 m 0
 32 1077 38 1104 43 1123 c 2
 126 1420 l 9
 973 1420 l 18
 987 1420 992 1411 992 1400 c 0
 992 1264 815 986 752 897 c 0
 608 693 556 520 556 318 c 0
 556 219 573 158 599 121 c 0
 630 77 665 66 703 60 c 0
 726 56 741 49 741 30 c 0
 741 8 728 0 711 0 c 2
 383 0 l 2
 309 0 280 27 280 106 c 0
 280 326 355 508 646 876 c 0
 726 977 802 1079 851 1189 c 1
 851 1196 l 9
 253 1196 l 18
 183 1196 148 1176 122 1105 c 0
 112 1078 89 1041 63 1041 c 0
 44 1041 32 1051 32 1068 c 0
EndSplineSet
Layer: 2
SplineSet
32 1068 m 0,0,1
 32 1081 32 1081 43 1123 c 2,2,-1
 126 1420 l 1,3,-1
 973 1420 l 2,4,5
 992 1420 992 1420 992 1400 c 0,6,7
 992 1338 992 1338 942.5 1228 c 128,-1,8
 893 1118 893 1118 844 1037.5 c 128,-1,9
 795 957 795 957 752 897 c 0,10,11
 646 747 646 747 601 610 c 128,-1,12
 556 473 556 473 556 318 c 0,13,14
 556 182 556 182 599 121 c 0,15,16
 634 71 634 71 703 60 c 0,17,18
 741 53 741 53 741 30 c 0,19,20
 741 0 741 0 711 0 c 2,21,-1
 383 0 l 2,22,23
 327 0 327 0 303.5 23.5 c 128,-1,24
 280 47 280 47 280 106 c 0,25,26
 280 276 280 276 356.5 441.5 c 128,-1,27
 433 607 433 607 646 876 c 0,28,29
 796 1065 796 1065 851 1189 c 1,30,-1
 851 1196 l 1,31,-1
 253 1196 l 2,32,33
 199 1196 199 1196 170 1176.5 c 128,-1,34
 141 1157 141 1157 122 1105 c 0,35,36
 113 1081 113 1081 97 1061 c 128,-1,37
 81 1041 81 1041 63 1041 c 0,38,39
 32 1041 32 1041 32 1068 c 0,0,1
EndSplineSet
EndChar

StartChar: eight
Encoding: 56 56 24
Width: 1224
VWidth: 0
Flags: W
HStem: -34 63<430.99 718.893> 1382 66<520.127 775.857>
VStem: 120 162<147.384 430.725> 156 260<1028.71 1222.57> 860 260<189.142 419.588> 907 153<992.549 1274.5>
LayerCount: 3
Fore
SplineSet
120 282 m 0xe8
 120 469 303 592 488 660 c 1
 488 665 l 1
 328 762 156 878 156 1055 c 0
 156 1298 392 1448 629 1448 c 0
 884 1448 1060 1320 1060 1150 c 0xd4
 1060 984 936 883 791 793 c 1
 791 787 l 1
 960 682 1120 567 1120 363 c 0
 1120 78 827 -34 615 -34 c 0
 391 -34 120 45 120 282 c 0xe8
282 299 m 0xe8
 282 134 408 29 564 29 c 0
 717 29 860 105 860 285 c 0
 860 405 782 474 680 539 c 2
 531 634 l 1
 368 560 282 452 282 299 c 0xe8
416 1176 m 0xd4
 416 1065 470 992 570 928 c 2
 745 815 l 1
 852 883 907 985 907 1116 c 0
 907 1236 840 1382 638 1382 c 0
 512 1382 416 1286 416 1176 c 0xd4
EndSplineSet
Layer: 2
SplineSet
120 282 m 0,0,1
 120 349 120 349 150.5 409.5 c 128,-1,2
 181 470 181 470 235 516.5 c 128,-1,3
 289 563 289 563 351.5 598 c 128,-1,4
 414 633 414 633 488 660 c 1,5,-1
 488 665 l 1,6,7
 430 700 430 700 390.5 726.5 c 128,-1,8
 351 753 351 753 303 793 c 128,-1,9
 255 833 255 833 226 870 c 128,-1,10
 197 907 197 907 176.5 955.5 c 128,-1,11
 156 1004 156 1004 156 1055 c 0,12,13
 156 1172 156 1172 225.5 1263.5 c 128,-1,14
 295 1355 295 1355 402 1401.5 c 128,-1,15
 509 1448 509 1448 629 1448 c 0,16,17
 819 1448 819 1448 939.5 1363.5 c 128,-1,18
 1060 1279 1060 1279 1060 1150 c 0,19,20
 1060 1090 1060 1090 1039.5 1038 c 128,-1,21
 1019 986 1019 986 978.5 942 c 128,-1,22
 938 898 938 898 895 864.5 c 128,-1,23
 852 831 852 831 791 793 c 1,24,-1
 791 787 l 1,25,26
 851 750 851 750 891.5 721.5 c 128,-1,27
 932 693 932 693 979 651.5 c 128,-1,28
 1026 610 1026 610 1054 570 c 128,-1,29
 1082 530 1082 530 1101 476 c 128,-1,30
 1120 422 1120 422 1120 363 c 0,31,32
 1120 261 1120 261 1071.5 181.5 c 128,-1,33
 1023 102 1023 102 946 57 c 128,-1,34
 869 12 869 12 784 -11 c 128,-1,35
 699 -34 699 -34 615 -34 c 0,36,37
 544 -34 544 -34 477 -24 c 128,-1,38
 410 -14 410 -14 344 9.5 c 128,-1,39
 278 33 278 33 229 68 c 128,-1,40
 180 103 180 103 150 158.5 c 128,-1,41
 120 214 120 214 120 282 c 0,0,1
282 299 m 0,42,43
 282 178 282 178 363 103.5 c 128,-1,44
 444 29 444 29 564 29 c 0,45,46
 689 29 689 29 774.5 93.5 c 128,-1,47
 860 158 860 158 860 285 c 0,48,49
 860 368 860 368 814 425.5 c 128,-1,50
 768 483 768 483 680 539 c 2,51,-1
 531 634 l 1,52,53
 282 521 282 521 282 299 c 0,42,43
416 1176 m 0,54,55
 416 1095 416 1095 454 1036.5 c 128,-1,56
 492 978 492 978 570 928 c 2,57,-1
 745 815 l 1,58,59
 907 918 907 918 907 1116 c 0,60,61
 907 1164 907 1164 893 1208.5 c 128,-1,62
 879 1253 879 1253 849 1293.5 c 128,-1,63
 819 1334 819 1334 764.5 1358 c 128,-1,64
 710 1382 710 1382 638 1382 c 0,65,66
 545 1382 545 1382 480.5 1321 c 128,-1,67
 416 1260 416 1260 416 1176 c 0,54,55
EndSplineSet
EndChar

StartChar: nine
Encoding: 57 57 25
Width: 1180
VWidth: 0
Flags: W
HStem: -31 80<122.061 408.409> 599 80<428.893 683.796> 1386 66<452.719 659.431>
VStem: 82 248<788.01 1179.33> 812 276<672.912 1122.19>
LayerCount: 3
Fore
SplineSet
82 965 m 0
 82 1289 322 1452 592 1452 c 0
 869 1452 1088 1220 1088 866 c 0
 1088 389 801 -31 264 -31 c 0
 228 -31 118 -22 118 22 c 0
 118 40 134 49 202 49 c 0
 591 49 769 336 802 700 c 1
 797 704 l 1
 731 654 623 599 500 599 c 0
 229 599 82 761 82 965 c 0
330 1039 m 0
 330 829 359 679 583 679 c 0
 673 679 770 747 807 779 c 1
 810 819 812 856 812 891 c 0
 812 1207 725 1386 546 1386 c 0
 440 1386 330 1287 330 1039 c 0
EndSplineSet
Layer: 2
SplineSet
82 965 m 0,0,1
 82 1083 82 1083 123.5 1177.5 c 128,-1,2
 165 1272 165 1272 236 1331 c 128,-1,3
 307 1390 307 1390 398 1421 c 128,-1,4
 489 1452 489 1452 592 1452 c 128,-1,5
 695 1452 695 1452 786 1410 c 128,-1,6
 877 1368 877 1368 944 1292.5 c 128,-1,7
 1011 1217 1011 1217 1049.5 1106.5 c 128,-1,8
 1088 996 1088 996 1088 866 c 0,9,10
 1088 722 1088 722 1054.5 589.5 c 128,-1,11
 1021 457 1021 457 952 344 c 128,-1,12
 883 231 883 231 786.5 147.5 c 128,-1,13
 690 64 690 64 555.5 16.5 c 128,-1,14
 421 -31 421 -31 264 -31 c 0,15,16
 239 -31 239 -31 209 -27.5 c 128,-1,17
 179 -24 179 -24 148.5 -11 c 128,-1,18
 118 2 118 2 118 22 c 0,19,20
 118 36 118 36 135.5 42.5 c 128,-1,21
 153 49 153 49 202 49 c 0,22,23
 344 49 344 49 454.5 99 c 128,-1,24
 565 149 565 149 636 239 c 128,-1,25
 707 329 707 329 748 444 c 128,-1,26
 789 559 789 559 802 700 c 1,27,-1
 797 704 l 1,28,29
 658 599 658 599 500 599 c 0,30,31
 303 599 303 599 192.5 702.5 c 128,-1,32
 82 806 82 806 82 965 c 0,0,1
330 1039 m 0,33,34
 330 969 330 969 334.5 920 c 128,-1,35
 339 871 339 871 354.5 822.5 c 128,-1,36
 370 774 370 774 397 744.5 c 128,-1,37
 424 715 424 715 470.5 697 c 128,-1,38
 517 679 517 679 583 679 c 0,39,40
 642 679 642 679 704.5 711.5 c 128,-1,41
 767 744 767 744 807 779 c 1,42,43
 812 846 812 846 812 891 c 0,44,45
 812 1131 812 1131 745.5 1258.5 c 128,-1,46
 679 1386 679 1386 546 1386 c 0,47,48
 457 1386 457 1386 393.5 1299 c 128,-1,49
 330 1212 330 1212 330 1039 c 0,33,34
EndSplineSet
EndChar

StartChar: less
Encoding: 60 60 28
Width: 1312
VWidth: 2078
Flags: W
HStem: -12 21G<1013.5 1024>
DStem2: 216 565 341 496 0.876121 0.482092<76.2507 911.989> 341 492 216 423 0.876121 -0.482092<0 835.738>
LayerCount: 3
Fore
SplineSet
152 494 m 0
 152 526 183 547 216 565 c 2
 992 992 l 2
 1001 997 1009 1000 1018 1000 c 0
 1030 1000 1038 990 1066 951 c 0
 1072 942 1082 926 1082 918 c 0
 1082 907 1070 897 1057 890 c 2
 341 496 l 1
 341 492 l 1
 1057 98 l 2
 1070 91 1082 81 1082 70 c 0
 1082 62 1072 46 1066 37 c 0
 1038 -2 1030 -12 1018 -12 c 0
 1009 -12 1001 -9 992 -4 c 2
 216 423 l 2
 183 441 152 462 152 494 c 0
EndSplineSet
Layer: 2
SplineSet
152 494 m 128,-1,1
 152 530 152 530 216 565 c 2,2,-1
 992 992 l 2,3,4
 1006 1000 1006 1000 1018 1000 c 0,5,6
 1027 1000 1027 1000 1035.5 991 c 128,-1,7
 1044 982 1044 982 1066 951 c 0,8,9
 1082 927 1082 927 1082 918 c 0,10,11
 1082 903 1082 903 1057 890 c 2,12,-1
 341 496 l 1,13,-1
 341 492 l 1,14,-1
 1057 98 l 2,15,16
 1082 85 1082 85 1082 70 c 0,17,18
 1082 61 1082 61 1066 37 c 0,19,20
 1044 6 1044 6 1035.5 -3 c 128,-1,21
 1027 -12 1027 -12 1018 -12 c 0,22,23
 1006 -12 1006 -12 992 -4 c 2,24,-1
 216 423 l 2,25,0
 152 458 152 458 152 494 c 128,-1,1
EndSplineSet
EndChar

StartChar: equal
Encoding: 61 61 29
Width: 1312
VWidth: 2078
Flags: W
HStem: 262 122<169.321 1142.68> 606 122<169.321 1142.68>
LayerCount: 3
Fore
SplineSet
152 285 m 0
 152 297 156 309 168 336 c 0
 182 368 190 384 204 384 c 2
 1127 384 l 2
 1142 384 1160 373 1160 361 c 0
 1160 349 1156 337 1144 310 c 0
 1130 278 1122 262 1108 262 c 2
 185 262 l 2
 170 262 152 273 152 285 c 0
152 629 m 0
 152 641 156 653 168 680 c 0
 182 712 190 728 204 728 c 2
 1127 728 l 2
 1142 728 1160 717 1160 705 c 0
 1160 693 1156 681 1144 654 c 0
 1130 622 1122 606 1108 606 c 2
 185 606 l 2
 170 606 152 617 152 629 c 0
EndSplineSet
Layer: 2
SplineSet
152 285 m 0,0,1
 152 300 152 300 168 336 c 0,2,3
 180 363 180 363 187 373.5 c 128,-1,4
 194 384 194 384 204 384 c 2,5,-1
 1127 384 l 2,6,7
 1139 384 1139 384 1149.5 377 c 128,-1,8
 1160 370 1160 370 1160 361 c 0,9,10
 1160 346 1160 346 1144 310 c 0,11,12
 1132 283 1132 283 1125 272.5 c 128,-1,13
 1118 262 1118 262 1108 262 c 2,14,-1
 185 262 l 2,15,16
 173 262 173 262 162.5 269 c 128,-1,17
 152 276 152 276 152 285 c 0,0,1
152 629 m 0,18,19
 152 644 152 644 168 680 c 0,20,21
 180 707 180 707 187 717.5 c 128,-1,22
 194 728 194 728 204 728 c 2,23,-1
 1127 728 l 2,24,25
 1139 728 1139 728 1149.5 721 c 128,-1,26
 1160 714 1160 714 1160 705 c 0,27,28
 1160 690 1160 690 1144 654 c 0,29,30
 1132 627 1132 627 1125 616.5 c 128,-1,31
 1118 606 1118 606 1108 606 c 2,32,-1
 185 606 l 2,33,34
 173 606 173 606 162.5 613 c 128,-1,35
 152 620 152 620 152 629 c 0,18,19
EndSplineSet
EndChar

StartChar: greater
Encoding: 62 62 30
Width: 1312
VWidth: 2078
Flags: W
HStem: -12 21G<288 298.5>
DStem2: 1096 565 255 890 0.876121 -0.482092<-911.989 -76.2507> 255 98 1096 423 0.876121 0.482092<-18.4914 817.247>
LayerCount: 3
Fore
SplineSet
230 70 m 0
 230 81 242 91 255 98 c 2
 971 492 l 1
 971 496 l 1
 255 890 l 2
 242 897 230 907 230 918 c 0
 230 926 240 942 246 951 c 0
 274 990 282 1000 294 1000 c 0
 303 1000 311 997 320 992 c 2
 1096 565 l 2
 1129 547 1160 526 1160 494 c 0
 1160 462 1129 441 1096 423 c 2
 320 -4 l 2
 311 -9 303 -12 294 -12 c 0
 282 -12 274 -2 246 37 c 0
 240 46 230 62 230 70 c 0
EndSplineSet
Layer: 2
SplineSet
230 70 m 0,0,1
 230 85 230 85 255 98 c 2,2,-1
 971 492 l 1,3,-1
 971 496 l 1,4,-1
 255 890 l 2,5,6
 230 903 230 903 230 918 c 0,7,8
 230 927 230 927 246 951 c 0,9,10
 268 982 268 982 276.5 991 c 128,-1,11
 285 1000 285 1000 294 1000 c 0,12,13
 306 1000 306 1000 320 992 c 2,14,-1
 1096 565 l 2,15,16
 1160 530 1160 530 1160 494 c 128,-1,17
 1160 458 1160 458 1096 423 c 2,18,-1
 320 -4 l 2,19,20
 306 -12 306 -12 294 -12 c 0,21,22
 285 -12 285 -12 276.5 -3 c 128,-1,23
 268 6 268 6 246 37 c 0,24,25
 230 61 230 61 230 70 c 0,0,1
EndSplineSet
EndChar

StartChar: question
Encoding: 63 63 31
Width: 896
VWidth: 2078
Flags: W
HStem: -36 320<281.751 502.249> 1245 203<340.968 624.51>
VStem: 232 320<13.7508 234.249> 265 106<438.151 588.808> 728 84<993.951 1190.27>
LayerCount: 3
Fore
SplineSet
76 1063 m 0xd8
 76 1099 115 1289 138 1313 c 0
 189 1367 301 1448 454 1448 c 0
 703 1448 812 1213 812 1069 c 0
 812 954 777 840 741 792 c 0
 697 734 592 684 498 639 c 0
 391 588 371 548 371 519 c 0
 371 501 379 485 389 472 c 0
 397 462 409 446 409 430 c 0
 409 412 396 396 368 396 c 0
 310 396 265 519 265 579 c 0
 265 758 407 826 527 883 c 0
 638 936 728 991 728 1115 c 0
 728 1184 642 1245 501 1245 c 0
 396 1245 265 1166 202 1108 c 0
 163 1072 129 1041 110 1041 c 0
 97 1041 76 1053 76 1063 c 0xd8
232 124 m 0xe8
 232 212 304 284 392 284 c 0
 480 284 552 212 552 124 c 0
 552 36 480 -36 392 -36 c 0
 304 -36 232 36 232 124 c 0xe8
EndSplineSet
Layer: 2
SplineSet
76 1063 m 0,0,1
 76 1095 76 1095 99 1196 c 128,-1,2
 122 1297 122 1297 138 1313 c 0,3,4
 187 1365 187 1365 269 1406.5 c 128,-1,5
 351 1448 351 1448 454 1448 c 0,6,7
 525 1448 525 1448 586 1422.5 c 128,-1,8
 647 1397 647 1397 687.5 1356.5 c 128,-1,9
 728 1316 728 1316 757 1265 c 128,-1,10
 786 1214 786 1214 799 1164 c 128,-1,11
 812 1114 812 1114 812 1069 c 0,12,13
 812 987 812 987 791 908.5 c 128,-1,14
 770 830 770 830 741 792 c 0,15,16
 721 765 721 765 676 735 c 128,-1,17
 631 705 631 705 597 687.5 c 128,-1,18
 563 670 563 670 498 639 c 0,19,20
 371 578 371 578 371 519 c 0,21,22
 371 495 371 495 389 472 c 0,23,24
 409 447 409 447 409 430 c 0,25,26
 409 416 409 416 398.5 406 c 128,-1,27
 388 396 388 396 368 396 c 0,28,29
 328 396 328 396 296.5 461.5 c 128,-1,30
 265 527 265 527 265 579 c 0,31,32
 265 622 265 622 275 659 c 128,-1,33
 285 696 285 696 307 725.5 c 128,-1,34
 329 755 329 755 349.5 776 c 128,-1,35
 370 797 370 797 406.5 819 c 128,-1,36
 443 841 443 841 465 852.5 c 128,-1,37
 487 864 487 864 527 883 c 0,38,39
 575 906 575 906 606 925 c 128,-1,40
 637 944 637 944 668 971.5 c 128,-1,41
 699 999 699 999 713.5 1034.5 c 128,-1,42
 728 1070 728 1070 728 1115 c 0,43,44
 728 1169 728 1169 665.5 1207 c 128,-1,45
 603 1245 603 1245 501 1245 c 0,46,47
 429 1245 429 1245 343 1202 c 128,-1,48
 257 1159 257 1159 202 1108 c 0,49,50
 129 1041 129 1041 110 1041 c 0,51,52
 100 1041 100 1041 88 1048.5 c 128,-1,53
 76 1056 76 1056 76 1063 c 0,0,1
232 124 m 128,-1,55
 232 190 232 190 279 237 c 128,-1,56
 326 284 326 284 392 284 c 128,-1,57
 458 284 458 284 505 237 c 128,-1,58
 552 190 552 190 552 124 c 128,-1,59
 552 58 552 58 505 11 c 128,-1,60
 458 -36 458 -36 392 -36 c 128,-1,61
 326 -36 326 -36 279 11 c 128,-1,54
 232 58 232 58 232 124 c 128,-1,55
EndSplineSet
EndChar

StartChar: at
Encoding: 64 64 32
Width: 2004
VWidth: 0
Flags: W
HStem: -328 96<705.161 1282.78> 52 122<640 861.801> 52 80<1256.54 1462.8> 976 142<1101.61 1216> 1354 96<832.061 1374.83>
VStem: 112 152<227.585 777.729> 487 224<237.327 610.314> 1740 152<513.177 986.479>
DStem2: 1051 372 1253 332 0.268319 0.96333<-72.2165 626.124>
LayerCount: 3
Fore
SplineSet
112 511 m 0xbf
 112 1011 547 1450 1107 1450 c 0
 1635 1450 1892 1095 1892 747 c 0
 1892 412 1603 52 1291 52 c 0xbf
 1174 52 1075 120 1049 245 c 9
 1032 245 l 17
 963 145 834 52 690 52 c 0xdf
 590 52 487 208 487 420 c 0
 487 791 949 1118 1377 1118 c 0
 1394 1118 1463 1108 1463 1098 c 0
 1463 1088 1459 1072 1458 1068 c 2
 1253 332 l 10
 1244 298 1238 264 1238 244 c 0
 1238 168 1273 132 1330 132 c 0
 1587 132 1740 469 1740 731 c 0
 1740 1069 1546 1354 1103 1354 c 0
 585 1354 264 954 264 510 c 0
 264 71 511 -232 987 -232 c 0
 1194 -232 1452 -164 1604 -10 c 0
 1631 17 1659 45 1696 45 c 0
 1725 45 1738 18 1738 -4 c 0
 1738 -116 1368 -328 984 -328 c 0
 443 -328 112 15 112 511 c 0xbf
711 501 m 0
 711 397 732 174 828 174 c 0xdf
 894 174 1020 260 1051 372 c 26
 1216 976 l 17
 936 976 711 877 711 501 c 0
EndSplineSet
Layer: 2
SplineSet
112 511 m 128,-1,1
 112 696 112 696 189.5 868 c 128,-1,2
 267 1040 267 1040 398.5 1168 c 128,-1,3
 530 1296 530 1296 716 1373 c 128,-1,4
 902 1450 902 1450 1107 1450 c 0,5,6
 1261 1450 1261 1450 1391 1410.5 c 128,-1,7
 1521 1371 1521 1371 1612 1303 c 128,-1,8
 1703 1235 1703 1235 1767 1145 c 128,-1,9
 1831 1055 1831 1055 1861.5 954 c 128,-1,10
 1892 853 1892 853 1892 747 c 0,11,12
 1892 624 1892 624 1841.5 497.5 c 128,-1,13
 1791 371 1791 371 1709 273.5 c 128,-1,14
 1627 176 1627 176 1516 114 c 128,-1,15
 1405 52 1405 52 1291 52 c 0,16,17
 1201 52 1201 52 1134.5 103 c 128,-1,18
 1068 154 1068 154 1049 245 c 1,19,-1
 1032 245 l 1,20,21
 976 164 976 164 884 108 c 128,-1,22
 792 52 792 52 690 52 c 0,23,24
 612 52 612 52 549.5 159 c 128,-1,25
 487 266 487 266 487 420 c 0,26,27
 487 555 487 555 566.5 685 c 128,-1,28
 646 815 646 815 771.5 909 c 128,-1,29
 897 1003 897 1003 1058 1060.5 c 128,-1,30
 1219 1118 1219 1118 1377 1118 c 0,31,32
 1394 1118 1394 1118 1428.5 1111.5 c 128,-1,33
 1463 1105 1463 1105 1463 1098 c 0,34,35
 1463 1088 1463 1088 1458 1068 c 2,36,-1
 1253 332 l 2,37,38
 1238 275 1238 275 1238 244 c 0,39,40
 1238 132 1238 132 1330 132 c 128,-1,41
 1422 132 1422 132 1501.5 188.5 c 128,-1,42
 1581 245 1581 245 1632 333.5 c 128,-1,43
 1683 422 1683 422 1711.5 526.5 c 128,-1,44
 1740 631 1740 631 1740 731 c 0,45,46
 1740 861 1740 861 1702 971.5 c 128,-1,47
 1664 1082 1664 1082 1588.5 1168.5 c 128,-1,48
 1513 1255 1513 1255 1388.5 1304.5 c 128,-1,49
 1264 1354 1264 1354 1103 1354 c 0,50,51
 951 1354 951 1354 817 1309 c 128,-1,52
 683 1264 683 1264 583 1184.5 c 128,-1,53
 483 1105 483 1105 410.5 999 c 128,-1,54
 338 893 338 893 301 768 c 128,-1,55
 264 643 264 643 264 510 c 0,56,57
 264 288 264 288 344.5 122.5 c 128,-1,58
 425 -43 425 -43 589.5 -137.5 c 128,-1,59
 754 -232 754 -232 987 -232 c 0,60,61
 1155 -232 1155 -232 1325.5 -175.5 c 128,-1,62
 1496 -119 1496 -119 1604 -10 c 0,63,64
 1622 8 1622 8 1632.5 17 c 128,-1,65
 1643 26 1643 26 1661 35.5 c 128,-1,66
 1679 45 1679 45 1696 45 c 0,67,68
 1716 45 1716 45 1727 30 c 128,-1,69
 1738 15 1738 15 1738 -4 c 0,70,71
 1738 -46 1738 -46 1673 -102 c 128,-1,72
 1608 -158 1608 -158 1506 -208 c 128,-1,73
 1404 -258 1404 -258 1262.5 -293 c 128,-1,74
 1121 -328 1121 -328 984 -328 c 0,75,76
 784 -328 784 -328 620 -266.5 c 128,-1,77
 456 -205 456 -205 344.5 -94.5 c 128,-1,78
 233 16 233 16 172.5 171 c 128,-1,0
 112 326 112 326 112 511 c 128,-1,1
711 501 m 0,79,80
 711 455 711 455 716 405 c 128,-1,81
 721 355 721 355 733 300 c 128,-1,82
 745 245 745 245 769.5 209.5 c 128,-1,83
 794 174 794 174 828 174 c 0,84,85
 883 174 883 174 956 233.5 c 128,-1,86
 1029 293 1029 293 1051 372 c 2,87,-1
 1216 976 l 1,88,89
 1127 976 1127 976 1055 963 c 128,-1,90
 983 950 983 950 917.5 917 c 128,-1,91
 852 884 852 884 807.5 831 c 128,-1,92
 763 778 763 778 737 694.5 c 128,-1,93
 711 611 711 611 711 501 c 0,79,80
EndSplineSet
EndChar

StartChar: A
Encoding: 65 65 33
Width: 1378
VWidth: 0
Flags: W
HStem: 0 60<12 103.776 251.853 339 847 959 1258 1354> 408 60<339 830> 1436 20G<783 799.5>
DStem2: 179 205 246 196 0.321067 0.947057<-47.0566 237.202 300.447 1086.29> 839 1373 592 1212 0.304012 -0.952668<78.2886 859.429 922.365 1287.33>
AnchorPoint: "Bottom" 592 0 basechar 0
AnchorPoint: "TopCap" 688 1560 basechar 0
LayerCount: 3
Fore
SplineSet
12 0 m 1
 12 60 l 1
 109 60 154 130 179 205 c 2
 537 1261 l 10
 542 1277 545 1287 545 1304 c 0
 545 1325 531 1336 511 1341 c 0
 492 1346 470 1358 470 1374 c 0
 470 1391 491 1400 504 1400 c 0
 610 1401 702 1413 740 1441 c 0
 752 1450 778 1456 788 1456 c 0
 811 1456 822 1425 839 1373 c 2
 1258 60 l 1
 1354 60 l 1
 1354 0 l 1
 847 0 l 1
 847 60 l 1
 959 60 l 1
 849 408 l 1
 319 408 l 1
 246 196 l 2
 239 177 234 150 234 136 c 0
 234 101 258 60 339 60 c 1
 339 0 l 1
 12 0 l 1
339 468 m 1
 830 468 l 1
 592 1212 l 1
 339 468 l 1
EndSplineSet
Layer: 2
SplineSet
12 0 m 1,0,-1
 12 60 l 1,1,2
 131 60 131 60 179 205 c 1,3,-1
 537 1261 l 2,4,5
 545 1287 545 1287 545 1304 c 0,6,7
 545 1332 545 1332 511 1341 c 0,8,9
 470 1352 470 1352 470 1374 c 0,10,11
 470 1386 470 1386 481.5 1393 c 128,-1,12
 493 1400 493 1400 504 1400 c 0,13,14
 687 1402 687 1402 740 1441 c 0,15,16
 760 1456 760 1456 788 1456 c 0,17,18
 804 1456 804 1456 814 1437.5 c 128,-1,19
 824 1419 824 1419 839 1373 c 2,20,-1
 1258 60 l 1,21,-1
 1354 60 l 1,22,-1
 1354 0 l 1,23,-1
 847 0 l 1,24,-1
 847 60 l 1,25,-1
 959 60 l 1,26,-1
 849 408 l 1,27,-1
 319 408 l 1,28,-1
 246 196 l 2,29,30
 234 163 234 163 234 136 c 0,31,32
 234 105 234 105 259 82.5 c 128,-1,33
 284 60 284 60 339 60 c 1,34,-1
 339 0 l 1,35,-1
 12 0 l 1,0,-1
339 468 m 1,36,-1
 830 468 l 1,37,-1
 592 1212 l 1,38,-1
 339 468 l 1,36,-1
EndSplineSet
EndChar

StartChar: B
Encoding: 66 66 34
Width: 1364
VWidth: 0
Flags: W
HStem: 0 60<96 200 482 855.548> 748 60<482 802.633> 1360 60<96 200 482 804.117>
VStem: 200 282<60 748 808 1360> 905 274<941.083 1250.36> 992 308<214.933 557.125>
AnchorPoint: "Bottom" 592 0 basechar 0
LayerCount: 3
Fore
SplineSet
96 0 m 1xf4
 96 60 l 1
 200 60 l 1
 200 1360 l 1
 96 1360 l 1
 96 1420 l 1
 726 1420 l 2
 969 1420 1179 1319 1179 1099 c 0xf8
 1179 918 1049 810 831 798 c 1
 831 784 l 1
 1065 754 1300 641 1300 395 c 0
 1300 95 1033 0 814 0 c 2
 96 0 l 1xf4
482 60 m 1
 718 60 l 2
 898 60 992 154 992 404 c 0xf4
 992 608 905 746 722 748 c 2
 482 748 l 1
 482 60 l 1
482 808 m 1
 678 808 l 2
 876 808 905 953 905 1100 c 0xf8
 905 1257 846 1360 675 1360 c 2
 482 1360 l 1
 482 808 l 1
EndSplineSet
Layer: 2
SplineSet
96 0 m 1,0,-1
 96 60 l 1,1,-1
 200 60 l 1,2,-1
 200 1360 l 1,3,-1
 96 1360 l 1,4,-1
 96 1420 l 1,5,-1
 726 1420 l 2,6,7
 852 1420 852 1420 952 1386.5 c 128,-1,8
 1052 1353 1052 1353 1115.5 1279 c 128,-1,9
 1179 1205 1179 1205 1179 1099 c 0,10,11
 1179 964 1179 964 1087.5 885.5 c 128,-1,12
 996 807 996 807 831 798 c 1,13,-1
 831 784 l 1,14,15
 904 775 904 775 970 756 c 128,-1,16
 1036 737 1036 737 1097 704.5 c 128,-1,17
 1158 672 1158 672 1202.5 629.5 c 128,-1,18
 1247 587 1247 587 1273.5 526.5 c 128,-1,19
 1300 466 1300 466 1300 395 c 0,20,21
 1300 308 1300 308 1270 239 c 128,-1,22
 1240 170 1240 170 1192 126 c 128,-1,23
 1144 82 1144 82 1079.5 53 c 128,-1,24
 1015 24 1015 24 949 12 c 128,-1,25
 883 0 883 0 814 0 c 2,26,-1
 96 0 l 1,0,-1
482 60 m 1,27,-1
 718 60 l 2,28,29
 857 60 857 60 924.5 140.5 c 128,-1,30
 992 221 992 221 992 404 c 0,31,32
 992 562 992 562 923.5 654.5 c 128,-1,33
 855 747 855 747 722 748 c 1,34,-1
 482 748 l 1,35,-1
 482 60 l 1,27,-1
482 808 m 1,36,-1
 678 808 l 2,37,38
 735 808 735 808 777.5 825 c 128,-1,39
 820 842 820 842 844 868 c 128,-1,40
 868 894 868 894 882 934 c 128,-1,41
 896 974 896 974 900.5 1012.5 c 128,-1,42
 905 1051 905 1051 905 1100 c 0,43,44
 905 1225 905 1225 851 1292.5 c 128,-1,45
 797 1360 797 1360 675 1360 c 2,46,-1
 482 1360 l 1,47,-1
 482 808 l 1,36,-1
EndSplineSet
EndChar

StartChar: C
Encoding: 67 67 35
Width: 1498
VWidth: 0
Flags: W
HStem: -34 60<703.842 974.023> 1396 60<703.842 987.978>
VStem: 112 320<438.196 983.804>
AnchorPoint: "Bottom" 830 0 basechar 0
AnchorPoint: "TopCap" 830 1560 basechar 0
LayerCount: 3
Fore
SplineSet
112 711 m 0
 112 1205 454 1456 830 1456 c 0
 992 1456 1128 1419 1238 1360 c 0
 1326 1313 1348 1291 1348 1244 c 0
 1348 1235 1346 1204 1344 1191 c 2
 1328 997 l 2
 1326 979 1318 967 1304 967 c 0
 1274 967 1257 1003 1239 1047 c 0
 1179 1194 1094 1396 830 1396 c 0
 517 1396 432 1005 432 711 c 0
 432 417 517 26 830 26 c 0
 1050 26 1191 210 1247 348 c 0
 1265 392 1285 440 1315 440 c 0
 1329 440 1337 428 1339 410 c 2
 1352 200 l 2
 1353 187 1354 156 1354 147 c 0
 1354 104 1333 88 1244 42 c 0
 1138 -12 992 -34 830 -34 c 0
 454 -34 112 217 112 711 c 0
EndSplineSet
Layer: 2
SplineSet
112 711 m 128,-1,1
 112 890 112 890 171 1034.5 c 128,-1,2
 230 1179 230 1179 330.5 1269.5 c 128,-1,3
 431 1360 431 1360 559 1408 c 128,-1,4
 687 1456 687 1456 830 1456 c 0,5,6
 1059 1456 1059 1456 1238 1360 c 0,7,8
 1304 1324 1304 1324 1326 1301.5 c 128,-1,9
 1348 1279 1348 1279 1348 1244 c 0,10,11
 1348 1217 1348 1217 1344 1191 c 1,12,-1
 1328 997 l 2,13,14
 1325 967 1325 967 1304 967 c 0,15,16
 1284 967 1284 967 1269.5 987 c 128,-1,17
 1255 1007 1255 1007 1239 1047 c 0,18,19
 1222 1089 1222 1089 1211 1113.5 c 128,-1,20
 1200 1138 1200 1138 1178 1179.5 c 128,-1,21
 1156 1221 1156 1221 1136 1247 c 128,-1,22
 1116 1273 1116 1273 1083.5 1304.5 c 128,-1,23
 1051 1336 1051 1336 1016 1353.5 c 128,-1,24
 981 1371 981 1371 933 1383.5 c 128,-1,25
 885 1396 885 1396 830 1396 c 0,26,27
 740 1396 740 1396 669 1352.5 c 128,-1,28
 598 1309 598 1309 554.5 1240 c 128,-1,29
 511 1171 511 1171 482.5 1078.5 c 128,-1,30
 454 986 454 986 443 896 c 128,-1,31
 432 806 432 806 432 711 c 128,-1,32
 432 616 432 616 443 526 c 128,-1,33
 454 436 454 436 482.5 343.5 c 128,-1,34
 511 251 511 251 554.5 182 c 128,-1,35
 598 113 598 113 669 69.5 c 128,-1,36
 740 26 740 26 830 26 c 0,37,38
 908 26 908 26 979 56 c 128,-1,39
 1050 86 1050 86 1101 136 c 128,-1,40
 1152 186 1152 186 1188 239 c 128,-1,41
 1224 292 1224 292 1247 348 c 0,42,43
 1259 377 1259 377 1266.5 393 c 128,-1,44
 1274 409 1274 409 1287.5 424.5 c 128,-1,45
 1301 440 1301 440 1315 440 c 0,46,47
 1336 440 1336 440 1339 410 c 1,48,-1
 1352 200 l 2,49,50
 1354 174 1354 174 1354 147 c 0,51,52
 1354 116 1354 116 1333.5 97 c 128,-1,53
 1313 78 1313 78 1244 42 c 0,54,55
 1095 -34 1095 -34 830 -34 c 0,56,57
 687 -34 687 -34 559 14 c 128,-1,58
 431 62 431 62 330.5 152.5 c 128,-1,59
 230 243 230 243 171 387.5 c 128,-1,0
 112 532 112 532 112 711 c 128,-1,1
EndSplineSet
EndChar

StartChar: D
Encoding: 68 68 36
Width: 1556
VWidth: 0
Flags: W
HStem: 0 60<96 200 482 819.921> 1360 60<96 200 482 819.921>
VStem: 200 282<60 1360> 1132 320<440.795 979.973>
AnchorPoint: "Bottom" 640 0 basechar 0
AnchorPoint: "TopCap" 640 1560 basechar 0
LayerCount: 3
Fore
SplineSet
96 0 m 1
 96 60 l 1
 200 60 l 1
 200 1360 l 1
 96 1360 l 1
 96 1420 l 1
 707 1420 l 2
 1209 1420 1452 1114 1452 710 c 0
 1452 306 1209 0 707 0 c 2
 96 0 l 1
482 60 m 1
 660 60 l 2
 1063 60 1132 433 1132 711 c 0
 1132 989 1063 1360 660 1360 c 2
 482 1360 l 1
 482 60 l 1
EndSplineSet
Layer: 2
SplineSet
96 0 m 1,0,-1
 96 60 l 1,1,-1
 200 60 l 1,2,-1
 200 1360 l 1,3,-1
 96 1360 l 1,4,-1
 96 1420 l 1,5,-1
 707 1420 l 2,6,7
 891 1420 891 1420 1034.5 1366 c 128,-1,8
 1178 1312 1178 1312 1268.5 1216 c 128,-1,9
 1359 1120 1359 1120 1405.5 991.5 c 128,-1,10
 1452 863 1452 863 1452 710 c 128,-1,11
 1452 557 1452 557 1405.5 428.5 c 128,-1,12
 1359 300 1359 300 1268.5 204 c 128,-1,13
 1178 108 1178 108 1034.5 54 c 128,-1,14
 891 0 891 0 707 0 c 2,15,-1
 96 0 l 1,0,-1
482 60 m 1,16,-1
 660 60 l 2,17,18
 744 60 744 60 813 82 c 128,-1,19
 882 104 882 104 930 140 c 128,-1,20
 978 176 978 176 1015 229 c 128,-1,21
 1052 282 1052 282 1073.5 338 c 128,-1,22
 1095 394 1095 394 1108.5 461 c 128,-1,23
 1122 528 1122 528 1127 587 c 128,-1,24
 1132 646 1132 646 1132 711 c 128,-1,25
 1132 776 1132 776 1127 835 c 128,-1,26
 1122 894 1122 894 1108.5 961 c 128,-1,27
 1095 1028 1095 1028 1073 1083.5 c 128,-1,28
 1051 1139 1051 1139 1014.5 1191.5 c 128,-1,29
 978 1244 978 1244 930 1280.5 c 128,-1,30
 882 1317 882 1317 813 1338.5 c 128,-1,31
 744 1360 744 1360 660 1360 c 2,32,-1
 482 1360 l 1,33,-1
 482 60 l 1,16,-1
EndSplineSet
EndChar

StartChar: E
Encoding: 69 69 37
Width: 1252
VWidth: 0
Flags: W
HStem: 0 60<96 200 482 869.839> 706 60<482 724.595> 1360 60<96 200 482 870.67>
VStem: 200 282<60 706 766 1360>
AnchorPoint: "Bottom" 630 0 basechar 0
AnchorPoint: "TopCap" 622 1560 basechar 0
LayerCount: 3
Fore
SplineSet
96 0 m 1
 96 60 l 1
 200 60 l 1
 200 1360 l 1
 96 1360 l 1
 96 1420 l 1
 1117 1420 l 18
 1133 1420 1140 1414 1140 1406 c 0
 1140 1398 1136 1380 1133 1371 c 0
 1105 1283 1087 1193 1080 1100 c 0
 1079 1088 1064 1078 1047 1078 c 0
 1034 1078 1016 1086 1014 1100 c 0
 1005 1153 984 1206 954 1250 c 0
 905 1322 842 1360 745 1360 c 10
 482 1360 l 1
 482 766 l 1
 572 766 l 2
 656 766 740 789 783 836 c 0
 813 869 836 912 847 961 c 0
 851 977 862 988 878 988 c 0
 900 988 911 977 911 960 c 10
 911 501 l 18
 911 484 899 473 879 473 c 0
 863 473 851 484 847 500 c 0
 838 540 815 595 787 631 c 0
 742 689 656 706 572 706 c 2
 482 706 l 1
 482 60 l 1
 676 60 l 18
 810 60 909 78 1006 187 c 0
 1051 238 1083 289 1113 356 c 0
 1123 378 1134 392 1160 392 c 0
 1180 392 1196 376 1196 357 c 0
 1196 343 1191 313 1184 272 c 10
 1137 0 l 9
 96 0 l 1
EndSplineSet
Layer: 2
SplineSet
96 0 m 1,0,-1
 96 60 l 1,1,-1
 200 60 l 1,2,-1
 200 1360 l 1,3,-1
 96 1360 l 1,4,-1
 96 1420 l 1,5,-1
 1117 1420 l 2,6,7
 1140 1420 1140 1420 1140 1406 c 128,-1,8
 1140 1392 1140 1392 1133 1371 c 0,9,10
 1090 1237 1090 1237 1080 1100 c 0,11,12
 1079 1091 1079 1091 1069.5 1084.5 c 128,-1,13
 1060 1078 1060 1078 1047 1078 c 0,14,15
 1036 1078 1036 1078 1025.5 1084 c 128,-1,16
 1015 1090 1015 1090 1014 1100 c 0,17,18
 1000 1183 1000 1183 954 1250 c 0,19,20
 879 1360 879 1360 745 1360 c 2,21,-1
 482 1360 l 1,22,-1
 482 766 l 1,23,-1
 572 766 l 2,24,25
 638 766 638 766 695 784 c 128,-1,26
 752 802 752 802 783 836 c 0,27,28
 831 888 831 888 847 961 c 1,29,30
 854 988 854 988 878 988 c 0,31,32
 911 988 911 988 911 960 c 2,33,-1
 911 501 l 2,34,35
 911 473 911 473 879 473 c 0,36,37
 854 473 854 473 847 500 c 0,38,39
 830 576 830 576 787 631 c 0,40,41
 729 706 729 706 572 706 c 2,42,-1
 482 706 l 1,43,-1
 482 60 l 1,44,-1
 676 60 l 2,45,46
 788 60 788 60 863 85.5 c 128,-1,47
 938 111 938 111 1006 187 c 0,48,49
 1070 259 1070 259 1113 356 c 0,50,51
 1129 392 1129 392 1160 392 c 0,52,53
 1175 392 1175 392 1185.5 381.5 c 128,-1,54
 1196 371 1196 371 1196 357 c 0,55,56
 1196 342 1196 342 1184 272 c 2,57,-1
 1137 0 l 1,58,-1
 96 0 l 1,0,-1
EndSplineSet
EndChar

StartChar: F
Encoding: 70 70 38
Width: 1176
VWidth: 0
Flags: W
HStem: 0 60<96 200 482 586> 706 60<482 724.595> 1360 60<96 200 482 870.67>
VStem: 200 282<60 706 766 1360>
AnchorPoint: "Bottom" 344 0 basechar 0
LayerCount: 3
Fore
SplineSet
96 0 m 25
 96 60 l 25
 200 60 l 17
 200 1360 l 1
 96 1360 l 1
 96 1420 l 1
 1117 1420 l 18
 1133 1420 1140 1414 1140 1406 c 0
 1140 1398 1136 1380 1133 1371 c 0
 1105 1283 1087 1193 1080 1100 c 0
 1079 1088 1064 1078 1047 1078 c 0
 1034 1078 1016 1086 1014 1100 c 0
 1005 1153 984 1206 954 1250 c 0
 905 1322 842 1360 745 1360 c 10
 482 1360 l 1
 482 766 l 1
 572 766 l 2
 656 766 740 789 783 836 c 0
 813 869 836 912 847 961 c 0
 851 977 862 988 878 988 c 0
 900 988 911 977 911 960 c 10
 911 501 l 18
 911 484 899 473 879 473 c 0
 863 473 851 484 847 500 c 0
 838 540 815 595 787 631 c 0
 742 689 656 706 572 706 c 2
 482 706 l 1
 482 60 l 9
 586 60 l 25
 586 0 l 25
 96 0 l 25
EndSplineSet
Layer: 2
SplineSet
96 0 m 25,0,-1
 96 60 l 1,1,-1
 200 60 l 1,2,-1
 200 1360 l 1,3,-1
 96 1360 l 1,4,-1
 96 1420 l 1,5,-1
 1117 1420 l 2,6,7
 1140 1420 1140 1420 1140 1406 c 128,-1,8
 1140 1392 1140 1392 1133 1371 c 0,9,10
 1090 1237 1090 1237 1080 1100 c 0,11,12
 1079 1091 1079 1091 1069.5 1084.5 c 128,-1,13
 1060 1078 1060 1078 1047 1078 c 0,14,15
 1036 1078 1036 1078 1025.5 1084 c 128,-1,16
 1015 1090 1015 1090 1014 1100 c 0,17,18
 1000 1183 1000 1183 954 1250 c 0,19,20
 879 1360 879 1360 745 1360 c 2,21,-1
 482 1360 l 1,22,-1
 482 766 l 1,23,-1
 572 766 l 2,24,25
 638 766 638 766 695 784 c 128,-1,26
 752 802 752 802 783 836 c 0,27,28
 831 888 831 888 847 961 c 1,29,30
 854 988 854 988 878 988 c 0,31,32
 911 988 911 988 911 960 c 2,33,-1
 911 501 l 2,34,35
 911 473 911 473 879 473 c 0,36,37
 854 473 854 473 847 500 c 0,38,39
 830 576 830 576 787 631 c 0,40,41
 729 706 729 706 572 706 c 2,42,-1
 482 706 l 1,43,-1
 482 60 l 1,44,-1
 586 60 l 1,45,-1
 586 0 l 1,46,-1
 96 0 l 25,0,-1
EndSplineSet
EndChar

StartChar: G
Encoding: 71 71 39
Width: 1622
VWidth: 0
Flags: W
HStem: -34 60<703.842 989.567> 572 60<933.01 1114.34 1419.66 1501.99> 1396 60<703.842 987.978>
VStem: 112 320<438.196 983.804> 1142 254<140.974 548.062>
AnchorPoint: "TopCap" 830 1560 basechar 0
AnchorPoint: "Bottom" 836 0 basechar 0
LayerCount: 3
Fore
SplineSet
112 711 m 0
 112 1205 454 1456 830 1456 c 0
 992 1456 1128 1419 1238 1360 c 0
 1326 1313 1348 1291 1348 1244 c 0
 1348 1235 1346 1204 1344 1191 c 2
 1328 997 l 2
 1326 979 1318 967 1304 967 c 0
 1274 967 1257 1003 1239 1047 c 0
 1179 1194 1094 1396 830 1396 c 0
 517 1396 432 1005 432 711 c 0
 432 417 517 26 830 26 c 0
 1094 26 1142 191 1142 287 c 2
 1142 478 l 26
 1142 508 1135 529 1115 549 c 0
 1101 563 1077 572 1045 572 c 2
 966 572 l 2
 947 572 933 585 933 602 c 0
 933 619 943 632 958 632 c 26
 1474 632 l 26
 1490 632 1502 622 1502 602 c 0
 1502 588 1495 572 1480 572 c 0
 1458 572 1433 569 1419 554 c 0
 1400 533 1396 509 1396 478 c 26
 1396 184 l 18
 1396 169 1403 162 1414 156 c 0
 1421 152 1430 142 1430 134 c 0
 1430 116 1414 102 1384 84 c 0
 1276 18 992 -34 830 -34 c 0
 454 -34 112 217 112 711 c 0
EndSplineSet
Layer: 2
SplineSet
112 711 m 128,-1,1
 112 890 112 890 171 1034.5 c 128,-1,2
 230 1179 230 1179 330.5 1269.5 c 128,-1,3
 431 1360 431 1360 559 1408 c 128,-1,4
 687 1456 687 1456 830 1456 c 0,5,6
 1059 1456 1059 1456 1238 1360 c 0,7,8
 1304 1324 1304 1324 1326 1301.5 c 128,-1,9
 1348 1279 1348 1279 1348 1244 c 0,10,11
 1348 1217 1348 1217 1344 1191 c 1,12,-1
 1328 997 l 2,13,14
 1325 967 1325 967 1304 967 c 0,15,16
 1284 967 1284 967 1269.5 987 c 128,-1,17
 1255 1007 1255 1007 1239 1047 c 0,18,19
 1222 1089 1222 1089 1211 1113.5 c 128,-1,20
 1200 1138 1200 1138 1178 1179.5 c 128,-1,21
 1156 1221 1156 1221 1136 1247 c 128,-1,22
 1116 1273 1116 1273 1083.5 1304.5 c 128,-1,23
 1051 1336 1051 1336 1016 1353.5 c 128,-1,24
 981 1371 981 1371 933 1383.5 c 128,-1,25
 885 1396 885 1396 830 1396 c 0,26,27
 740 1396 740 1396 669 1352.5 c 128,-1,28
 598 1309 598 1309 554.5 1240 c 128,-1,29
 511 1171 511 1171 482.5 1078.5 c 128,-1,30
 454 986 454 986 443 896 c 128,-1,31
 432 806 432 806 432 711 c 128,-1,32
 432 616 432 616 443 526 c 128,-1,33
 454 436 454 436 482.5 343.5 c 128,-1,34
 511 251 511 251 554.5 182 c 128,-1,35
 598 113 598 113 669 69.5 c 128,-1,36
 740 26 740 26 830 26 c 0,37,38
 905 26 905 26 963 44.5 c 128,-1,39
 1021 63 1021 63 1054 90 c 128,-1,40
 1087 117 1087 117 1108 154 c 128,-1,41
 1129 191 1129 191 1135.5 222.5 c 128,-1,42
 1142 254 1142 254 1142 287 c 2,43,-1
 1142 478 l 2,44,45
 1142 522 1142 522 1115 549 c 0,46,47
 1092 572 1092 572 1045 572 c 2,48,-1
 966 572 l 2,49,50
 952 572 952 572 942.5 580.5 c 128,-1,51
 933 589 933 589 933 602 c 128,-1,52
 933 615 933 615 940 623.5 c 128,-1,53
 947 632 947 632 958 632 c 2,54,-1
 1474 632 l 2,55,56
 1502 632 1502 632 1502 602 c 0,57,58
 1502 590 1502 590 1496 581 c 128,-1,59
 1490 572 1490 572 1480 572 c 0,60,61
 1436 572 1436 572 1419 554 c 0,62,63
 1396 529 1396 529 1396 478 c 2,64,-1
 1396 184 l 2,65,66
 1396 166 1396 166 1414 156 c 0,67,68
 1430 147 1430 147 1430 134 c 0,69,70
 1430 112 1430 112 1384 84 c 0,71,72
 1306 37 1306 37 1132 1.5 c 128,-1,73
 958 -34 958 -34 830 -34 c 0,74,75
 687 -34 687 -34 559 14 c 128,-1,76
 431 62 431 62 330.5 152.5 c 128,-1,77
 230 243 230 243 171 387.5 c 128,-1,0
 112 532 112 532 112 711 c 128,-1,1
EndSplineSet
EndChar

StartChar: H
Encoding: 72 72 40
Width: 1600
VWidth: 0
Flags: W
HStem: 0 60<96 200 482 586 1014 1118 1400 1504> 718 60<482 1118> 1360 60<96 200 482 586 1014 1118 1400 1504>
VStem: 200 282<60 718 778 1360> 1118 282<60 718 778 1360>
AnchorPoint: "TopCap" 800 1560 basechar 0
AnchorPoint: "Bottom" 800 0 basechar 0
LayerCount: 3
Fore
SplineSet
96 0 m 1
 96 60 l 1
 200 60 l 1
 200 1360 l 1
 96 1360 l 1
 96 1420 l 1
 586 1420 l 1
 586 1360 l 1
 482 1360 l 1
 482 778 l 1
 1118 778 l 1
 1118 1360 l 1
 1014 1360 l 1
 1014 1420 l 1
 1504 1420 l 1
 1504 1360 l 1
 1400 1360 l 1
 1400 60 l 1
 1504 60 l 1
 1504 0 l 1
 1014 0 l 1
 1014 60 l 1
 1118 60 l 1
 1118 718 l 1
 482 718 l 1
 482 60 l 1
 586 60 l 1
 586 0 l 1
 96 0 l 1
EndSplineSet
Layer: 2
SplineSet
96 0 m 1,0,-1
 96 60 l 1,1,-1
 200 60 l 1,2,-1
 200 1360 l 1,3,-1
 96 1360 l 1,4,-1
 96 1420 l 1,5,-1
 586 1420 l 1,6,-1
 586 1360 l 1,7,-1
 482 1360 l 1,8,-1
 482 778 l 1,9,-1
 1118 778 l 1,10,-1
 1118 1360 l 1,11,-1
 1014 1360 l 1,12,-1
 1014 1420 l 1,13,-1
 1504 1420 l 1,14,-1
 1504 1360 l 1,15,-1
 1400 1360 l 1,16,-1
 1400 60 l 1,17,-1
 1504 60 l 1,18,-1
 1504 0 l 1,19,-1
 1014 0 l 1,20,-1
 1014 60 l 1,21,-1
 1118 60 l 1,22,-1
 1118 718 l 1,23,-1
 482 718 l 1,24,-1
 482 60 l 1,25,-1
 586 60 l 1,26,-1
 586 0 l 1,27,-1
 96 0 l 1,0,-1
EndSplineSet
EndChar

StartChar: I
Encoding: 73 73 41
Width: 682
VWidth: 0
Flags: W
HStem: 0 60<96 200 482 586> 1360 60<96 200 482 586>
VStem: 200 282<60 1360>
AnchorPoint: "TopCap" 341 1560 basechar 0
AnchorPoint: "Bottom" 341 0 basechar 0
LayerCount: 3
Fore
SplineSet
96 0 m 25
 96 60 l 25
 200 60 l 25
 200 1360 l 25
 96 1360 l 25
 96 1420 l 25
 586 1420 l 25
 586 1360 l 25
 482 1360 l 25
 482 60 l 25
 586 60 l 25
 586 0 l 25
 96 0 l 25
EndSplineSet
Layer: 2
SplineSet
96 0 m 25,0,-1
 96 60 l 1,1,-1
 200 60 l 1,2,-1
 200 1360 l 1,3,-1
 96 1360 l 1,4,-1
 96 1420 l 1,5,-1
 586 1420 l 1,6,-1
 586 1360 l 1,7,-1
 482 1360 l 1,8,-1
 482 60 l 1,9,-1
 586 60 l 1,10,-1
 586 0 l 1,11,-1
 96 0 l 25,0,-1
EndSplineSet
EndChar

StartChar: J
Encoding: 74 74 42
Width: 1016
VWidth: 0
Flags: W
HStem: -34 60<304.479 483.576> 1360 60<446 550 832 936>
VStem: 24 236<121.426 325.621> 550 282<204.305 1360>
AnchorPoint: "Bottom" 404 0 basechar 0
AnchorPoint: "TopCap" 690 1560 basechar 0
LayerCount: 3
Fore
SplineSet
24 272 m 0
 24 335 266 422 320 422 c 0
 337 422 342 411 342 402 c 0
 342 390 331 371 321 356 c 0
 284 300 260 231 260 162 c 0
 260 103 288 26 396 26 c 0
 520 26 550 136 550 270 c 10
 550 1360 l 25
 446 1360 l 25
 446 1420 l 25
 936 1420 l 25
 936 1360 l 25
 832 1360 l 25
 832 488 l 18
 832 146 699 -34 401 -34 c 0
 216 -34 24 68 24 272 c 0
EndSplineSet
Layer: 2
SplineSet
24 272 m 0,0,1
 24 314 24 314 146 368 c 128,-1,2
 268 422 268 422 320 422 c 0,3,4
 342 422 342 422 342 402 c 0,5,6
 342 388 342 388 321 356 c 0,7,8
 260 264 260 264 260 162 c 0,9,10
 260 108 260 108 291.5 67 c 128,-1,11
 323 26 323 26 396 26 c 0,12,13
 441 26 441 26 472 44.5 c 128,-1,14
 503 63 503 63 519.5 98 c 128,-1,15
 536 133 536 133 543 174.5 c 128,-1,16
 550 216 550 216 550 270 c 2,17,-1
 550 1360 l 1,18,-1
 446 1360 l 1,19,-1
 446 1420 l 1,20,-1
 936 1420 l 1,21,-1
 936 1360 l 1,22,-1
 832 1360 l 1,23,-1
 832 488 l 2,24,25
 832 228 832 228 727 97 c 128,-1,26
 622 -34 622 -34 401 -34 c 0,27,28
 305 -34 305 -34 221 -1 c 128,-1,29
 137 32 137 32 80.5 103.5 c 128,-1,30
 24 175 24 175 24 272 c 0,0,1
EndSplineSet
EndChar

StartChar: K
Encoding: 75 75 43
Width: 1536
VWidth: 0
Flags: W
HStem: -40 93<1373.21 1518.53> 0 60<96 200 482 586> 1360 60<96 200 482 586 850 973.792 1185.65 1305>
VStem: 200 282<60 609 703 1360>
DStem2: 482 703 482 609 0.675125 0.737703<0 76.4901 335.538 777.984> 755 908 580 717 0.572347 -0.820012<56.4615 905.17>
AnchorPoint: "Bottom" 830 0 basechar 0
LayerCount: 3
Fore
SplineSet
96 0 m 1x70
 96 60 l 1
 200 60 l 1x70
 200 1360 l 1
 96 1360 l 1
 96 1420 l 1
 586 1420 l 1
 586 1360 l 1
 482 1360 l 1
 482 703 l 1
 937 1203 l 2
 962 1230 988 1265 988 1296 c 0
 988 1343 931 1359 850 1359 c 1
 850 1419 l 1
 1305 1419 l 1
 1305 1359 l 1
 1208 1359 1115 1300 1043 1222 c 2
 755 908 l 1
 1134 365 l 2
 1269 172 1360 77 1467 53 c 0
 1496 47 1524 40 1524 25 c 0
 1524 -14 1469 -40 1409 -40 c 0xb0
 1149 -40 1009 83 856 318 c 2
 580 717 l 1
 482 609 l 1
 482 60 l 1
 586 60 l 1
 586 0 l 1
 96 0 l 1x70
EndSplineSet
Layer: 2
SplineSet
96 0 m 1,0,-1
 96 60 l 1,1,-1
 200 60 l 1,2,-1
 200 1360 l 1,3,-1
 96 1360 l 1,4,-1
 96 1420 l 1,5,-1
 586 1420 l 1,6,-1
 586 1360 l 1,7,-1
 482 1360 l 1,8,-1
 482 703 l 1,9,-1
 937 1203 l 2,10,11
 988 1258 988 1258 988 1296 c 0,12,13
 988 1359 988 1359 850 1359 c 1,14,-1
 850 1419 l 1,15,-1
 1305 1419 l 1,16,-1
 1305 1359 l 1,17,18
 1169 1359 1169 1359 1043 1222 c 2,19,-1
 755 908 l 1,20,-1
 1134 365 l 2,21,22
 1239 214 1239 214 1314 142 c 128,-1,23
 1389 70 1389 70 1467 53 c 0,24,25
 1524 41 1524 41 1524 25 c 0,26,27
 1524 -3 1524 -3 1490 -21.5 c 128,-1,28
 1456 -40 1456 -40 1409 -40 c 0,29,30
 1313 -40 1313 -40 1235.5 -18 c 128,-1,31
 1158 4 1158 4 1092 51.5 c 128,-1,32
 1026 99 1026 99 971.5 162 c 128,-1,33
 917 225 917 225 856 318 c 1,34,-1
 580 717 l 1,35,-1
 482 609 l 1,36,-1
 482 60 l 1,37,-1
 586 60 l 1,38,-1
 586 0 l 1,39,-1
 96 0 l 1,0,-1
EndSplineSet
EndChar

StartChar: L
Encoding: 76 76 44
Width: 1256
VWidth: 0
Flags: W
HStem: 0 60<96 200 482 851.78> 1360 60<96 200 482 586>
VStem: 200 282<60 1360>
AnchorPoint: "TopCap" 404 1560 basechar 0
AnchorPoint: "Bottom" 672 0 basechar 0
LayerCount: 3
Fore
SplineSet
96 0 m 1
 96 60 l 1
 200 60 l 1
 200 1360 l 9
 96 1360 l 25
 96 1420 l 25
 586 1420 l 25
 586 1360 l 25
 482 1360 l 25
 482 60 l 1
 666 60 l 18
 800 60 937 100 1032 211 c 0
 1082 269 1119 324 1149 391 c 0
 1159 413 1170 427 1196 427 c 0
 1216 427 1232 411 1232 392 c 0
 1232 378 1229 348 1220 307 c 10
 1156 0 l 9
 96 0 l 1
EndSplineSet
Layer: 2
SplineSet
96 0 m 1,0,-1
 96 60 l 1,1,-1
 200 60 l 1,2,-1
 200 1360 l 1,3,-1
 96 1360 l 1,4,-1
 96 1420 l 1,5,-1
 586 1420 l 1,6,-1
 586 1360 l 1,7,-1
 482 1360 l 1,8,-1
 482 60 l 1,9,-1
 666 60 l 2,10,11
 903 60 903 60 1032 211 c 0,12,13
 1108 299 1108 299 1149 391 c 0,14,15
 1165 427 1165 427 1196 427 c 0,16,17
 1211 427 1211 427 1221.5 416.5 c 128,-1,18
 1232 406 1232 406 1232 392 c 0,19,20
 1232 362 1232 362 1220 307 c 2,21,-1
 1156 0 l 1,22,-1
 96 0 l 1,0,-1
EndSplineSet
EndChar

StartChar: M
Encoding: 77 77 45
Width: 1916
VWidth: 0
Flags: W
HStem: -24 21G<891.5 904.5> 0 60<88 198.311 382.532 506 1350 1462 1748 1852> 1360 60<116.007 236.867 1630 1734>
DStem2: 264 194 335 198 0.0773927 0.997001<-17.2726 850> 539 1372 301 1239 0.413527 -0.910492<-71.6483 139.238 252.033 1122.9> 1002 349 928 -5 0.372312 0.928108<0 838.353> 1630 1360 1372 1107 0.0903976 -0.995906<228.642 1279.49>
AnchorPoint: "Bottom" 906 0 basechar 0
LayerCount: 3
Fore
SplineSet
88 0 m 1
 88 60 l 1
 163 60 257 100 264 194 c 2
 332 1070 l 2
 333 1086 334 1116 334 1124 c 0
 334 1166 321 1199 301 1239 c 0
 280 1281 264 1312 229 1336 c 0
 204 1353 179 1360 144 1360 c 0
 125 1360 116 1375 116 1390 c 0
 116 1405 125 1420 144 1420 c 2
 447 1420 l 2
 506 1420 519 1415 539 1372 c 2
 1002 349 l 1
 1412 1372 l 2
 1421 1395 1432 1420 1471 1420 c 2
 1734 1420 l 1
 1734 1360 l 1
 1630 1360 l 1
 1748 60 l 1
 1852 60 l 1
 1852 0 l 1
 1350 0 l 1
 1350 60 l 1
 1462 60 l 1
 1372 1107 l 1
 1368 1107 l 1
 1361 1077 1355 1060 1346 1037 c 2
 928 -5 l 2
 923 -18 911 -24 898 -24 c 0
 885 -24 872 -18 866 -5 c 2
 427 969 l 2
 421 983 410 1012 406 1036 c 1
 400 1036 l 1
 335 198 l 2
 334 191 334 176 334 171 c 0
 334 91 422 60 506 60 c 1
 506 0 l 1
 88 0 l 1
EndSplineSet
Layer: 2
SplineSet
88 0 m 1,0,-1
 88 60 l 1,1,2
 152 60 152 60 205.5 94.5 c 128,-1,3
 259 129 259 129 264 194 c 2,4,-1
 332 1070 l 2,5,6
 334 1102 334 1102 334 1124 c 0,7,8
 334 1173 334 1173 301 1239 c 0,9,10
 288 1265 288 1265 280.5 1278.5 c 128,-1,11
 273 1292 273 1292 259.5 1308.5 c 128,-1,12
 246 1325 246 1325 229 1336 c 0,13,14
 194 1360 194 1360 144 1360 c 0,15,16
 131 1360 131 1360 123.5 1369 c 128,-1,17
 116 1378 116 1378 116 1390 c 128,-1,18
 116 1402 116 1402 123.5 1411 c 128,-1,19
 131 1420 131 1420 144 1420 c 2,20,-1
 447 1420 l 2,21,22
 492 1420 492 1420 508 1412 c 128,-1,23
 524 1404 524 1404 539 1372 c 2,24,-1
 1002 349 l 1,25,-1
 1412 1372 l 2,26,27
 1418 1387 1418 1387 1423 1395.5 c 128,-1,28
 1428 1404 1428 1404 1440.5 1412 c 128,-1,29
 1453 1420 1453 1420 1471 1420 c 2,30,-1
 1734 1420 l 1,31,-1
 1734 1360 l 1,32,-1
 1630 1360 l 1,33,-1
 1748 60 l 1,34,-1
 1852 60 l 1,35,-1
 1852 0 l 1,36,-1
 1350 0 l 1,37,-1
 1350 60 l 1,38,-1
 1462 60 l 1,39,-1
 1372 1107 l 1,40,-1
 1368 1107 l 1,41,42
 1360 1073 1360 1073 1346 1037 c 2,43,-1
 928 -5 l 2,44,45
 921 -24 921 -24 898 -24 c 128,-1,46
 875 -24 875 -24 866 -5 c 2,47,-1
 427 969 l 1,48,49
 411 1007 411 1007 406 1036 c 1,50,-1
 400 1036 l 1,51,-1
 335 198 l 2,52,53
 334 191 334 191 334 171 c 0,54,55
 334 115 334 115 384.5 87.5 c 128,-1,56
 435 60 435 60 506 60 c 1,57,-1
 506 0 l 1,58,-1
 88 0 l 1,0,-1
EndSplineSet
EndChar

StartChar: N
Encoding: 78 78 46
Width: 1480
VWidth: 0
Flags: W
HStem: -24 21G<1171 1250> 0 60<100 212.852 389.201 515> 1360 60<1011 1136.8 1313.15 1426>
VStem: 276 68<112.929 1077> 1182 68<422 1307.07>
DStem2: 514 1339 355 1077 0.581988 -0.813197<-126.099 42.6266 120.522 1128.07>
AnchorPoint: "TopCap" 836 1560 basechar 0
AnchorPoint: "Bottom" 798 0 basechar 0
LayerCount: 3
Fore
SplineSet
80 1392 m 0
 80 1406 90 1420 108 1420 c 2
 366 1420 l 2
 450 1420 484 1381 514 1339 c 2
 1171 422 l 1
 1182 422 l 1
 1182 1228 l 2
 1182 1331 1111 1360 1011 1360 c 1
 1011 1420 l 1
 1426 1420 l 1
 1426 1360 l 1
 1351 1360 1250 1320 1250 1226 c 2
 1250 -24 l 17
 1192 -24 l 18
 1150 -24 1116 13 1101 34 c 2
 355 1077 l 1
 344 1077 l 1
 344 192 l 2
 344 89 415 60 515 60 c 1
 515 0 l 1
 100 0 l 1
 100 60 l 1
 175 60 276 100 276 194 c 2
 276 1146 l 2
 276 1158 275 1178 267 1195 c 0
 258 1215 242 1237 220 1265 c 0
 179 1318 145 1340 106 1357 c 0
 92 1363 80 1373 80 1392 c 0
EndSplineSet
Layer: 2
SplineSet
80 1392 m 0,0,1
 80 1403 80 1403 87.5 1411.5 c 128,-1,2
 95 1420 95 1420 108 1420 c 2,3,-1
 366 1420 l 2,4,5
 423 1420 423 1420 454.5 1399 c 128,-1,6
 486 1378 486 1378 514 1339 c 2,7,-1
 1171 422 l 1,8,-1
 1182 422 l 1,9,-1
 1182 1228 l 2,10,11
 1182 1301 1182 1301 1137.5 1330.5 c 128,-1,12
 1093 1360 1093 1360 1011 1360 c 1,13,-1
 1011 1420 l 1,14,-1
 1426 1420 l 1,15,-1
 1426 1360 l 1,16,17
 1385 1360 1385 1360 1346.5 1347 c 128,-1,18
 1308 1334 1308 1334 1279 1302 c 128,-1,19
 1250 1270 1250 1270 1250 1226 c 2,20,-1
 1250 -24 l 1,21,-1
 1192 -24 l 2,22,23
 1142 -24 1142 -24 1101 34 c 2,24,-1
 355 1077 l 1,25,-1
 344 1077 l 1,26,-1
 344 192 l 2,27,28
 344 119 344 119 388.5 89.5 c 128,-1,29
 433 60 433 60 515 60 c 1,30,-1
 515 0 l 1,31,-1
 100 0 l 1,32,-1
 100 60 l 1,33,34
 141 60 141 60 179.5 73 c 128,-1,35
 218 86 218 86 247 118 c 128,-1,36
 276 150 276 150 276 194 c 2,37,-1
 276 1146 l 2,38,39
 276 1176 276 1176 267 1195 c 0,40,41
 256 1219 256 1219 220 1265 c 0,42,43
 171 1329 171 1329 106 1357 c 0,44,45
 80 1368 80 1368 80 1392 c 0,0,1
EndSplineSet
EndChar

StartChar: O
Encoding: 79 79 47
Width: 1660
VWidth: 0
Flags: W
HStem: -34 60<681.247 978.753> 1396 60<681.247 978.753>
VStem: 112 320<448.775 973.225> 1228 320<448.775 973.225>
AnchorPoint: "TopCap" 830 1560 basechar 0
AnchorPoint: "Bottom" 830 0 basechar 0
LayerCount: 3
Fore
SplineSet
112 711 m 0
 112 1147 434 1456 830 1456 c 0
 1226 1456 1548 1147 1548 711 c 0
 1548 275 1226 -34 830 -34 c 0
 434 -34 112 275 112 711 c 0
432 711 m 0
 432 315 517 26 830 26 c 0
 1143 26 1228 315 1228 711 c 0
 1228 1107 1143 1396 830 1396 c 0
 517 1396 432 1107 432 711 c 0
EndSplineSet
Layer: 2
SplineSet
112 711 m 128,-1,1
 112 871 112 871 168.5 1010.5 c 128,-1,2
 225 1150 225 1150 322 1247.5 c 128,-1,3
 419 1345 419 1345 551 1400.5 c 128,-1,4
 683 1456 683 1456 830 1456 c 128,-1,5
 977 1456 977 1456 1109 1400.5 c 128,-1,6
 1241 1345 1241 1345 1338 1247.5 c 128,-1,7
 1435 1150 1435 1150 1491.5 1010.5 c 128,-1,8
 1548 871 1548 871 1548 711 c 128,-1,9
 1548 551 1548 551 1491.5 411.5 c 128,-1,10
 1435 272 1435 272 1338 174.5 c 128,-1,11
 1241 77 1241 77 1109 21.5 c 128,-1,12
 977 -34 977 -34 830 -34 c 128,-1,13
 683 -34 683 -34 551 21.5 c 128,-1,14
 419 77 419 77 322 174.5 c 128,-1,15
 225 272 225 272 168.5 411.5 c 128,-1,0
 112 551 112 551 112 711 c 128,-1,1
432 711 m 128,-1,17
 432 586 432 586 443 487 c 128,-1,18
 454 388 454 388 482 299.5 c 128,-1,19
 510 211 510 211 554.5 152.5 c 128,-1,20
 599 94 599 94 668.5 60 c 128,-1,21
 738 26 738 26 830 26 c 128,-1,22
 922 26 922 26 991.5 60 c 128,-1,23
 1061 94 1061 94 1105.5 152.5 c 128,-1,24
 1150 211 1150 211 1178 299.5 c 128,-1,25
 1206 388 1206 388 1217 487 c 128,-1,26
 1228 586 1228 586 1228 711 c 128,-1,27
 1228 836 1228 836 1217 935 c 128,-1,28
 1206 1034 1206 1034 1178 1122.5 c 128,-1,29
 1150 1211 1150 1211 1105.5 1269.5 c 128,-1,30
 1061 1328 1061 1328 991.5 1362 c 128,-1,31
 922 1396 922 1396 830 1396 c 128,-1,32
 738 1396 738 1396 668.5 1362 c 128,-1,33
 599 1328 599 1328 554.5 1269.5 c 128,-1,34
 510 1211 510 1211 482 1122.5 c 128,-1,35
 454 1034 454 1034 443 935 c 128,-1,16
 432 836 432 836 432 711 c 128,-1,17
EndSplineSet
EndChar

StartChar: P
Encoding: 80 80 48
Width: 1318
VWidth: 0
Flags: W
HStem: 0 60<96 200 482 586> 600 68<587.946 850.928> 1360 60<96 200 482 807.621>
VStem: 200 282<60 1360> 966 308<838.463 1192.31>
AnchorPoint: "Bottom" 344 0 basechar 0
LayerCount: 3
Fore
SplineSet
96 0 m 1
 96 60 l 1
 200 60 l 1
 200 1360 l 1
 96 1360 l 1
 96 1420 l 1
 629 1420 l 2
 1091 1420 1274 1246 1274 1026 c 0
 1274 755 1052 600 750 600 c 0
 658 600 520 644 520 689 c 0
 520 705 528 719 543 719 c 0
 552 719 566 714 585 703 c 0
 616 685 682 668 717 668 c 0
 888 668 966 763 966 1024 c 0
 966 1219 903 1360 659 1360 c 2
 482 1360 l 1
 482 60 l 1
 586 60 l 1
 586 0 l 1
 96 0 l 1
EndSplineSet
Layer: 2
SplineSet
96 0 m 1,0,-1
 96 60 l 1,1,-1
 200 60 l 1,2,-1
 200 1360 l 1,3,-1
 96 1360 l 1,4,-1
 96 1420 l 1,5,-1
 629 1420 l 2,6,7
 797 1420 797 1420 923.5 1390 c 128,-1,8
 1050 1360 1050 1360 1125.5 1305.5 c 128,-1,9
 1201 1251 1201 1251 1237.5 1181 c 128,-1,10
 1274 1111 1274 1111 1274 1026 c 0,11,12
 1274 827 1274 827 1128 713.5 c 128,-1,13
 982 600 982 600 750 600 c 0,14,15
 677 600 677 600 598.5 628.5 c 128,-1,16
 520 657 520 657 520 689 c 0,17,18
 520 719 520 719 543 719 c 0,19,20
 557 719 557 719 585 703 c 0,21,22
 608 690 608 690 649 679 c 128,-1,23
 690 668 690 668 717 668 c 0,24,25
 848 668 848 668 907 749.5 c 128,-1,26
 966 831 966 831 966 1024 c 0,27,28
 966 1102 966 1102 952 1159.5 c 128,-1,29
 938 1217 938 1217 904.5 1264 c 128,-1,30
 871 1311 871 1311 809.5 1335.5 c 128,-1,31
 748 1360 748 1360 659 1360 c 2,32,-1
 482 1360 l 1,33,-1
 482 60 l 1,34,-1
 586 60 l 1,35,-1
 586 0 l 1,36,-1
 96 0 l 1,0,-1
EndSplineSet
EndChar

StartChar: Q
Encoding: 81 81 49
Width: 1660
VWidth: 0
Flags: W
HStem: -424 93<1251.76 1422.62> 1396 60<681.247 978.753>
VStem: 112 320<444.379 973.225> 1228 320<447.422 973.225>
AnchorPoint: "Bottom" 440 0 basechar 0
LayerCount: 3
Fore
SplineSet
112 711 m 0
 112 1147 434 1456 830 1456 c 0
 1226 1456 1548 1147 1548 711 c 0
 1548 331 1303 64 1035 -4 c 1
 1129 -257 1257 -309 1373 -331 c 0
 1402 -337 1430 -344 1430 -359 c 0
 1430 -398 1356 -424 1296 -424 c 0
 1057 -424 866 -310 744 -29 c 1
 388 12 112 307 112 711 c 0
432 711 m 0
 432 366 496 103 719 40 c 1
 772 72 897 128 956 128 c 0
 967 128 991 113 1006 67 c 1
 1165 150 1228 385 1228 711 c 0
 1228 1107 1143 1396 830 1396 c 0
 517 1396 432 1107 432 711 c 0
EndSplineSet
Layer: 2
SplineSet
112 711 m 0,0,1
 112 871 112 871 168.5 1010.5 c 128,-1,2
 225 1150 225 1150 322 1247.5 c 128,-1,3
 419 1345 419 1345 551 1400.5 c 128,-1,4
 683 1456 683 1456 830 1456 c 128,-1,5
 977 1456 977 1456 1109 1400.5 c 128,-1,6
 1241 1345 1241 1345 1338 1247.5 c 128,-1,7
 1435 1150 1435 1150 1491.5 1010.5 c 128,-1,8
 1548 871 1548 871 1548 711 c 0,9,10
 1548 573 1548 573 1505.5 449.5 c 128,-1,11
 1463 326 1463 326 1391.5 236 c 128,-1,12
 1320 146 1320 146 1228.5 84 c 128,-1,13
 1137 22 1137 22 1035 -4 c 1,14,15
 1062 -77 1062 -77 1095.5 -133 c 128,-1,16
 1129 -189 1129 -189 1160.5 -222.5 c 128,-1,17
 1192 -256 1192 -256 1231 -279 c 128,-1,18
 1270 -302 1270 -302 1301.5 -312.5 c 128,-1,19
 1333 -323 1333 -323 1373 -331 c 0,20,21
 1430 -343 1430 -343 1430 -359 c 0,22,23
 1430 -387 1430 -387 1387.5 -405.5 c 128,-1,24
 1345 -424 1345 -424 1296 -424 c 0,25,26
 915 -424 915 -424 744 -29 c 1,27,28
 611 -14 611 -14 495 47.5 c 128,-1,29
 379 109 379 109 294.5 204.5 c 128,-1,30
 210 300 210 300 161 431.5 c 128,-1,31
 112 563 112 563 112 711 c 0,0,1
432 711 m 0,32,33
 432 575 432 575 446 468.5 c 128,-1,34
 460 362 460 362 491.5 271 c 128,-1,35
 523 180 523 180 580.5 121.5 c 128,-1,36
 638 63 638 63 719 40 c 1,37,38
 766 69 766 69 841 98.5 c 128,-1,39
 916 128 916 128 956 128 c 0,40,41
 967 128 967 128 981.5 113 c 128,-1,42
 996 98 996 98 1006 67 c 1,43,44
 1228 183 1228 183 1228 711 c 0,45,46
 1228 836 1228 836 1217 935 c 128,-1,47
 1206 1034 1206 1034 1178 1122.5 c 128,-1,48
 1150 1211 1150 1211 1105.5 1269.5 c 128,-1,49
 1061 1328 1061 1328 991.5 1362 c 128,-1,50
 922 1396 922 1396 830 1396 c 128,-1,51
 738 1396 738 1396 668.5 1362 c 128,-1,52
 599 1328 599 1328 554.5 1269.5 c 128,-1,53
 510 1211 510 1211 482 1122.5 c 128,-1,54
 454 1034 454 1034 443 935 c 128,-1,55
 432 836 432 836 432 711 c 0,32,33
EndSplineSet
EndChar

StartChar: R
Encoding: 82 82 50
Width: 1474
VWidth: 0
Flags: W
HStem: -40 93<1297.43 1455.24> 0 60<96 200 482 586> 692 60<482 592> 1360 60<96 200 482 768.862>
VStem: 200 282<60 692 752 1360> 920 284<861.916 1212.58>
DStem2: 884 702 592 692 0.513563 -0.858052<0 637.109>
AnchorPoint: "TopCap" 626 1560 basechar 0
AnchorPoint: "Bottom" 816 0 basechar 0
LayerCount: 3
Fore
SplineSet
96 0 m 1x7c
 96 60 l 1
 200 60 l 1x7c
 200 1360 l 1
 96 1360 l 1
 96 1420 l 1
 667 1420 l 2
 1010 1420 1204 1276 1204 1036 c 0
 1204 824 1072 744 884 711 c 1
 884 702 l 1
 1116 315 l 2
 1235 117 1298 77 1405 53 c 0
 1434 47 1462 40 1462 25 c 0
 1462 -14 1393 -40 1333 -40 c 0xbc
 1073 -40 966 67 835 286 c 2
 592 692 l 1
 482 692 l 1
 482 60 l 1
 586 60 l 1
 586 0 l 1
 96 0 l 1x7c
482 752 m 1
 619 752 l 2
 811 752 920 832 920 1040 c 0
 920 1242 845 1360 601 1360 c 2
 482 1360 l 1
 482 752 l 1
EndSplineSet
Layer: 2
SplineSet
96 0 m 1,0,-1
 96 60 l 1,1,-1
 200 60 l 1,2,-1
 200 1360 l 1,3,-1
 96 1360 l 1,4,-1
 96 1420 l 1,5,-1
 667 1420 l 2,6,7
 923 1420 923 1420 1063.5 1318.5 c 128,-1,8
 1204 1217 1204 1217 1204 1036 c 0,9,10
 1204 887 1204 887 1121 812.5 c 128,-1,11
 1038 738 1038 738 884 711 c 1,12,-1
 884 702 l 1,13,-1
 1116 315 l 2,14,15
 1201 174 1201 174 1260 123 c 128,-1,16
 1319 72 1319 72 1405 53 c 0,17,18
 1462 41 1462 41 1462 25 c 0,19,20
 1462 -3 1462 -3 1421.5 -21.5 c 128,-1,21
 1381 -40 1381 -40 1333 -40 c 0,22,23
 1237 -40 1237 -40 1165 -21 c 128,-1,24
 1093 -2 1093 -2 1035 42 c 128,-1,25
 977 86 977 86 932.5 141.5 c 128,-1,26
 888 197 888 197 835 286 c 2,27,-1
 592 692 l 1,28,-1
 482 692 l 1,29,-1
 482 60 l 1,30,-1
 586 60 l 1,31,-1
 586 0 l 1,32,-1
 96 0 l 1,0,-1
482 752 m 1,33,-1
 619 752 l 2,34,35
 768 752 768 752 844 820 c 128,-1,36
 920 888 920 888 920 1040 c 0,37,38
 920 1200 920 1200 848 1280 c 128,-1,39
 776 1360 776 1360 601 1360 c 2,40,-1
 482 1360 l 1,41,-1
 482 752 l 1,33,-1
EndSplineSet
EndChar

StartChar: S
Encoding: 83 83 51
Width: 1240
VWidth: 0
Flags: W
HStem: -33 60<507.73 771.649> 1396 60<521.352 753.621>
VStem: 182 248<1031.35 1271.6> 896 256<171.415 416.028>
AnchorPoint: "TopCap" 648 1560 basechar 0
AnchorPoint: "Bottom" 626 0 basechar 0
LayerCount: 3
Fore
SplineSet
134 140 m 0
 134 149 135 177 136 193 c 2
 149 457 l 2
 150 479 164 490 178 490 c 0
 215 490 234 453 247 418 c 0
 322 210 436 27 631 27 c 0
 815 27 896 132 896 264 c 0
 896 438 772 526 561 636 c 0
 352 745 182 849 182 1101 c 0
 182 1298 329 1456 648 1456 c 0
 750 1456 872 1430 954 1394 c 0
 1047 1353 1065 1333 1065 1286 c 0
 1065 1269 1063 1239 1050 1172 c 0
 1040 1122 1024 1047 1003 1047 c 0
 979 1047 965 1068 946 1112 c 0
 888 1244 796 1396 648 1396 c 0
 492 1396 430 1306 430 1182 c 0
 430 1012 550 931 714 844 c 0
 982 702 1152 592 1152 350 c 0
 1152 90 943 -33 631 -33 c 0
 510 -33 350 0 237 47 c 0
 145 85 134 93 134 140 c 0
EndSplineSet
Layer: 2
SplineSet
134 140 m 0,0,1
 134 161 134 161 136 193 c 2,2,-1
 149 457 l 2,3,4
 150 473 150 473 158.5 481.5 c 128,-1,5
 167 490 167 490 178 490 c 0,6,7
 220 490 220 490 247 418 c 0,8,9
 388 27 388 27 631 27 c 0,10,11
 763 27 763 27 829.5 93 c 128,-1,12
 896 159 896 159 896 264 c 0,13,14
 896 328 896 328 875 379 c 128,-1,15
 854 430 854 430 806.5 475 c 128,-1,16
 759 520 759 520 704 555 c 128,-1,17
 649 590 649 590 561 636 c 0,18,19
 487 675 487 675 440 702.5 c 128,-1,20
 393 730 393 730 338.5 773.5 c 128,-1,21
 284 817 284 817 253.5 860.5 c 128,-1,22
 223 904 223 904 202.5 966 c 128,-1,23
 182 1028 182 1028 182 1101 c 0,24,25
 182 1257 182 1257 300.5 1356.5 c 128,-1,26
 419 1456 419 1456 648 1456 c 0,27,28
 723 1456 723 1456 807.5 1438.5 c 128,-1,29
 892 1421 892 1421 954 1394 c 0,30,31
 1023 1364 1023 1364 1044 1343 c 128,-1,32
 1065 1322 1065 1322 1065 1286 c 0,33,34
 1065 1249 1065 1249 1050 1172 c 0,35,36
 1025 1047 1025 1047 1003 1047 c 0,37,38
 986 1047 986 1047 973.5 1062 c 128,-1,39
 961 1077 961 1077 946 1112 c 0,40,41
 821 1396 821 1396 648 1396 c 0,42,43
 536 1396 536 1396 483 1338.5 c 128,-1,44
 430 1281 430 1281 430 1182 c 0,45,46
 430 1120 430 1120 450 1070.5 c 128,-1,47
 470 1021 470 1021 512 980.5 c 128,-1,48
 554 940 554 940 598.5 910.5 c 128,-1,49
 643 881 643 881 714 844 c 0,50,51
 806 795 806 795 864 760.5 c 128,-1,52
 922 726 922 726 982.5 679 c 128,-1,53
 1043 632 1043 632 1076.5 587 c 128,-1,54
 1110 542 1110 542 1131 481.5 c 128,-1,55
 1152 421 1152 421 1152 350 c 0,56,57
 1152 160 1152 160 1012.5 63.5 c 128,-1,58
 873 -33 873 -33 631 -33 c 0,59,60
 541 -33 541 -33 431.5 -10.5 c 128,-1,61
 322 12 322 12 237 47 c 0,62,63
 167 76 167 76 150.5 90.5 c 128,-1,64
 134 105 134 105 134 140 c 0,0,1
EndSplineSet
EndChar

StartChar: T
Encoding: 84 84 52
Width: 1560
VWidth: 0
Flags: W
HStem: 0 60<518 622 904 1008> 962 21G<50 73 1377 1401.5> 1360 60<382.676 622 904 1175.26>
VStem: 622 282<60 1360>
AnchorPoint: "TopCap" 770 1560 basechar 0
AnchorPoint: "Bottom" 762 0 basechar 0
LayerCount: 3
Fore
SplineSet
24 994 m 0
 24 1008 27 1033 30 1050 c 10
 87 1420 l 9
 1501 1420 l 2
 1517 1420 1524 1414 1524 1406 c 0
 1524 1398 1520 1380 1517 1371 c 0
 1483 1277 1445 1093 1432 991 c 0
 1430 975 1414 962 1389 962 c 0
 1365 962 1350 976 1348 993 c 0
 1340 1050 1324 1159 1274 1237 c 0
 1227 1310 1163 1360 1043 1360 c 10
 904 1360 l 1
 904 60 l 9
 1008 60 l 25
 1008 0 l 25
 518 0 l 25
 518 60 l 25
 622 60 l 25
 622 1360 l 1
 525 1360 l 2
 410 1360 320 1312 240 1226 c 0
 186 1168 144 1078 107 998 c 0
 97 976 86 962 60 962 c 0
 40 962 24 975 24 994 c 0
EndSplineSet
Layer: 2
SplineSet
24 994 m 0,0,1
 24 1016 24 1016 30 1050 c 2,2,-1
 87 1420 l 1,3,-1
 1501 1420 l 2,4,5
 1524 1420 1524 1420 1524 1406 c 128,-1,6
 1524 1392 1524 1392 1517 1371 c 0,7,8
 1493 1304 1493 1304 1467.5 1188.5 c 128,-1,9
 1442 1073 1442 1073 1432 991 c 0,10,11
 1428 962 1428 962 1389 962 c 0,12,13
 1352 962 1352 962 1348 993 c 0,14,15
 1325 1158 1325 1158 1274 1237 c 0,16,17
 1236 1297 1236 1297 1182 1328.5 c 128,-1,18
 1128 1360 1128 1360 1043 1360 c 2,19,-1
 904 1360 l 1,20,-1
 904 60 l 1,21,-1
 1008 60 l 1,22,-1
 1008 0 l 1,23,-1
 518 0 l 1,24,-1
 518 60 l 1,25,-1
 622 60 l 1,26,-1
 622 1360 l 1,27,-1
 525 1360 l 2,28,29
 365 1360 365 1360 240 1226 c 0,30,31
 185 1167 185 1167 107 998 c 0,32,33
 91 962 91 962 60 962 c 0,34,35
 45 962 45 962 34.5 971 c 128,-1,36
 24 980 24 980 24 994 c 0,0,1
EndSplineSet
EndChar

StartChar: U
Encoding: 85 85 53
Width: 1450
VWidth: 0
Flags: W
HStem: -34 60<629.263 919.889> 1360 60<88 192 474 578 981 1106.8 1283.15 1396>
VStem: 192 282<233.858 1360> 1152 68<250.189 1307.07>
AnchorPoint: "Bottom" 762 0 basechar 0
AnchorPoint: "TopCap" 772 1560 basechar 0
LayerCount: 3
Fore
SplineSet
88 1360 m 25
 88 1420 l 25
 578 1420 l 25
 578 1360 l 25
 474 1360 l 25
 474 360 l 18
 474 123 613 26 754 26 c 0
 1024 26 1152 203 1152 422 c 18
 1152 1228 l 2
 1152 1331 1081 1360 981 1360 c 1
 981 1420 l 1
 1396 1420 l 1
 1396 1360 l 1
 1321 1360 1220 1320 1220 1226 c 2
 1220 393 l 18
 1220 159 1048 -34 757 -34 c 0
 406 -34 192 99 192 498 c 10
 192 1360 l 25
 88 1360 l 25
EndSplineSet
Layer: 2
SplineSet
88 1360 m 25,0,-1
 88 1420 l 1,1,-1
 578 1420 l 1,2,-1
 578 1360 l 1,3,-1
 474 1360 l 1,4,-1
 474 360 l 2,5,6
 474 194 474 194 555.5 110 c 128,-1,7
 637 26 637 26 754 26 c 0,8,9
 853 26 853 26 930 57 c 128,-1,10
 1007 88 1007 88 1055 142.5 c 128,-1,11
 1103 197 1103 197 1127.5 268 c 128,-1,12
 1152 339 1152 339 1152 422 c 2,13,-1
 1152 1228 l 2,14,15
 1152 1301 1152 1301 1107.5 1330.5 c 128,-1,16
 1063 1360 1063 1360 981 1360 c 1,17,-1
 981 1420 l 1,18,-1
 1396 1420 l 1,19,-1
 1396 1360 l 1,20,21
 1355 1360 1355 1360 1316.5 1347 c 128,-1,22
 1278 1334 1278 1334 1249 1302 c 128,-1,23
 1220 1270 1220 1270 1220 1226 c 2,24,-1
 1220 393 l 2,25,26
 1220 305 1220 305 1188 227.5 c 128,-1,27
 1156 150 1156 150 1098 92 c 128,-1,28
 1040 34 1040 34 951.5 0 c 128,-1,29
 863 -34 863 -34 757 -34 c 0,30,31
 621 -34 621 -34 520 -6.5 c 128,-1,32
 419 21 419 21 343.5 82 c 128,-1,33
 268 143 268 143 230 247 c 128,-1,34
 192 351 192 351 192 498 c 2,35,-1
 192 1360 l 1,36,-1
 88 1360 l 25,0,-1
EndSplineSet
EndChar

StartChar: V
Encoding: 86 86 54
Width: 1400
VWidth: 0
Flags: W
HStem: -29 21G<691 725> 1360 60<24 120 419 530 1056 1145.64 1297.4 1388>
DStem2: 419 1360 120 1360 0.366174 -0.930546<0 1091.34> 820 345 774 30 0.353631 0.935385<0 1001.54>
AnchorPoint: "Bottom" 706 0 basechar 0
LayerCount: 3
Fore
SplineSet
24 1360 m 1
 24 1420 l 1
 530 1420 l 1
 530 1360 l 1
 419 1360 l 1
 820 345 l 1
 1147 1216 l 2
 1155 1236 1163 1267 1163 1287 c 0
 1163 1322 1137 1360 1056 1360 c 1
 1056 1420 l 1
 1388 1420 l 1
 1388 1360 l 1
 1291 1360 1250 1288 1222 1215 c 2
 774 30 l 2
 763 0 742 -29 708 -29 c 0
 674 -29 655 -1 641 36 c 2
 120 1360 l 1
 24 1360 l 1
EndSplineSet
Layer: 2
SplineSet
24 1360 m 1,0,-1
 24 1420 l 1,1,-1
 530 1420 l 1,2,-1
 530 1360 l 1,3,-1
 419 1360 l 1,4,-1
 820 345 l 1,5,-1
 1147 1216 l 2,6,7
 1163 1256 1163 1256 1163 1287 c 0,8,9
 1163 1317 1163 1317 1137.5 1338.5 c 128,-1,10
 1112 1360 1112 1360 1056 1360 c 1,11,-1
 1056 1420 l 1,12,-1
 1388 1420 l 1,13,-1
 1388 1360 l 1,14,15
 1322 1360 1322 1360 1285 1321 c 128,-1,16
 1248 1282 1248 1282 1222 1215 c 2,17,-1
 774 30 l 2,18,19
 752 -29 752 -29 708 -29 c 0,20,21
 666 -29 666 -29 641 36 c 2,22,-1
 120 1360 l 1,23,-1
 24 1360 l 1,0,-1
EndSplineSet
EndChar

StartChar: W
Encoding: 87 87 55
Width: 2118
VWidth: 0
Flags: W
HStem: -29 21G<617.5 652.5 1483.5 1518.5> 1360 60<24 121 415 518 890 987 1281 1384 1788 1880.15 2026.7 2106>
DStem2: 415 1360 121 1360 0.318589 -0.947893<0 1034.7> 744 379 704 30 0.307706 0.951482<0 819.073> 1281 1360 1026 1245 0.318589 -0.947893<0 27.7674 141.609 1034.7> 1610 379 1570 30 0.308062 0.951366<0 955.696>
AnchorPoint: "Bottom" 1092 0 basechar 0
AnchorPoint: "TopCap" 1154 1560 basechar 0
LayerCount: 3
Fore
SplineSet
24 1360 m 1
 24 1420 l 1
 518 1420 l 1
 518 1360 l 1
 415 1360 l 1
 744 379 l 1
 1026 1245 l 1
 987 1360 l 1
 890 1360 l 1
 890 1420 l 1
 1384 1420 l 1
 1384 1360 l 1
 1281 1360 l 1
 1610 379 l 1
 1877 1207 l 2
 1884 1230 1894 1263 1894 1293 c 0
 1894 1328 1867 1360 1788 1360 c 1
 1788 1420 l 1
 2106 1420 l 1
 2106 1360 l 1
 2028 1360 1978 1290 1944 1185 c 2
 1570 30 l 1
 1559 0 1536 -29 1501 -29 c 0
 1466 -29 1446 -1 1432 36 c 1
 1062 1137 l 1
 704 30 l 2
 694 0 670 -29 635 -29 c 0
 600 -29 580 -1 566 36 c 1
 121 1360 l 1
 24 1360 l 1
EndSplineSet
Layer: 2
SplineSet
24 1360 m 1,0,-1
 24 1420 l 1,1,-1
 518 1420 l 1,2,-1
 518 1360 l 1,3,-1
 415 1360 l 1,4,-1
 744 379 l 1,5,-1
 1026 1245 l 1,6,-1
 987 1360 l 1,7,-1
 890 1360 l 1,8,-1
 890 1420 l 1,9,-1
 1384 1420 l 1,10,-1
 1384 1360 l 1,11,-1
 1281 1360 l 1,12,-1
 1610 379 l 1,13,-1
 1877 1207 l 1,14,15
 1894 1263 1894 1263 1894 1293 c 0,16,17
 1894 1322 1894 1322 1868.5 1341 c 128,-1,18
 1843 1360 1843 1360 1788 1360 c 1,19,-1
 1788 1420 l 1,20,-1
 2106 1420 l 1,21,-1
 2106 1360 l 1,22,23
 2001 1360 2001 1360 1944 1185 c 2,24,-1
 1570 30 l 1,25,26
 1548 -29 1548 -29 1501 -29 c 0,27,28
 1457 -29 1457 -29 1432 36 c 1,29,-1
 1062 1137 l 1,30,-1
 704 30 l 2,31,32
 696 5 696 5 678 -12 c 128,-1,33
 660 -29 660 -29 635 -29 c 0,34,35
 591 -29 591 -29 566 36 c 1,36,-1
 121 1360 l 1,37,-1
 24 1360 l 1,0,-1
EndSplineSet
EndChar

StartChar: X
Encoding: 88 88 56
Width: 1408
VWidth: 0
Flags: W
HStem: 0 60<56 146.668 311.569 398 849 949 1240 1344> 1360 60<96 200 491 597 979 1069.22 1229 1321>
DStem2: 491 1360 200 1360 0.499222 -0.866474<0 556.424 631.216 662.445 736.37 1355.06> 257 205 331 190 0.606183 0.795325<-38.4375 543.14 845.62 1371.7>
AnchorPoint: "Bottom" 676 0 basechar 0
LayerCount: 3
Fore
SplineSet
56 0 m 1
 56 60 l 1
 147 60 208 139 257 205 c 2
 603 660 l 1
 200 1360 l 1
 96 1360 l 1
 96 1420 l 1
 597 1420 l 1
 597 1360 l 1
 491 1360 l 1
 769 878 l 1
 1038 1231 l 2
 1053 1251 1073 1283 1073 1309 c 0
 1073 1338 1060 1361 979 1361 c 1
 979 1421 l 1
 1321 1421 l 1
 1321 1361 l 1
 1232 1361 1162 1280 1113 1216 c 2
 806 813 l 1
 1240 60 l 1
 1344 60 l 1
 1344 0 l 1
 849 0 l 1
 849 60 l 1
 949 60 l 1
 640 596 l 1
 331 190 l 2
 315 168 305 142 305 119 c 0
 305 90 317 60 398 60 c 1
 398 0 l 1
 56 0 l 1
EndSplineSet
Layer: 2
SplineSet
56 0 m 1,0,-1
 56 60 l 1,1,2
 98 60 98 60 139 85 c 128,-1,3
 180 110 180 110 202 135.5 c 128,-1,4
 224 161 224 161 257 205 c 2,5,-1
 603 660 l 1,6,-1
 200 1360 l 1,7,-1
 96 1360 l 1,8,-1
 96 1420 l 1,9,-1
 597 1420 l 1,10,-1
 597 1360 l 1,11,-1
 491 1360 l 1,12,-1
 769 878 l 1,13,-1
 1038 1231 l 2,14,15
 1073 1278 1073 1278 1073 1309 c 0,16,17
 1073 1334 1073 1334 1054 1347.5 c 128,-1,18
 1035 1361 1035 1361 979 1361 c 1,19,-1
 979 1421 l 1,20,-1
 1321 1421 l 1,21,-1
 1321 1361 l 1,22,23
 1289 1361 1289 1361 1258.5 1348 c 128,-1,24
 1228 1335 1228 1335 1201 1311.5 c 128,-1,25
 1174 1288 1174 1288 1154.5 1266.5 c 128,-1,26
 1135 1245 1135 1245 1113 1216 c 2,27,-1
 806 813 l 1,28,-1
 1240 60 l 1,29,-1
 1344 60 l 1,30,-1
 1344 0 l 1,31,-1
 849 0 l 1,32,-1
 849 60 l 1,33,-1
 949 60 l 1,34,-1
 640 596 l 1,35,-1
 331 190 l 1,36,37
 305 154 305 154 305 119 c 0,38,39
 305 92 305 92 324 76 c 128,-1,40
 343 60 343 60 398 60 c 1,41,-1
 398 0 l 1,42,-1
 56 0 l 1,0,-1
EndSplineSet
EndChar

StartChar: Y
Encoding: 89 89 57
Width: 1420
VWidth: 0
Flags: W
HStem: 0 60<490 594 876 980> 1360 60<28 124 438 549 1059 1148.64 1313.46 1408>
VStem: 594 282<60 560>
DStem2: 438 1360 124 1360 0.506549 -0.862211<0 768.791> 834 686 876 611 0.492722 0.870187<0 685.737>
AnchorPoint: "Bottom" 734 0 basechar 0
AnchorPoint: "TopCap" 776 1560 basechar 0
LayerCount: 3
Fore
SplineSet
28 1360 m 1
 28 1420 l 1
 549 1420 l 1
 549 1360 l 1
 438 1360 l 1
 834 686 l 1
 1138 1216 l 2
 1149 1236 1166 1267 1166 1287 c 0
 1166 1322 1140 1360 1059 1360 c 1
 1059 1420 l 1
 1408 1420 l 1
 1408 1360 l 1
 1311 1360 1261 1287 1218 1215 c 2
 876 611 l 1
 876 60 l 1
 980 60 l 1
 980 0 l 1
 490 0 l 1
 490 60 l 1
 594 60 l 1
 594 560 l 1
 124 1360 l 1
 28 1360 l 1
EndSplineSet
Layer: 2
SplineSet
28 1360 m 1,0,-1
 28 1420 l 1,1,-1
 549 1420 l 1,2,-1
 549 1360 l 1,3,-1
 438 1360 l 1,4,-1
 834 686 l 1,5,-1
 1138 1216 l 1,6,7
 1166 1267 1166 1267 1166 1287 c 0,8,9
 1166 1317 1166 1317 1140.5 1338.5 c 128,-1,10
 1115 1360 1115 1360 1059 1360 c 1,11,-1
 1059 1420 l 1,12,-1
 1408 1420 l 1,13,-1
 1408 1360 l 1,14,15
 1343 1360 1343 1360 1301 1322 c 128,-1,16
 1259 1284 1259 1284 1218 1215 c 1,17,-1
 876 611 l 1,18,-1
 876 60 l 1,19,-1
 980 60 l 1,20,-1
 980 0 l 1,21,-1
 490 0 l 1,22,-1
 490 60 l 1,23,-1
 594 60 l 1,24,-1
 594 560 l 1,25,-1
 124 1360 l 1,26,-1
 28 1360 l 1,0,-1
EndSplineSet
EndChar

StartChar: Z
Encoding: 90 90 58
Width: 1354
VWidth: 0
Flags: W
HStem: 0 60<410 874.357> 1360 60<480.761 954>
DStem2: 96 60 410 60 0.551289 0.834314<173.105 1557.61>
AnchorPoint: "Bottom" 702 0 basechar 0
AnchorPoint: "TopCap" 744 1560 basechar 0
LayerCount: 3
Fore
SplineSet
96 0 m 1
 96 60 l 1
 954 1360 l 1
 630 1360 l 2
 515 1360 444 1327 370 1237 c 0
 320 1176 285 1112 253 1043 c 0
 243 1021 232 1007 206 1007 c 0
 186 1007 170 1020 170 1039 c 0
 170 1053 173 1078 176 1095 c 10
 219 1420 l 9
 1269 1420 l 25
 1269 1360 l 25
 410 60 l 1
 712 60 l 18
 827 60 950 105 1036 194 c 0
 1093 252 1155 365 1191 451 c 0
 1200 473 1212 487 1238 487 c 0
 1258 487 1274 474 1274 455 c 0
 1274 441 1271 416 1268 399 c 10
 1186 0 l 9
 96 0 l 1
EndSplineSet
Layer: 2
SplineSet
96 0 m 1,0,-1
 96 60 l 1,1,-1
 954 1360 l 1,2,-1
 630 1360 l 2,3,4
 544 1360 544 1360 484.5 1332 c 128,-1,5
 425 1304 425 1304 370 1237 c 0,6,7
 308 1161 308 1161 253 1043 c 0,8,9
 237 1007 237 1007 206 1007 c 0,10,11
 191 1007 191 1007 180.5 1016 c 128,-1,12
 170 1025 170 1025 170 1039 c 0,13,14
 170 1061 170 1061 176 1095 c 1,15,-1
 219 1420 l 1,16,-1
 1269 1420 l 1,17,-1
 1269 1360 l 1,18,-1
 410 60 l 1,19,-1
 712 60 l 2,20,21
 801 60 801 60 887 94.5 c 128,-1,22
 973 129 973 129 1036 194 c 0,23,24
 1076 235 1076 235 1118.5 307.5 c 128,-1,25
 1161 380 1161 380 1191 451 c 0,26,27
 1206 487 1206 487 1238 487 c 0,28,29
 1253 487 1253 487 1263.5 478 c 128,-1,30
 1274 469 1274 469 1274 455 c 0,31,32
 1274 433 1274 433 1268 399 c 2,33,-1
 1186 0 l 1,34,-1
 96 0 l 1,0,-1
EndSplineSet
EndChar

StartChar: bracketleft
Encoding: 91 91 59
Width: 810
VWidth: 2078
Flags: W
HStem: -346 60<390.316 742.851> 1360 60<390.316 742.851>
VStem: 190 200<-286 1360>
LayerCount: 3
Fore
SplineSet
190 -298 m 2
 190 1372 l 2
 190 1404 202 1420 234 1420 c 2
 734 1420 l 2
 737 1420 746 1416 746 1407 c 0
 746 1390 733 1360 718 1360 c 2
 426 1360 l 2
 402 1360 390 1348 390 1324 c 2
 390 -250 l 2
 390 -274 402 -286 426 -286 c 2
 734 -286 l 2
 737 -286 746 -290 746 -299 c 0
 746 -316 733 -346 718 -346 c 2
 234 -346 l 2
 202 -346 190 -330 190 -298 c 2
EndSplineSet
Layer: 2
SplineSet
190 -298 m 2,0,-1
 190 1372 l 2,1,2
 190 1420 190 1420 234 1420 c 2,3,-1
 734 1420 l 2,4,5
 737 1420 737 1420 741.5 1416.5 c 128,-1,6
 746 1413 746 1413 746 1407 c 0,7,8
 746 1393 746 1393 737.5 1376.5 c 128,-1,9
 729 1360 729 1360 718 1360 c 2,10,-1
 426 1360 l 2,11,12
 390 1360 390 1360 390 1324 c 2,13,-1
 390 -250 l 2,14,15
 390 -286 390 -286 426 -286 c 2,16,-1
 734 -286 l 2,17,18
 737 -286 737 -286 741.5 -289.5 c 128,-1,19
 746 -293 746 -293 746 -299 c 0,20,21
 746 -313 746 -313 737.5 -329.5 c 128,-1,22
 729 -346 729 -346 718 -346 c 2,23,-1
 234 -346 l 2,24,25
 190 -346 190 -346 190 -298 c 2,0,-1
EndSplineSet
EndChar

StartChar: backslash
Encoding: 92 92 60
Width: 992
VWidth: 2078
Flags: W
HStem: 1429 20G<145.5 153.5>
DStem2: 174 1427 72 1344 0.434586 -0.90063<3.01204 1743.99>
LayerCount: 3
Fore
SplineSet
64 1371 m 0
 64 1388 72 1409 125 1440 c 0
 134 1445 143 1449 148 1449 c 0
 159 1449 168 1440 174 1427 c 2
 920 -119 l 2
 924 -128 928 -137 928 -146 c 0
 928 -163 920 -184 867 -215 c 0
 858 -220 849 -224 844 -224 c 0
 833 -224 824 -215 818 -202 c 2
 72 1344 l 2
 68 1353 64 1362 64 1371 c 0
EndSplineSet
Layer: 2
SplineSet
64 1371 m 0,0,1
 64 1404 64 1404 125 1440 c 0,2,3
 141 1449 141 1449 148 1449 c 0,4,5
 164 1449 164 1449 174 1427 c 2,6,-1
 920 -119 l 2,7,8
 928 -137 928 -137 928 -146 c 0,9,10
 928 -179 928 -179 867 -215 c 0,11,12
 851 -224 851 -224 844 -224 c 0,13,14
 828 -224 828 -224 818 -202 c 2,15,-1
 72 1344 l 2,16,17
 64 1362 64 1362 64 1371 c 0,0,1
EndSplineSet
EndChar

StartChar: bracketright
Encoding: 93 93 61
Width: 810
VWidth: 2078
Flags: W
HStem: -346 60<67.1494 419.684> 1360 60<67.1494 419.684>
VStem: 420 200<-285.991 1359.99>
LayerCount: 3
Fore
SplineSet
64 -299 m 0
 64 -290 73 -286 76 -286 c 2
 384 -286 l 2
 408 -286 420 -274 420 -250 c 2
 420 1324 l 2
 420 1348 408 1360 384 1360 c 2
 92 1360 l 2
 77 1360 64 1390 64 1407 c 0
 64 1416 73 1420 76 1420 c 2
 576 1420 l 2
 608 1420 620 1404 620 1372 c 2
 620 -298 l 2
 620 -330 608 -346 576 -346 c 2
 92 -346 l 2
 77 -346 64 -316 64 -299 c 0
EndSplineSet
Layer: 2
SplineSet
64 -299 m 0,0,1
 64 -293 64 -293 68.5 -289.5 c 128,-1,2
 73 -286 73 -286 76 -286 c 2,3,-1
 384 -286 l 2,4,5
 420 -286 420 -286 420 -250 c 2,6,-1
 420 1324 l 2,7,8
 420 1360 420 1360 384 1360 c 2,9,-1
 92 1360 l 2,10,11
 81 1360 81 1360 72.5 1376.5 c 128,-1,12
 64 1393 64 1393 64 1407 c 0,13,14
 64 1413 64 1413 68.5 1416.5 c 128,-1,15
 73 1420 73 1420 76 1420 c 2,16,-1
 576 1420 l 2,17,18
 620 1420 620 1420 620 1372 c 2,19,-1
 620 -298 l 2,20,21
 620 -346 620 -346 576 -346 c 2,22,-1
 92 -346 l 2,23,24
 81 -346 81 -346 72.5 -329.5 c 128,-1,25
 64 -313 64 -313 64 -299 c 0,0,1
EndSplineSet
EndChar

StartChar: asciicircum
Encoding: 94 94 62
Width: 1312
VWidth: 2078
Flags: W
HStem: 1428 20G<639.5 672.5>
DStem2: 152 706 259 649 0.533667 0.845695<-22.5576 749.101> 730 1389 658 1275 0.53278 -0.846254<58.1127 829.649>
LayerCount: 3
Fore
SplineSet
144 684 m 0
 144 692 147 698 152 706 c 2
 583 1389 l 2
 602 1419 623 1448 656 1448 c 0
 689 1448 711 1419 730 1389 c 2
 1160 706 l 2
 1165 698 1168 692 1168 684 c 0
 1168 674 1158 667 1117 642 c 0
 1108 636 1090 628 1082 628 c 0
 1067 628 1060 638 1053 649 c 2
 658 1275 l 25
 654 1275 l 25
 259 649 l 2
 252 638 245 628 230 628 c 0
 222 628 204 636 195 642 c 0
 154 667 144 674 144 684 c 0
EndSplineSet
Layer: 2
SplineSet
144 684 m 0,0,1
 144 693 144 693 152 706 c 2,2,-1
 583 1389 l 2,3,4
 620 1448 620 1448 656 1448 c 0,5,6
 693 1448 693 1448 730 1389 c 2,7,-1
 1160 706 l 2,8,9
 1168 693 1168 693 1168 684 c 0,10,11
 1168 677 1168 677 1158.5 669.5 c 128,-1,12
 1149 662 1149 662 1117 642 c 0,13,14
 1096 628 1096 628 1082 628 c 0,15,16
 1066 628 1066 628 1053 649 c 2,17,-1
 658 1275 l 1,18,-1
 654 1275 l 1,19,-1
 259 649 l 2,20,21
 246 628 246 628 230 628 c 0,22,23
 216 628 216 628 195 642 c 0,24,25
 163 662 163 662 153.5 669.5 c 128,-1,26
 144 677 144 677 144 684 c 0,0,1
EndSplineSet
EndChar

StartChar: underscore
Encoding: 95 95 63
Width: 1024
VWidth: 2078
Flags: W
HStem: -378 122<-24.6792 1048.68>
LayerCount: 3
Fore
SplineSet
-42 -355 m 0
 -42 -343 -38 -331 -26 -304 c 0
 -12 -272 -4 -256 10 -256 c 2
 1033 -256 l 2
 1048 -256 1066 -267 1066 -279 c 0
 1066 -291 1062 -303 1050 -330 c 0
 1036 -362 1028 -378 1014 -378 c 2
 -9 -378 l 2
 -24 -378 -42 -367 -42 -355 c 0
EndSplineSet
Layer: 2
SplineSet
-42 -355 m 0,0,1
 -42 -340 -42 -340 -26 -304 c 0,2,3
 -14 -277 -14 -277 -7 -266.5 c 128,-1,4
 0 -256 0 -256 10 -256 c 2,5,-1
 1033 -256 l 2,6,7
 1045 -256 1045 -256 1055.5 -263 c 128,-1,8
 1066 -270 1066 -270 1066 -279 c 0,9,10
 1066 -294 1066 -294 1050 -330 c 0,11,12
 1038 -357 1038 -357 1031 -367.5 c 128,-1,13
 1024 -378 1024 -378 1014 -378 c 2,14,-1
 -9 -378 l 2,15,16
 -21 -378 -21 -378 -31.5 -371 c 128,-1,17
 -42 -364 -42 -364 -42 -355 c 0,0,1
EndSplineSet
EndChar

StartChar: grave
Encoding: 96 96 64
Width: 880
VWidth: 0
Flags: W
HStem: 1098 526
VStem: 176 354
LayerCount: 3
Fore
SplineSet
176 1557 m 0
 176 1585 208 1624 248 1624 c 0
 291 1624 409 1575 424 1523 c 10
 526 1159 l 18
 528 1152 530 1141 530 1136 c 0
 530 1113 514 1098 491 1098 c 0
 467 1098 454 1115 440 1135 c 26
 201 1484 l 26
 184 1509 176 1538 176 1557 c 0
EndSplineSet
Layer: 2
SplineSet
176 1557 m 0,0,1
 176 1580 176 1580 198 1602 c 128,-1,2
 220 1624 220 1624 248 1624 c 0,3,4
 286 1624 286 1624 350 1591.5 c 128,-1,5
 414 1559 414 1559 424 1523 c 2,6,-1
 526 1159 l 2,7,8
 530 1145 530 1145 530 1136 c 0,9,10
 530 1119 530 1119 519 1108.5 c 128,-1,11
 508 1098 508 1098 491 1098 c 0,12,13
 466 1098 466 1098 440 1135 c 2,14,-1
 201 1484 l 2,15,16
 176 1521 176 1521 176 1557 c 0,0,1
EndSplineSet
EndChar

StartChar: a
Encoding: 97 97 65
Width: 1116
VWidth: 0
Flags: W
HStem: -36 126<259.5 482.378 818 983.034> 836 134<359.899 572.203>
VStem: 88 224<120.509 301.229> 634 230<169.832 480 526.656 777.279>
AnchorPoint: "Bottom" 496 0 basechar 0
AnchorPoint: "Acute" 532 1140 basechar 0
AnchorPoint: "Grave" 532 1120 basechar 0
AnchorPoint: "Top" 532 1100 basechar 0
LayerCount: 3
Fore
SplineSet
88 161 m 0
 88 293 184 371 260 414 c 0
 376 480 491 505 634 535 c 1
 634 671 l 2
 634 788 516 836 436 836 c 0
 392 836 319 797 258 747 c 0
 232 726 180 685 151 685 c 0
 128 685 117 700 117 723 c 0
 117 790 377 970 512 970 c 0
 698 970 864 877 864 712 c 2
 864 219 l 2
 864 144 906 90 956 90 c 0
 981 90 1005 107 1027 131 c 0
 1044 150 1062 165 1076 165 c 0
 1088 165 1104 152 1104 129 c 0
 1104 97 964 -36 858 -36 c 0
 778 -36 695 26 666 112 c 1
 659 112 l 1
 568 39 399 -40 305 -40 c 0
 214 -40 88 12 88 161 c 0
312 221 m 0
 312 130 378 90 446 90 c 0
 515 90 585 113 649 168 c 1
 640 207 634 251 634 317 c 2
 634 480 l 1
 552 464 474 444 404 400 c 0
 335 357 312 281 312 221 c 0
EndSplineSet
Layer: 2
SplineSet
88 161 m 0,0,1
 88 317 88 317 260 414 c 0,2,3
 315 445 315 445 381 468.5 c 128,-1,4
 447 492 447 492 495.5 504 c 128,-1,5
 544 516 544 516 634 535 c 1,6,-1
 634 671 l 2,7,8
 634 726 634 726 600 765 c 128,-1,9
 566 804 566 804 523 820 c 128,-1,10
 480 836 480 836 436 836 c 0,11,12
 404 836 404 836 354.5 811 c 128,-1,13
 305 786 305 786 258 747 c 0,14,15
 181 685 181 685 151 685 c 0,16,17
 117 685 117 685 117 723 c 0,18,19
 117 756 117 756 186.5 815.5 c 128,-1,20
 256 875 256 875 352 922.5 c 128,-1,21
 448 970 448 970 512 970 c 0,22,23
 607 970 607 970 686 940.5 c 128,-1,24
 765 911 765 911 814.5 851.5 c 128,-1,25
 864 792 864 792 864 712 c 2,26,-1
 864 219 l 2,27,28
 864 164 864 164 891 127 c 128,-1,29
 918 90 918 90 956 90 c 0,30,31
 989 90 989 90 1027 131 c 1,32,33
 1057 165 1057 165 1076 165 c 0,34,35
 1086 165 1086 165 1095 155 c 128,-1,36
 1104 145 1104 145 1104 129 c 0,37,38
 1104 112 1104 112 1065.5 73 c 128,-1,39
 1027 34 1027 34 967 -1 c 128,-1,40
 907 -36 907 -36 858 -36 c 0,41,42
 798 -36 798 -36 743 6 c 128,-1,43
 688 48 688 48 666 112 c 1,44,-1
 659 112 l 1,45,46
 588 55 588 55 480.5 7.5 c 128,-1,47
 373 -40 373 -40 305 -40 c 0,48,49
 276 -40 276 -40 247.5 -33.5 c 128,-1,50
 219 -27 219 -27 189.5 -12 c 128,-1,51
 160 3 160 3 138 25.5 c 128,-1,52
 116 48 116 48 102 83 c 128,-1,53
 88 118 88 118 88 161 c 0,0,1
312 221 m 0,54,55
 312 157 312 157 351 123.5 c 128,-1,56
 390 90 390 90 446 90 c 0,57,58
 558 90 558 90 649 168 c 1,59,60
 634 233 634 233 634 317 c 2,61,-1
 634 480 l 1,62,63
 485 451 485 451 404 400 c 0,64,65
 356 370 356 370 334 321 c 128,-1,66
 312 272 312 272 312 221 c 0,54,55
EndSplineSet
EndChar

StartChar: b
Encoding: 98 98 66
Width: 1230
VWidth: 0
Flags: W
HStem: -24 88<484.787 769.748> 844 118<572.808 880> 1460 62<18.0323 147.815> 1522 20G<353 391>
VStem: 184 230<126.227 788.02 834 1439.39> 894 240<314.813 665.974>
AnchorPoint: "Bottom" 606 0 basechar 0
LayerCount: 3
Fore
SplineSet
18 1489 m 0xec
 18 1513 25 1522 51 1522 c 0xec
 79 1522 164 1526 215 1531 c 0
 280 1537 337 1542 369 1542 c 0xdc
 413 1542 414 1513 414 1485 c 2
 414 834 l 1
 420 829 l 1
 495 883 623 962 769 962 c 0
 991 962 1134 794 1134 531 c 0
 1134 193 839 -24 607 -24 c 0
 535 -24 464 -1 399 21 c 0
 356 36 293 48 245 54 c 0
 194 61 142 69 142 84 c 0
 142 100 147 118 158 157 c 0
 170 199 184 286 184 325 c 2
 184 1368 l 2
 184 1410 174 1427 149 1440 c 0
 124 1453 81 1458 52 1460 c 0
 29 1462 18 1463 18 1489 c 0xec
414 230 m 2
 414 106 549 64 649 64 c 0
 805 64 894 226 894 420 c 0
 894 611 827 844 611 844 c 0
 551 844 469 804 414 756 c 1
 414 230 l 2
EndSplineSet
Layer: 2
SplineSet
18 1489 m 0,0,1
 18 1507 18 1507 25 1514.5 c 128,-1,2
 32 1522 32 1522 51 1522 c 0,3,4
 123 1522 123 1522 215 1531 c 0,5,6
 334 1542 334 1542 369 1542 c 0,7,8
 390 1542 390 1542 400.5 1532.5 c 128,-1,9
 411 1523 411 1523 412.5 1513 c 128,-1,10
 414 1503 414 1503 414 1485 c 2,11,-1
 414 834 l 1,12,-1
 420 829 l 1,13,14
 605 962 605 962 769 962 c 0,15,16
 936 962 936 962 1035 845 c 128,-1,17
 1134 728 1134 728 1134 531 c 0,18,19
 1134 410 1134 410 1084.5 303 c 128,-1,20
 1035 196 1035 196 957.5 126 c 128,-1,21
 880 56 880 56 787.5 16 c 128,-1,22
 695 -24 695 -24 607 -24 c 0,23,24
 532 -24 532 -24 399 21 c 0,25,26
 338 42 338 42 245 54 c 0,27,28
 142 68 142 68 142 84 c 128,-1,29
 142 100 142 100 158 157 c 0,30,31
 167 189 167 189 175.5 242.5 c 128,-1,32
 184 296 184 296 184 325 c 2,33,-1
 184 1368 l 2,34,35
 184 1399 184 1399 176 1414.5 c 128,-1,36
 168 1430 168 1430 149 1440 c 0,37,38
 119 1455 119 1455 52 1460 c 0,39,40
 38 1461 38 1461 32.5 1462.5 c 128,-1,41
 27 1464 27 1464 22.5 1470 c 128,-1,42
 18 1476 18 1476 18 1489 c 0,0,1
414 230 m 2,43,44
 414 186 414 186 436 152 c 128,-1,45
 458 118 458 118 494.5 100 c 128,-1,46
 531 82 531 82 570 73 c 128,-1,47
 609 64 609 64 649 64 c 0,48,49
 762 64 762 64 828 166.5 c 128,-1,50
 894 269 894 269 894 420 c 0,51,52
 894 497 894 497 879.5 567.5 c 128,-1,53
 865 638 865 638 834 702.5 c 128,-1,54
 803 767 803 767 745.5 805.5 c 128,-1,55
 688 844 688 844 611 844 c 0,56,57
 567 844 567 844 512 818.5 c 128,-1,58
 457 793 457 793 414 756 c 1,59,-1
 414 230 l 2,43,44
EndSplineSet
EndChar

StartChar: c
Encoding: 99 99 67
Width: 972
VWidth: 0
Flags: W
HStem: -24 152<496.395 697.433> 910 68<447.768 623.332>
VStem: 80 242<336.448 679.908>
AnchorPoint: "Bottom" 508 0 basechar 0
AnchorPoint: "Acute" 552 1140 basechar 0
AnchorPoint: "Grave" 552 1120 basechar 0
AnchorPoint: "Top" 552 1100 basechar 0
LayerCount: 3
Fore
SplineSet
80 466 m 0
 80 732 276 978 565 978 c 0
 659 978 731 958 798 923 c 0
 857 892 908 850 908 817 c 0
 908 785 808 692 770 692 c 0
 740 692 719 715 697 766 c 0
 668 832 621 910 540 910 c 0
 433 910 322 791 322 562 c 0
 322 316 445 128 651 128 c 0
 707 128 773 160 801 181 c 0
 841 212 861 224 883 224 c 0
 904 224 916 210 916 193 c 0
 916 124 680 -24 506 -24 c 0
 271 -24 80 181 80 466 c 0
EndSplineSet
Layer: 2
SplineSet
80 466 m 0,0,1
 80 565 80 565 115.5 658 c 128,-1,2
 151 751 151 751 213.5 822 c 128,-1,3
 276 893 276 893 368 935.5 c 128,-1,4
 460 978 460 978 565 978 c 0,5,6
 693 978 693 978 798 923 c 0,7,8
 845 898 845 898 876.5 869.5 c 128,-1,9
 908 841 908 841 908 817 c 128,-1,10
 908 793 908 793 853 742.5 c 128,-1,11
 798 692 798 692 770 692 c 0,12,13
 748 692 748 692 731 709.5 c 128,-1,14
 714 727 714 727 697 766 c 0,15,16
 634 910 634 910 540 910 c 0,17,18
 453 910 453 910 387.5 817 c 128,-1,19
 322 724 322 724 322 562 c 0,20,21
 322 373 322 373 411 250.5 c 128,-1,22
 500 128 500 128 651 128 c 0,23,24
 689 128 689 128 732.5 145 c 128,-1,25
 776 162 776 162 801 181 c 0,26,27
 856 224 856 224 883 224 c 0,28,29
 898 224 898 224 907 215 c 128,-1,30
 916 206 916 206 916 193 c 0,31,32
 916 159 916 159 851 107.5 c 128,-1,33
 786 56 786 56 687 16 c 128,-1,34
 588 -24 588 -24 506 -24 c 0,35,36
 327 -24 327 -24 203.5 115.5 c 128,-1,37
 80 255 80 255 80 466 c 0,0,1
EndSplineSet
EndChar

StartChar: d
Encoding: 100 100 68
Width: 1258
VWidth: 0
Flags: W
HStem: -20 124<350 666.68> 874 88<460.252 740.456> 1460 62<650.032 779.815> 1522 20G<985 1023>
VStem: 96 240<272.026 623.187> 816 230<149.98 807.541 913 1439.39>
AnchorPoint: "Bottom" 636 0 basechar 0
LayerCount: 3
Fore
SplineSet
96 407 m 0xdc
 96 745 391 962 623 962 c 0
 691 962 766 937 810 908 c 9
 816 913 l 1
 816 1368 l 2
 816 1410 806 1427 781 1440 c 0
 756 1453 713 1458 684 1460 c 0
 661 1462 650 1463 650 1489 c 0
 650 1513 657 1522 683 1522 c 0xec
 711 1522 796 1526 847 1531 c 0
 912 1537 969 1542 1001 1542 c 0
 1045 1542 1046 1513 1046 1485 c 2
 1046 156 l 2
 1046 122 1063 104 1093 104 c 0
 1105 104 1133 107 1154 111 c 0
 1181 116 1201 119 1215 119 c 0
 1227 119 1234 107 1234 95 c 0
 1234 79 1215 60 1170 47 c 0
 1113 31 1061 13 1019 -4 c 0
 995 -14 957 -20 927 -20 c 0
 880 -20 838 53 823 109 c 1
 817 114 l 1
 740 58 610 -24 461 -24 c 0
 239 -24 96 144 96 407 c 0xdc
336 518 m 0
 336 327 403 94 619 94 c 0
 679 94 761 134 816 182 c 1
 816 702 l 2
 816 826 681 874 581 874 c 0
 425 874 336 712 336 518 c 0
EndSplineSet
Layer: 2
SplineSet
96 407 m 0,0,1
 96 528 96 528 145.5 635 c 128,-1,2
 195 742 195 742 272.5 812 c 128,-1,3
 350 882 350 882 442.5 922 c 128,-1,4
 535 962 535 962 623 962 c 0,5,6
 672 962 672 962 723.5 946.5 c 128,-1,7
 775 931 775 931 810 908 c 1,8,-1
 816 913 l 1,9,-1
 816 1368 l 2,10,11
 816 1399 816 1399 808 1414.5 c 128,-1,12
 800 1430 800 1430 781 1440 c 0,13,14
 751 1455 751 1455 684 1460 c 0,15,16
 670 1461 670 1461 664.5 1462.5 c 128,-1,17
 659 1464 659 1464 654.5 1470 c 128,-1,18
 650 1476 650 1476 650 1489 c 0,19,20
 650 1507 650 1507 657 1514.5 c 128,-1,21
 664 1522 664 1522 683 1522 c 0,22,23
 755 1522 755 1522 847 1531 c 0,24,25
 966 1542 966 1542 1001 1542 c 0,26,27
 1022 1542 1022 1542 1032.5 1532.5 c 128,-1,28
 1043 1523 1043 1523 1044.5 1513 c 128,-1,29
 1046 1503 1046 1503 1046 1485 c 2,30,-1
 1046 156 l 2,31,32
 1046 104 1046 104 1093 104 c 0,33,34
 1117 104 1117 104 1154 111 c 0,35,36
 1197 119 1197 119 1215 119 c 0,37,38
 1224 119 1224 119 1229 112 c 128,-1,39
 1234 105 1234 105 1234 95 c 0,40,41
 1234 65 1234 65 1170 47 c 0,42,43
 1088 24 1088 24 1019 -4 c 0,44,45
 981 -20 981 -20 927 -20 c 0,46,47
 894 -20 894 -20 865 20.5 c 128,-1,48
 836 61 836 61 823 109 c 1,49,-1
 817 114 l 1,50,51
 627 -24 627 -24 461 -24 c 0,52,53
 294 -24 294 -24 195 93 c 128,-1,54
 96 210 96 210 96 407 c 0,0,1
336 518 m 0,55,56
 336 441 336 441 350.5 370.5 c 128,-1,57
 365 300 365 300 396 235.5 c 128,-1,58
 427 171 427 171 484.5 132.5 c 128,-1,59
 542 94 542 94 619 94 c 0,60,61
 663 94 663 94 718 119.5 c 128,-1,62
 773 145 773 145 816 182 c 1,63,-1
 816 702 l 2,64,65
 816 760 816 760 777 801 c 128,-1,66
 738 842 738 842 687 858 c 128,-1,67
 636 874 636 874 581 874 c 0,68,69
 468 874 468 874 402 771.5 c 128,-1,70
 336 669 336 669 336 518 c 0,55,56
EndSplineSet
EndChar

StartChar: e
Encoding: 101 101 69
Width: 1012
VWidth: 0
Flags: W
HStem: -24 146<498.361 704.352> 910 68<434.485 633.478>
VStem: 80 232<407.068 688.412> 718 234<598.759 810.982>
DStem2: 317 488 328 429 0.960612 0.277891<0 415.914>
AnchorPoint: "Bottom" 540 0 basechar 0
AnchorPoint: "Acute" 556 1140 basechar 0
AnchorPoint: "Grave" 556 1120 basechar 0
AnchorPoint: "Top" 556 1100 basechar 0
LayerCount: 3
Fore
SplineSet
80 476 m 0
 80 764 292 978 554 978 c 0
 846 978 952 784 952 672 c 0
 952 627 927 602 888 591 c 2
 328 429 l 1
 361 241 492 122 652 122 c 0
 728 122 783 163 815 187 c 0
 850 213 867 225 889 225 c 0
 910 225 920 211 920 194 c 0
 920 125 690 -24 516 -24 c 0
 232 -24 80 229 80 476 c 0
312 567 m 0
 312 542 313 515 317 488 c 1
 642 582 l 2
 694 597 718 622 718 688 c 0
 718 786 673 910 526 910 c 0
 419 910 312 789 312 567 c 0
EndSplineSet
Layer: 2
SplineSet
80 476 m 0,0,1
 80 690 80 690 218 834 c 128,-1,2
 356 978 356 978 554 978 c 0,3,4
 657 978 657 978 738 946.5 c 128,-1,5
 819 915 819 915 863.5 866.5 c 128,-1,6
 908 818 908 818 930 768 c 128,-1,7
 952 718 952 718 952 672 c 0,8,9
 952 609 952 609 888 591 c 2,10,-1
 328 429 l 1,11,12
 353 289 353 289 442 205.5 c 128,-1,13
 531 122 531 122 652 122 c 0,14,15
 728 122 728 122 815 187 c 0,16,17
 866 225 866 225 889 225 c 0,18,19
 920 225 920 225 920 194 c 0,20,21
 920 169 920 169 881 131 c 128,-1,22
 842 93 842 93 784 59 c 128,-1,23
 726 25 726 25 652 0.5 c 128,-1,24
 578 -24 578 -24 516 -24 c 0,25,26
 413 -24 413 -24 328.5 19 c 128,-1,27
 244 62 244 62 191 133.5 c 128,-1,28
 138 205 138 205 109 293.5 c 128,-1,29
 80 382 80 382 80 476 c 0,0,1
312 567 m 0,30,31
 312 522 312 522 317 488 c 1,32,-1
 642 582 l 2,33,34
 683 594 683 594 700.5 617 c 128,-1,35
 718 640 718 640 718 688 c 0,36,37
 718 728 718 728 708 764.5 c 128,-1,38
 698 801 698 801 677.5 835 c 128,-1,39
 657 869 657 869 617.5 889.5 c 128,-1,40
 578 910 578 910 526 910 c 0,41,42
 440 910 440 910 376 817.5 c 128,-1,43
 312 725 312 725 312 567 c 0,30,31
EndSplineSet
EndChar

StartChar: f
Encoding: 102 102 70
Width: 832
VWidth: 0
Flags: W
HStem: -12 60<72.0587 231.544 474.456 633.941> 886 60<76.3823 238 468 736.618> 1474 80<458.96 675.5>
VStem: 238 230<54.7166 886 946 1342.83>
AnchorPoint: "Bottom" 354 0 basechar 0
LayerCount: 3
Fore
SplineSet
72 16 m 0
 72 34 80 47 100 48 c 2
 186 54 l 2
 213 56 238 63 238 102 c 2
 238 886 l 1
 88 886 l 2
 80 886 72 892 72 900 c 0
 72 914 88 946 110 946 c 2
 238 946 l 1
 238 1115 l 2
 238 1473 460 1554 641 1554 c 0
 710 1554 808 1535 808 1512 c 0
 808 1448 752 1316 704 1316 c 0
 679 1316 658 1345 640 1383 c 0
 619 1427 589 1474 533 1474 c 0
 481 1474 434 1431 434 1344 c 0
 434 1320 441 1238 448 1198 c 0
 458 1138 468 1044 468 1005 c 2
 468 946 l 1
 725 946 l 2
 733 946 741 940 741 932 c 0
 741 918 725 886 703 886 c 2
 468 886 l 1
 468 102 l 2
 468 63 493 56 520 54 c 2
 606 48 l 2
 626 47 634 34 634 16 c 0
 634 -4 625 -12 613 -12 c 0
 587 -12 531 -8 490 -4 c 0
 443 1 392 4 353 4 c 0
 314 4 263 1 216 -4 c 0
 175 -8 119 -12 93 -12 c 0
 81 -12 72 -4 72 16 c 0
EndSplineSet
Layer: 2
SplineSet
72 16 m 0,0,1
 72 47 72 47 100 48 c 2,2,-1
 186 54 l 2,3,4
 210 56 210 56 224 65.5 c 128,-1,5
 238 75 238 75 238 102 c 2,6,-1
 238 886 l 1,7,-1
 88 886 l 2,8,9
 82 886 82 886 77 890 c 128,-1,10
 72 894 72 894 72 900 c 0,11,12
 72 913 72 913 83.5 929.5 c 128,-1,13
 95 946 95 946 110 946 c 2,14,-1
 238 946 l 1,15,-1
 238 1115 l 2,16,17
 238 1218 238 1218 263 1297.5 c 128,-1,18
 288 1377 288 1377 327.5 1424.5 c 128,-1,19
 367 1472 367 1472 421.5 1502 c 128,-1,20
 476 1532 476 1532 529 1543 c 128,-1,21
 582 1554 582 1554 641 1554 c 0,22,23
 697 1554 697 1554 752.5 1541 c 128,-1,24
 808 1528 808 1528 808 1512 c 0,25,26
 808 1460 808 1460 773 1388 c 128,-1,27
 738 1316 738 1316 704 1316 c 0,28,29
 672 1316 672 1316 640 1383 c 0,30,31
 597 1474 597 1474 533 1474 c 0,32,33
 491 1474 491 1474 462.5 1440 c 128,-1,34
 434 1406 434 1406 434 1344 c 0,35,36
 434 1278 434 1278 448 1198 c 0,37,38
 468 1078 468 1078 468 1005 c 2,39,-1
 468 946 l 1,40,-1
 725 946 l 2,41,42
 731 946 731 946 736 942 c 128,-1,43
 741 938 741 938 741 932 c 0,44,45
 741 919 741 919 729.5 902.5 c 128,-1,46
 718 886 718 886 703 886 c 2,47,-1
 468 886 l 1,48,-1
 468 102 l 2,49,50
 468 75 468 75 482 65.5 c 128,-1,51
 496 56 496 56 520 54 c 2,52,-1
 606 48 l 2,53,54
 634 47 634 47 634 16 c 0,55,56
 634 -12 634 -12 613 -12 c 0,57,58
 572 -12 572 -12 490 -4 c 0,59,60
 415 4 415 4 353 4 c 128,-1,61
 291 4 291 4 216 -4 c 0,62,63
 134 -12 134 -12 93 -12 c 0,64,65
 72 -12 72 -12 72 16 c 0,0,1
EndSplineSet
EndChar

StartChar: g
Encoding: 103 103 71
Width: 1096
VWidth: -10
Flags: W
HStem: -548 76<479.302 792.16> 288 72<497.849 697.593> 900 72<435.125 639.006>
VStem: 111 214<-21 206> 152 202<507.968 762.398> 782 202<494.731 752.258> 864 156<-372.859 -218.844> 892 204<1029.45 1185.18>
AnchorPoint: "Top" 568 1100 basechar 0
AnchorPoint: "Grave" 568 1120 basechar 0
AnchorPoint: "Acute" 568 1100 basechar 0
AnchorPoint: "HighMark" 568 1240 basechar 0
LayerCount: 3
Fore
SplineSet
64 -296 m 0xf2
 64 -242 165 -147 221 -147 c 0
 252 -147 264 -170 288 -220 c 0
 365 -380 472 -472 648 -472 c 0
 760 -472 864 -421 864 -314 c 0
 864 -216 765 -137 467 -101 c 0
 301 -81 111 -49 111 7 c 0xf2
 111 107 199 242 365 305 c 1
 365 310 l 1
 236 354 152 458 152 590 c 0
 152 859 407 972 624 972 c 0
 643 972 696 968 722 964 c 0
 748 960 787 958 802 958 c 0
 875 958 892 998 892 1064 c 0
 892 1098 879 1141 861 1177 c 1
 904 1197 980 1200 1016 1200 c 0
 1077 1200 1096 1174 1096 1152 c 0xe9
 1096 1039 991 938 850 918 c 1
 849 911 l 1
 920 866 984 782 984 669 c 0xe4
 984 400 729 288 512 288 c 0
 450 288 409 279 379 262 c 0
 343 242 325 216 325 196 c 0
 325 166 370 147 507 129 c 0
 879 80 1020 -64 1020 -237 c 0
 1020 -397 850 -548 574 -548 c 0
 284 -548 64 -406 64 -296 c 0xf2
354 678 m 0xec
 354 506 482 360 604 360 c 0
 720 360 782 466 782 582 c 0
 782 754 654 900 532 900 c 0
 416 900 354 794 354 678 c 0xec
EndSplineSet
Layer: 2
SplineSet
64 -296 m 0,0,1
 64 -256 64 -256 121.5 -201.5 c 128,-1,2
 179 -147 179 -147 221 -147 c 0,3,4
 243 -147 243 -147 255.5 -162 c 128,-1,5
 268 -177 268 -177 288 -220 c 0,6,7
 348 -345 348 -345 434 -408.5 c 128,-1,8
 520 -472 520 -472 648 -472 c 0,9,10
 738 -472 738 -472 801 -431 c 128,-1,11
 864 -390 864 -390 864 -314 c 0,12,13
 864 -149 864 -149 467 -101 c 0,14,15
 111 -58 111 -58 111 7 c 0,16,17
 111 88 111 88 179 174 c 128,-1,18
 247 260 247 260 365 305 c 1,19,-1
 365 310 l 1,20,21
 267 343 267 343 209.5 417.5 c 128,-1,22
 152 492 152 492 152 590 c 0,23,24
 152 668 152 668 180.5 733 c 128,-1,25
 209 798 209 798 255.5 841 c 128,-1,26
 302 884 302 884 364 914.5 c 128,-1,27
 426 945 426 945 491.5 958.5 c 128,-1,28
 557 972 557 972 624 972 c 0,29,30
 670 972 670 972 722 964 c 0,31,32
 761 958 761 958 802 958 c 0,33,34
 854 958 854 958 873 984 c 128,-1,35
 892 1010 892 1010 892 1064 c 0,36,37
 892 1115 892 1115 861 1177 c 1,38,39
 910 1200 910 1200 1016 1200 c 0,40,41
 1058 1200 1058 1200 1077 1185.5 c 128,-1,42
 1096 1171 1096 1171 1096 1152 c 0,43,44
 1096 1067 1096 1067 1026 1000 c 128,-1,45
 956 933 956 933 850 918 c 1,46,-1
 849 911 l 1,47,48
 907 874 907 874 945.5 811.5 c 128,-1,49
 984 749 984 749 984 669 c 0,50,51
 984 591 984 591 955.5 526.5 c 128,-1,52
 927 462 927 462 880.5 418.5 c 128,-1,53
 834 375 834 375 772 345 c 128,-1,54
 710 315 710 315 644.5 301.5 c 128,-1,55
 579 288 579 288 512 288 c 0,56,57
 425 288 425 288 379 262 c 0,58,59
 325 232 325 232 325 196 c 0,60,61
 325 173 325 173 365.5 157.5 c 128,-1,62
 406 142 406 142 507 129 c 0,63,64
 773 94 773 94 896.5 -2.5 c 128,-1,65
 1020 -99 1020 -99 1020 -237 c 0,66,67
 1020 -363 1020 -363 896.5 -455.5 c 128,-1,68
 773 -548 773 -548 574 -548 c 0,69,70
 436 -548 436 -548 315.5 -507.5 c 128,-1,71
 195 -467 195 -467 129.5 -409.5 c 128,-1,72
 64 -352 64 -352 64 -296 c 0,0,1
354 678 m 0,73,74
 354 552 354 552 432 456 c 128,-1,75
 510 360 510 360 604 360 c 0,76,77
 687 360 687 360 734.5 425 c 128,-1,78
 782 490 782 490 782 582 c 0,79,80
 782 708 782 708 704 804 c 128,-1,81
 626 900 626 900 532 900 c 0,82,83
 449 900 449 900 401.5 835 c 128,-1,84
 354 770 354 770 354 678 c 0,73,74
EndSplineSet
EndChar

StartChar: h
Encoding: 104 104 72
Width: 1278
VWidth: 0
Flags: W
HStem: -12 60<44.0587 203.544 446.456 605.941 672.059 831.544 1074.46 1233.94> 856 112<644.951 915.5> 1460 62<44.0323 173.815> 1522 20G<379 417>
VStem: 210 230<54.7166 770.922 822 1439.39> 838 230<54.7166 828.444>
AnchorPoint: "HighMark" 636 1620 basechar 0
AnchorPoint: "Bottom" 636 0 basechar 0
LayerCount: 3
Fore
SplineSet
44 16 m 0xdc
 44 34 52 47 72 48 c 2
 158 54 l 2
 185 56 210 63 210 102 c 2
 210 1368 l 2
 210 1410 200 1427 175 1440 c 0
 150 1453 107 1458 78 1460 c 0
 55 1462 44 1463 44 1489 c 0
 44 1513 51 1522 77 1522 c 0xec
 105 1522 190 1526 241 1531 c 0
 306 1537 363 1542 395 1542 c 0
 439 1542 440 1513 440 1485 c 2
 440 822 l 1
 447 815 l 1
 564 886 701 968 818 968 c 0
 1013 968 1068 865 1068 697 c 2
 1068 102 l 2
 1068 63 1093 56 1120 54 c 2
 1206 48 l 2
 1226 47 1234 34 1234 16 c 0
 1234 -4 1225 -12 1213 -12 c 0
 1187 -12 1131 -8 1090 -4 c 0
 1043 1 992 4 953 4 c 0
 914 4 863 1 816 -4 c 0
 775 -8 719 -12 693 -12 c 0
 681 -12 672 -4 672 16 c 0
 672 34 680 47 700 48 c 2
 786 54 l 2
 813 56 838 63 838 102 c 2
 838 722 l 2
 838 777 815 856 708 856 c 0
 613 856 515 793 440 741 c 1
 440 102 l 2
 440 63 465 56 492 54 c 2
 578 48 l 2
 598 47 606 34 606 16 c 0
 606 -4 597 -12 585 -12 c 0
 559 -12 503 -8 462 -4 c 0
 415 1 364 4 325 4 c 0
 286 4 235 1 188 -4 c 0
 147 -8 91 -12 65 -12 c 0
 53 -12 44 -4 44 16 c 0xdc
EndSplineSet
Layer: 2
SplineSet
44 16 m 0,0,1
 44 47 44 47 72 48 c 2,2,-1
 158 54 l 2,3,4
 182 56 182 56 196 65.5 c 128,-1,5
 210 75 210 75 210 102 c 2,6,-1
 210 1368 l 2,7,8
 210 1399 210 1399 202 1414.5 c 128,-1,9
 194 1430 194 1430 175 1440 c 0,10,11
 145 1455 145 1455 78 1460 c 0,12,13
 64 1461 64 1461 58.5 1462.5 c 128,-1,14
 53 1464 53 1464 48.5 1470 c 128,-1,15
 44 1476 44 1476 44 1489 c 0,16,17
 44 1507 44 1507 51 1514.5 c 128,-1,18
 58 1522 58 1522 77 1522 c 0,19,20
 149 1522 149 1522 241 1531 c 0,21,22
 360 1542 360 1542 395 1542 c 0,23,24
 416 1542 416 1542 426.5 1532.5 c 128,-1,25
 437 1523 437 1523 438.5 1513 c 128,-1,26
 440 1503 440 1503 440 1485 c 2,27,-1
 440 822 l 1,28,-1
 447 815 l 1,29,30
 525 863 525 863 573 889 c 128,-1,31
 621 915 621 915 692.5 941.5 c 128,-1,32
 764 968 764 968 818 968 c 0,33,34
 957 968 957 968 1012.5 900 c 128,-1,35
 1068 832 1068 832 1068 697 c 2,36,-1
 1068 102 l 2,37,38
 1068 75 1068 75 1082 65.5 c 128,-1,39
 1096 56 1096 56 1120 54 c 2,40,-1
 1206 48 l 2,41,42
 1234 47 1234 47 1234 16 c 0,43,44
 1234 -12 1234 -12 1213 -12 c 0,45,46
 1172 -12 1172 -12 1090 -4 c 0,47,48
 1015 4 1015 4 953 4 c 128,-1,49
 891 4 891 4 816 -4 c 0,50,51
 734 -12 734 -12 693 -12 c 0,52,53
 672 -12 672 -12 672 16 c 0,54,55
 672 47 672 47 700 48 c 2,56,-1
 786 54 l 2,57,58
 810 56 810 56 824 65.5 c 128,-1,59
 838 75 838 75 838 102 c 2,60,-1
 838 722 l 2,61,62
 838 745 838 745 832.5 766.5 c 128,-1,63
 827 788 827 788 813.5 809 c 128,-1,64
 800 830 800 830 773 843 c 128,-1,65
 746 856 746 856 708 856 c 0,66,67
 606 856 606 856 440 741 c 1,68,-1
 440 102 l 2,69,70
 440 75 440 75 454 65.5 c 128,-1,71
 468 56 468 56 492 54 c 2,72,-1
 578 48 l 2,73,74
 606 47 606 47 606 16 c 0,75,76
 606 -12 606 -12 585 -12 c 0,77,78
 544 -12 544 -12 462 -4 c 0,79,80
 387 4 387 4 325 4 c 128,-1,81
 263 4 263 4 188 -4 c 0,82,83
 106 -12 106 -12 65 -12 c 0,84,85
 44 -12 44 -12 44 16 c 0,0,1
EndSplineSet
EndChar

StartChar: k
Encoding: 107 107 75
Width: 1268
VWidth: 0
Flags: W
HStem: -32 104<1069.29 1198.96> -12 60<44.0587 203.544 446.456 605.941> 900 60<686.065 783.921> 1460 62<44.0323 173.815> 1522 20G<379 417>
VStem: 210 230<54.7166 450 530 1439.39> 790 332<825 942>
DStem2: 440 530 514 508 0.792322 0.610104<0 45.2095 259.646 464.667> 683 640 514 508 0.57508 -0.818097<10.8004 663.487>
AnchorPoint: "Bottom" 690 0 basechar 0
LayerCount: 3
Fore
SplineSet
44 16 m 0x66
 44 34 52 47 72 48 c 2
 158 54 l 2
 185 56 210 63 210 102 c 2
 210 1368 l 2
 210 1410 200 1427 175 1440 c 0
 150 1453 107 1458 78 1460 c 0
 55 1462 44 1463 44 1489 c 0
 44 1513 51 1522 77 1522 c 0x76
 105 1522 190 1526 241 1531 c 0
 306 1537 363 1542 395 1542 c 0
 439 1542 440 1513 440 1485 c 2
 440 530 l 1
 698 731 l 2
 726 753 790 804 790 846 c 0
 790 878 768 896 714 900 c 0
 694 901 686 914 686 932 c 0
 686 952 696 960 708 960 c 0
 722 960 761 957 801 952 c 0
 848 946 878 944 904 944 c 0
 930 944 960 946 1007 952 c 0
 1047 957 1086 960 1100 960 c 0
 1112 960 1122 952 1122 932 c 0
 1122 914 1113 906 1093 902 c 0
 1036 889 969 857 927 825 c 2
 683 640 l 1
 993 199 l 2
 1046 123 1092 91 1168 72 c 0
 1191 66 1216 58 1216 42 c 0
 1216 6 1135 -32 1071 -32 c 0xae
 956 -32 872 4 771 146 c 2
 514 508 l 1
 440 450 l 1
 440 102 l 2
 440 63 465 56 492 54 c 2
 578 48 l 2
 598 47 606 34 606 16 c 0
 606 -4 597 -12 585 -12 c 0
 559 -12 503 -8 462 -4 c 0
 415 1 364 4 325 4 c 0
 286 4 235 1 188 -4 c 0
 147 -8 91 -12 65 -12 c 0
 53 -12 44 -4 44 16 c 0x66
EndSplineSet
Layer: 2
SplineSet
44 16 m 0,0,1
 44 47 44 47 72 48 c 2,2,-1
 158 54 l 2,3,4
 182 56 182 56 196 65.5 c 128,-1,5
 210 75 210 75 210 102 c 2,6,-1
 210 1368 l 2,7,8
 210 1399 210 1399 202 1414.5 c 128,-1,9
 194 1430 194 1430 175 1440 c 0,10,11
 145 1455 145 1455 78 1460 c 0,12,13
 64 1461 64 1461 58.5 1462.5 c 128,-1,14
 53 1464 53 1464 48.5 1470 c 128,-1,15
 44 1476 44 1476 44 1489 c 0,16,17
 44 1507 44 1507 51 1514.5 c 128,-1,18
 58 1522 58 1522 77 1522 c 0,19,20
 149 1522 149 1522 241 1531 c 0,21,22
 360 1542 360 1542 395 1542 c 0,23,24
 416 1542 416 1542 426.5 1532.5 c 128,-1,25
 437 1523 437 1523 438.5 1513 c 128,-1,26
 440 1503 440 1503 440 1485 c 2,27,-1
 440 530 l 1,28,-1
 698 731 l 2,29,30
 790 803 790 803 790 846 c 0,31,32
 790 894 790 894 714 900 c 1,33,34
 686 901 686 901 686 932 c 0,35,36
 686 960 686 960 708 960 c 0,37,38
 737 960 737 960 801 952 c 0,39,40
 864 944 864 944 904 944 c 128,-1,41
 944 944 944 944 1007 952 c 0,42,43
 1071 960 1071 960 1100 960 c 0,44,45
 1122 960 1122 960 1122 932 c 0,46,47
 1122 908 1122 908 1093 902 c 0,48,49
 1000 881 1000 881 927 825 c 2,50,-1
 683 640 l 1,51,-1
 993 199 l 2,52,53
 1032 143 1032 143 1071 114.5 c 128,-1,54
 1110 86 1110 86 1168 72 c 1,55,56
 1216 59 1216 59 1216 42 c 0,57,58
 1216 16 1216 16 1168 -8 c 128,-1,59
 1120 -32 1120 -32 1071 -32 c 0,60,61
 980 -32 980 -32 912 6 c 128,-1,62
 844 44 844 44 771 146 c 2,63,-1
 514 508 l 1,64,-1
 440 450 l 1,65,-1
 440 102 l 2,66,67
 440 75 440 75 454 65.5 c 128,-1,68
 468 56 468 56 492 54 c 2,69,-1
 578 48 l 2,70,71
 606 47 606 47 606 16 c 0,72,73
 606 -12 606 -12 585 -12 c 0,74,75
 544 -12 544 -12 462 -4 c 0,76,77
 387 4 387 4 325 4 c 128,-1,78
 263 4 263 4 188 -4 c 0,79,80
 106 -12 106 -12 65 -12 c 0,81,82
 44 -12 44 -12 44 16 c 0,0,1
EndSplineSet
EndChar

StartChar: l
Encoding: 108 108 76
Width: 650
VWidth: 0
Flags: W
HStem: -12 60<44.0587 203.544 446.456 605.941> 1460 62<44.0323 173.815> 1522 20G<379 417>
VStem: 210 230<54.7166 1439.39>
AnchorPoint: "HighMark" 314 1620 basechar 0
AnchorPoint: "Bottom" 325 0 basechar 0
LayerCount: 3
Fore
SplineSet
44 16 m 0xb0
 44 34 52 47 72 48 c 10
 158 54 l 18
 185 56 210 63 210 102 c 10
 210 1368 l 18
 210 1410 200 1427 175 1440 c 0
 150 1453 107 1458 78 1460 c 0
 55 1462 44 1463 44 1489 c 0
 44 1513 51 1522 77 1522 c 0xd0
 105 1522 190 1526 241 1531 c 0
 306 1537 363 1542 395 1542 c 0
 439 1542 440 1513 440 1485 c 10
 440 102 l 18
 440 63 465 56 492 54 c 10
 578 48 l 18
 598 47 606 34 606 16 c 0
 606 -4 597 -12 585 -12 c 0
 559 -12 503 -8 462 -4 c 0
 415 1 364 4 325 4 c 0
 286 4 235 1 188 -4 c 0
 147 -8 91 -12 65 -12 c 0
 53 -12 44 -4 44 16 c 0xb0
EndSplineSet
Layer: 2
SplineSet
44 16 m 0,0,1
 44 47 44 47 72 48 c 2,2,-1
 158 54 l 2,3,4
 182 56 182 56 196 65.5 c 128,-1,5
 210 75 210 75 210 102 c 2,6,-1
 210 1368 l 2,7,8
 210 1399 210 1399 202 1414.5 c 128,-1,9
 194 1430 194 1430 175 1440 c 0,10,11
 145 1455 145 1455 78 1460 c 0,12,13
 64 1461 64 1461 58.5 1462.5 c 128,-1,14
 53 1464 53 1464 48.5 1470 c 128,-1,15
 44 1476 44 1476 44 1489 c 0,16,17
 44 1507 44 1507 51 1514.5 c 128,-1,18
 58 1522 58 1522 77 1522 c 0,19,20
 149 1522 149 1522 241 1531 c 0,21,22
 360 1542 360 1542 395 1542 c 0,23,24
 416 1542 416 1542 426.5 1532.5 c 128,-1,25
 437 1523 437 1523 438.5 1513 c 128,-1,26
 440 1503 440 1503 440 1485 c 2,27,-1
 440 102 l 2,28,29
 440 75 440 75 454 65.5 c 128,-1,30
 468 56 468 56 492 54 c 2,31,-1
 578 48 l 2,32,33
 606 47 606 47 606 16 c 0,34,35
 606 -12 606 -12 585 -12 c 0,36,37
 544 -12 544 -12 462 -4 c 0,38,39
 387 4 387 4 325 4 c 128,-1,40
 263 4 263 4 188 -4 c 0,41,42
 106 -12 106 -12 65 -12 c 0,43,44
 44 -12 44 -12 44 16 c 0,0,1
EndSplineSet
EndChar

StartChar: m
Encoding: 109 109 77
Width: 1894
VWidth: 0
Flags: W
HStem: -12 60<64.0587 223.544 466.456 608.941 693.059 835.544 1078.46 1220.94 1305.06 1447.54 1690.46 1849.94> 856 112<669.938 904.834 1282.92 1538.57> 876 62<64.0323 193.815>
VStem: 230 230<54.7166 764.403 814 855.388> 842 230<54.7166 761.886> 1454 230<54.7166 834.297>
CounterMasks: 1 1c
AnchorPoint: "Bottom" 956 0 basechar 0
LayerCount: 3
Fore
SplineSet
64 16 m 0xdc
 64 34 72 47 92 48 c 2
 178 54 l 2
 205 56 230 63 230 102 c 2
 230 784 l 2
 230 826 220 843 195 856 c 0xdc
 170 869 127 874 98 876 c 0
 75 878 64 879 64 905 c 0
 64 929 71 938 97 938 c 0xbc
 125 938 210 942 261 947 c 0
 326 953 383 958 415 958 c 0
 459 958 460 929 460 901 c 2
 460 814 l 1
 467 807 l 1
 583 881 721 968 838 968 c 0
 986 968 1043 904 1062 802 c 1
 1069 800 l 1
 1188 881 1340 968 1447 968 c 0
 1642 968 1684 865 1684 697 c 2
 1684 102 l 2
 1684 63 1709 56 1736 54 c 2
 1822 48 l 2
 1842 47 1850 34 1850 16 c 0
 1850 -4 1841 -12 1829 -12 c 0
 1803 -12 1747 -8 1706 -4 c 0
 1659 1 1608 4 1569 4 c 0
 1530 4 1479 1 1432 -4 c 0
 1391 -8 1347 -12 1326 -12 c 0
 1314 -12 1305 -4 1305 16 c 0
 1305 34 1313 47 1333 48 c 2
 1402 54 l 2
 1429 56 1454 63 1454 102 c 2
 1454 722 l 2
 1454 777 1446 856 1339 856 c 0
 1252 856 1153 789 1072 732 c 1
 1072 102 l 2
 1072 63 1097 56 1124 54 c 2
 1193 48 l 2
 1213 47 1221 34 1221 16 c 0
 1221 -4 1212 -12 1200 -12 c 0
 1179 -12 1135 -8 1094 -4 c 0
 1047 1 996 4 957 4 c 0
 918 4 867 1 820 -4 c 0
 779 -8 735 -12 714 -12 c 0
 702 -12 693 -4 693 16 c 0
 693 34 701 47 721 48 c 2
 790 54 l 2
 817 56 842 63 842 102 c 2
 842 722 l 2
 842 777 835 856 728 856 c 0
 633 856 534 787 460 733 c 1
 460 102 l 2
 460 63 485 56 512 54 c 2
 581 48 l 2
 601 47 609 34 609 16 c 0
 609 -4 600 -12 588 -12 c 0
 567 -12 523 -8 482 -4 c 0
 435 1 384 4 345 4 c 0
 306 4 255 1 208 -4 c 0
 167 -8 111 -12 85 -12 c 0
 73 -12 64 -4 64 16 c 0xdc
EndSplineSet
Layer: 2
SplineSet
64 16 m 0,0,1
 64 47 64 47 92 48 c 2,2,-1
 178 54 l 2,3,4
 202 56 202 56 216 65.5 c 128,-1,5
 230 75 230 75 230 102 c 2,6,-1
 230 784 l 2,7,8
 230 815 230 815 222 830.5 c 128,-1,9
 214 846 214 846 195 856 c 0,10,11
 165 871 165 871 98 876 c 0,12,13
 84 877 84 877 78.5 878.5 c 128,-1,14
 73 880 73 880 68.5 886 c 128,-1,15
 64 892 64 892 64 905 c 0,16,17
 64 923 64 923 71 930.5 c 128,-1,18
 78 938 78 938 97 938 c 0,19,20
 169 938 169 938 261 947 c 0,21,22
 380 958 380 958 415 958 c 0,23,24
 436 958 436 958 446.5 948.5 c 128,-1,25
 457 939 457 939 458.5 929 c 128,-1,26
 460 919 460 919 460 901 c 2,27,-1
 460 814 l 1,28,-1
 467 807 l 1,29,30
 545 857 545 857 592.5 884.5 c 128,-1,31
 640 912 640 912 712 940 c 128,-1,32
 784 968 784 968 838 968 c 0,33,34
 944 968 944 968 995.5 926 c 128,-1,35
 1047 884 1047 884 1062 802 c 1,36,-1
 1069 800 l 1,37,38
 1316 968 1316 968 1447 968 c 0,39,40
 1518 968 1518 968 1566 950 c 128,-1,41
 1614 932 1614 932 1639 894.5 c 128,-1,42
 1664 857 1664 857 1674 810.5 c 128,-1,43
 1684 764 1684 764 1684 697 c 2,44,-1
 1684 102 l 2,45,46
 1684 75 1684 75 1698 65.5 c 128,-1,47
 1712 56 1712 56 1736 54 c 2,48,-1
 1822 48 l 2,49,50
 1850 47 1850 47 1850 16 c 0,51,52
 1850 -12 1850 -12 1829 -12 c 0,53,54
 1788 -12 1788 -12 1706 -4 c 0,55,56
 1631 4 1631 4 1569 4 c 128,-1,57
 1507 4 1507 4 1432 -4 c 0,58,59
 1350 -12 1350 -12 1326 -12 c 0,60,61
 1305 -12 1305 -12 1305 16 c 0,62,63
 1305 47 1305 47 1333 48 c 1,64,-1
 1402 54 l 2,65,66
 1426 56 1426 56 1440 65.5 c 128,-1,67
 1454 75 1454 75 1454 102 c 2,68,-1
 1454 722 l 2,69,70
 1454 748 1454 748 1450.5 767 c 128,-1,71
 1447 786 1447 786 1437 808.5 c 128,-1,72
 1427 831 1427 831 1402 843.5 c 128,-1,73
 1377 856 1377 856 1339 856 c 0,74,75
 1299 856 1299 856 1247 834.5 c 128,-1,76
 1195 813 1195 813 1160 791 c 128,-1,77
 1125 769 1125 769 1072 732 c 1,78,-1
 1072 102 l 2,79,80
 1072 75 1072 75 1086 65.5 c 128,-1,81
 1100 56 1100 56 1124 54 c 2,82,-1
 1193 48 l 1,83,84
 1221 47 1221 47 1221 16 c 0,85,86
 1221 -12 1221 -12 1200 -12 c 0,87,88
 1176 -12 1176 -12 1094 -4 c 0,89,90
 1019 4 1019 4 957 4 c 128,-1,91
 895 4 895 4 820 -4 c 0,92,93
 738 -12 738 -12 714 -12 c 0,94,95
 693 -12 693 -12 693 16 c 0,96,97
 693 47 693 47 721 48 c 1,98,-1
 790 54 l 2,99,100
 814 56 814 56 828 65.5 c 128,-1,101
 842 75 842 75 842 102 c 2,102,-1
 842 722 l 2,103,104
 842 748 842 748 839 767 c 128,-1,105
 836 786 836 786 825.5 808.5 c 128,-1,106
 815 831 815 831 790.5 843.5 c 128,-1,107
 766 856 766 856 728 856 c 0,108,109
 684 856 684 856 631 834.5 c 128,-1,110
 578 813 578 813 543.5 791 c 128,-1,111
 509 769 509 769 460 733 c 1,112,-1
 460 102 l 2,113,114
 460 75 460 75 474 65.5 c 128,-1,115
 488 56 488 56 512 54 c 2,116,-1
 581 48 l 1,117,118
 609 47 609 47 609 16 c 0,119,120
 609 -12 609 -12 588 -12 c 0,121,122
 564 -12 564 -12 482 -4 c 0,123,124
 407 4 407 4 345 4 c 128,-1,125
 283 4 283 4 208 -4 c 0,126,127
 126 -12 126 -12 85 -12 c 0,128,129
 64 -12 64 -12 64 16 c 0,0,1
EndSplineSet
EndChar

StartChar: n
Encoding: 110 110 78
Width: 1298
VWidth: 0
Flags: W
HStem: -12 60<64.0587 223.544 466.456 625.941 692.059 851.544 1094.46 1253.94> 856 112<664.951 935.5> 876 62<64.0323 193.815>
VStem: 230 230<54.7166 770.922 822 855.388> 858 230<54.7166 828.444>
AnchorPoint: "Acute" 656 1140 basechar 0
AnchorPoint: "Grave" 656 1120 basechar 0
AnchorPoint: "Top" 656 1100 basechar 0
AnchorPoint: "Bottom" 656 0 basechar 0
LayerCount: 3
Fore
SplineSet
64 16 m 0xd8
 64 34 72 47 92 48 c 2
 178 54 l 2
 205 56 230 63 230 102 c 2
 230 784 l 2
 230 826 220 843 195 856 c 0xd8
 170 869 127 874 98 876 c 0
 75 878 64 879 64 905 c 0
 64 929 71 938 97 938 c 0xb8
 125 938 210 942 261 947 c 0
 326 953 383 958 415 958 c 0
 459 958 460 929 460 901 c 2
 460 822 l 1
 467 815 l 1
 584 886 721 968 838 968 c 0
 1033 968 1088 865 1088 697 c 2
 1088 102 l 2
 1088 63 1113 56 1140 54 c 2
 1226 48 l 2
 1246 47 1254 34 1254 16 c 0
 1254 -4 1245 -12 1233 -12 c 0
 1207 -12 1151 -8 1110 -4 c 0
 1063 1 1012 4 973 4 c 0
 934 4 883 1 836 -4 c 0
 795 -8 739 -12 713 -12 c 0
 701 -12 692 -4 692 16 c 0
 692 34 700 47 720 48 c 2
 806 54 l 2
 833 56 858 63 858 102 c 2
 858 722 l 2
 858 777 835 856 728 856 c 0
 633 856 535 793 460 741 c 1
 460 102 l 2
 460 63 485 56 512 54 c 2
 598 48 l 2
 618 47 626 34 626 16 c 0
 626 -4 617 -12 605 -12 c 0
 579 -12 523 -8 482 -4 c 0
 435 1 384 4 345 4 c 0
 306 4 255 1 208 -4 c 0
 167 -8 111 -12 85 -12 c 0
 73 -12 64 -4 64 16 c 0xd8
EndSplineSet
Layer: 2
SplineSet
64 16 m 0,0,1
 64 47 64 47 92 48 c 2,2,-1
 178 54 l 2,3,4
 202 56 202 56 216 65.5 c 128,-1,5
 230 75 230 75 230 102 c 2,6,-1
 230 784 l 2,7,8
 230 815 230 815 222 830.5 c 128,-1,9
 214 846 214 846 195 856 c 0,10,11
 165 871 165 871 98 876 c 0,12,13
 84 877 84 877 78.5 878.5 c 128,-1,14
 73 880 73 880 68.5 886 c 128,-1,15
 64 892 64 892 64 905 c 0,16,17
 64 923 64 923 71 930.5 c 128,-1,18
 78 938 78 938 97 938 c 0,19,20
 169 938 169 938 261 947 c 0,21,22
 380 958 380 958 415 958 c 0,23,24
 436 958 436 958 446.5 948.5 c 128,-1,25
 457 939 457 939 458.5 929 c 128,-1,26
 460 919 460 919 460 901 c 2,27,-1
 460 822 l 1,28,-1
 467 815 l 1,29,30
 545 863 545 863 593 889 c 128,-1,31
 641 915 641 915 712.5 941.5 c 128,-1,32
 784 968 784 968 838 968 c 0,33,34
 977 968 977 968 1032.5 900 c 128,-1,35
 1088 832 1088 832 1088 697 c 2,36,-1
 1088 102 l 2,37,38
 1088 75 1088 75 1102 65.5 c 128,-1,39
 1116 56 1116 56 1140 54 c 2,40,-1
 1226 48 l 2,41,42
 1254 47 1254 47 1254 16 c 0,43,44
 1254 -12 1254 -12 1233 -12 c 0,45,46
 1192 -12 1192 -12 1110 -4 c 0,47,48
 1035 4 1035 4 973 4 c 128,-1,49
 911 4 911 4 836 -4 c 0,50,51
 754 -12 754 -12 713 -12 c 0,52,53
 692 -12 692 -12 692 16 c 0,54,55
 692 47 692 47 720 48 c 2,56,-1
 806 54 l 2,57,58
 830 56 830 56 844 65.5 c 128,-1,59
 858 75 858 75 858 102 c 2,60,-1
 858 722 l 2,61,62
 858 745 858 745 852.5 766.5 c 128,-1,63
 847 788 847 788 833.5 809 c 128,-1,64
 820 830 820 830 793 843 c 128,-1,65
 766 856 766 856 728 856 c 0,66,67
 626 856 626 856 460 741 c 1,68,-1
 460 102 l 2,69,70
 460 75 460 75 474 65.5 c 128,-1,71
 488 56 488 56 512 54 c 2,72,-1
 598 48 l 2,73,74
 626 47 626 47 626 16 c 0,75,76
 626 -12 626 -12 605 -12 c 0,77,78
 564 -12 564 -12 482 -4 c 0,79,80
 407 4 407 4 345 4 c 128,-1,81
 283 4 283 4 208 -4 c 0,82,83
 126 -12 126 -12 85 -12 c 0,84,85
 64 -12 64 -12 64 16 c 0,0,1
EndSplineSet
EndChar

StartChar: o
Encoding: 111 111 79
Width: 1172
VWidth: 0
Flags: W
HStem: -28 62<502.268 710.389> 912 62<461.611 669.732>
VStem: 72 256<260.731 686.321> 844 256<259.679 685.269>
AnchorPoint: "Grave" 586 1120 basechar 0
AnchorPoint: "Acute" 586 1140 basechar 0
AnchorPoint: "Bottom" 586 0 basechar 0
AnchorPoint: "Top" 586 1100 basechar 0
LayerCount: 3
Fore
SplineSet
72 473 m 0
 72 769 286 974 586 974 c 0
 886 974 1100 769 1100 473 c 0
 1100 177 886 -28 586 -28 c 0
 286 -28 72 177 72 473 c 0
328 548 m 0
 328 246 429 34 605 34 c 0
 761 34 844 188 844 398 c 0
 844 700 743 912 567 912 c 0
 411 912 328 758 328 548 c 0
EndSplineSet
Layer: 2
SplineSet
72 473 m 128,-1,1
 72 694 72 694 216 834 c 128,-1,2
 360 974 360 974 586 974 c 128,-1,3
 812 974 812 974 956 834 c 128,-1,4
 1100 694 1100 694 1100 473 c 128,-1,5
 1100 252 1100 252 956 112 c 128,-1,6
 812 -28 812 -28 586 -28 c 128,-1,7
 360 -28 360 -28 216 112 c 128,-1,0
 72 252 72 252 72 473 c 128,-1,1
328 548 m 0,8,9
 328 317 328 317 401.5 175.5 c 128,-1,10
 475 34 475 34 605 34 c 0,11,12
 719 34 719 34 781.5 134.5 c 128,-1,13
 844 235 844 235 844 398 c 0,14,15
 844 629 844 629 770.5 770.5 c 128,-1,16
 697 912 697 912 567 912 c 0,17,18
 453 912 453 912 390.5 811.5 c 128,-1,19
 328 711 328 711 328 548 c 0,8,9
EndSplineSet
EndChar

StartChar: p
Encoding: 112 112 80
Width: 1256
VWidth: 0
Flags: W
HStem: -598 60<44.0587 203.544 446.456 605.941> -24 88<510.931 795.748> 844 118<598.808 906> 876 62<44.0323 173.815>
VStem: 210 230<-531.283 10 126.227 788.02 834 855.388> 920 240<314.813 665.974>
AnchorPoint: "Bottom" 894 0 basechar 0
LayerCount: 3
Fore
SplineSet
44 -570 m 0xec
 44 -552 52 -539 72 -538 c 10
 158 -532 l 18
 185 -530 210 -523 210 -484 c 10
 210 784 l 18
 210 826 200 843 175 856 c 0
 150 869 107 874 78 876 c 0
 55 878 44 879 44 905 c 0
 44 929 51 938 77 938 c 0xdc
 105 938 190 942 241 947 c 0
 306 953 363 958 395 958 c 0
 439 958 440 929 440 901 c 2
 440 834 l 1
 446 829 l 1
 521 883 649 962 795 962 c 0
 1017 962 1160 794 1160 531 c 0
 1160 193 865 -24 633 -24 c 0
 560 -24 500 -6 449 18 c 9
 440 10 l 9
 440 -484 l 18
 440 -523 465 -530 492 -532 c 10
 578 -538 l 18
 598 -539 606 -552 606 -570 c 0
 606 -590 597 -598 585 -598 c 0
 559 -598 503 -594 462 -590 c 0
 415 -585 364 -582 325 -582 c 0
 286 -582 235 -585 188 -590 c 0
 147 -594 91 -598 65 -598 c 0
 53 -598 44 -590 44 -570 c 0xec
440 230 m 2
 440 106 575 64 675 64 c 0
 831 64 920 226 920 420 c 0
 920 611 853 844 637 844 c 0xec
 577 844 495 804 440 756 c 1
 440 230 l 2
EndSplineSet
Layer: 2
SplineSet
44 -570 m 0,0,1
 44 -539 44 -539 72 -538 c 2,2,-1
 158 -532 l 2,3,4
 182 -530 182 -530 196 -520.5 c 128,-1,5
 210 -511 210 -511 210 -484 c 2,6,-1
 210 784 l 2,7,8
 210 815 210 815 202 830.5 c 128,-1,9
 194 846 194 846 175 856 c 0,10,11
 145 871 145 871 78 876 c 0,12,13
 64 877 64 877 58.5 878.5 c 128,-1,14
 53 880 53 880 48.5 886 c 128,-1,15
 44 892 44 892 44 905 c 0,16,17
 44 923 44 923 51 930.5 c 128,-1,18
 58 938 58 938 77 938 c 0,19,20
 149 938 149 938 241 947 c 0,21,22
 360 958 360 958 395 958 c 0,23,24
 416 958 416 958 426.5 948.5 c 128,-1,25
 437 939 437 939 438.5 929 c 128,-1,26
 440 919 440 919 440 901 c 2,27,-1
 440 834 l 1,28,-1
 446 829 l 1,29,30
 631 962 631 962 795 962 c 0,31,32
 962 962 962 962 1061 845 c 128,-1,33
 1160 728 1160 728 1160 531 c 0,34,35
 1160 410 1160 410 1110.5 303 c 128,-1,36
 1061 196 1061 196 983.5 126 c 128,-1,37
 906 56 906 56 813.5 16 c 128,-1,38
 721 -24 721 -24 633 -24 c 0,39,40
 538 -24 538 -24 449 18 c 1,41,-1
 440 10 l 1,42,-1
 440 -484 l 2,43,44
 440 -511 440 -511 454 -520.5 c 128,-1,45
 468 -530 468 -530 492 -532 c 2,46,-1
 578 -538 l 2,47,48
 606 -539 606 -539 606 -570 c 0,49,50
 606 -598 606 -598 585 -598 c 0,51,52
 544 -598 544 -598 462 -590 c 0,53,54
 387 -582 387 -582 325 -582 c 128,-1,55
 263 -582 263 -582 188 -590 c 0,56,57
 106 -598 106 -598 65 -598 c 0,58,59
 44 -598 44 -598 44 -570 c 0,0,1
440 230 m 2,60,61
 440 186 440 186 462 152 c 128,-1,62
 484 118 484 118 520.5 100 c 128,-1,63
 557 82 557 82 596 73 c 128,-1,64
 635 64 635 64 675 64 c 0,65,66
 788 64 788 64 854 166.5 c 128,-1,67
 920 269 920 269 920 420 c 0,68,69
 920 497 920 497 905.5 567.5 c 128,-1,70
 891 638 891 638 860 702.5 c 128,-1,71
 829 767 829 767 771.5 805.5 c 128,-1,72
 714 844 714 844 637 844 c 0,73,74
 593 844 593 844 538 818.5 c 128,-1,75
 483 793 483 793 440 756 c 1,76,-1
 440 230 l 2,60,61
EndSplineSet
EndChar

StartChar: q
Encoding: 113 113 81
Width: 1212
VWidth: 0
Flags: W
HStem: -598 60<650.059 809.544 1098 1211.94> -24 118<350 656.334> 874 88<460.252 741.763>
VStem: 96 240<272.026 623.187> 816 230<-531.283 109 149.98 807.541>
AnchorPoint: "Bottom" 426 0 basechar 0
LayerCount: 3
Fore
SplineSet
96 407 m 0
 96 745 391 962 623 962 c 0
 670 962 730 946 762 931 c 0
 784 920 812 908 833 908 c 0
 866 908 901 925 935 945 c 0
 966 963 991 972 1009 972 c 0
 1037 972 1046 949 1046 906 c 2
 1046 -484 l 18
 1046 -523 1071 -530 1098 -532 c 10
 1184 -538 l 18
 1204 -539 1212 -552 1212 -570 c 0
 1212 -590 1203 -598 1191 -598 c 0
 1165 -598 1109 -594 1068 -590 c 0
 1021 -585 970 -582 931 -582 c 0
 892 -582 841 -585 794 -590 c 0
 753 -594 697 -598 671 -598 c 0
 659 -598 650 -590 650 -570 c 0
 650 -552 658 -539 678 -538 c 10
 764 -532 l 18
 791 -530 816 -523 816 -484 c 10
 816 109 l 17
 813 111 l 1
 742 60 610 -24 461 -24 c 0
 239 -24 96 144 96 407 c 0
336 518 m 0
 336 327 403 94 619 94 c 0
 679 94 761 134 816 182 c 1
 816 702 l 2
 816 826 681 874 581 874 c 0
 425 874 336 712 336 518 c 0
EndSplineSet
Layer: 2
SplineSet
96 407 m 0,0,1
 96 528 96 528 145.5 635 c 128,-1,2
 195 742 195 742 272.5 812 c 128,-1,3
 350 882 350 882 442.5 922 c 128,-1,4
 535 962 535 962 623 962 c 0,5,6
 696 962 696 962 762 931 c 1,7,8
 808 908 808 908 833 908 c 0,9,10
 872 908 872 908 935 945 c 0,11,12
 982 972 982 972 1009 972 c 0,13,14
 1046 972 1046 972 1046 906 c 2,15,-1
 1046 -484 l 2,16,17
 1046 -511 1046 -511 1060 -520.5 c 128,-1,18
 1074 -530 1074 -530 1098 -532 c 2,19,-1
 1184 -538 l 2,20,21
 1212 -539 1212 -539 1212 -570 c 0,22,23
 1212 -598 1212 -598 1191 -598 c 0,24,25
 1150 -598 1150 -598 1068 -590 c 0,26,27
 993 -582 993 -582 931 -582 c 128,-1,28
 869 -582 869 -582 794 -590 c 0,29,30
 712 -598 712 -598 671 -598 c 0,31,32
 650 -598 650 -598 650 -570 c 0,33,34
 650 -539 650 -539 678 -538 c 2,35,-1
 764 -532 l 2,36,37
 788 -530 788 -530 802 -520.5 c 128,-1,38
 816 -511 816 -511 816 -484 c 2,39,-1
 816 109 l 1,40,-1
 813 111 l 1,41,42
 625 -24 625 -24 461 -24 c 0,43,44
 294 -24 294 -24 195 93 c 128,-1,45
 96 210 96 210 96 407 c 0,0,1
336 518 m 0,46,47
 336 441 336 441 350.5 370.5 c 128,-1,48
 365 300 365 300 396 235.5 c 128,-1,49
 427 171 427 171 484.5 132.5 c 128,-1,50
 542 94 542 94 619 94 c 0,51,52
 663 94 663 94 718 119.5 c 128,-1,53
 773 145 773 145 816 182 c 1,54,-1
 816 702 l 2,55,56
 816 760 816 760 777 801 c 128,-1,57
 738 842 738 842 687 858 c 128,-1,58
 636 874 636 874 581 874 c 0,59,60
 468 874 468 874 402 771.5 c 128,-1,61
 336 669 336 669 336 518 c 0,46,47
EndSplineSet
EndChar

StartChar: r
Encoding: 114 114 82
Width: 1074
VWidth: 0
Flags: W
HStem: -12 60<82.0587 241.544 484.456 643.941> 818 150<653 901> 876 62<82.0323 211.815>
VStem: 248 230<54.7166 713.878 772 855.388>
AnchorPoint: "Acute" 592 1140 basechar 0
AnchorPoint: "Grave" 592 1120 basechar 0
AnchorPoint: "Top" 592 1100 basechar 0
AnchorPoint: "Bottom" 384 0 basechar 0
LayerCount: 3
Fore
SplineSet
82 16 m 0xd0
 82 34 90 47 110 48 c 2
 196 54 l 2
 223 56 248 63 248 102 c 2
 248 784 l 2
 248 826 238 843 213 856 c 0
 188 869 145 874 116 876 c 0
 93 878 82 879 82 905 c 0
 82 929 89 938 115 938 c 0xb0
 143 938 228 942 279 947 c 0
 344 953 401 958 433 958 c 0
 477 958 478 929 478 901 c 2
 478 772 l 1
 485 765 l 1
 590 867 719 968 836 968 c 0
 966 968 1026 874 1026 837 c 0
 1026 821 994 789 955 754 c 0
 913 716 864 680 846 680 c 0
 824 680 812 697 794 727 c 0
 766 774 734 818 682 818 c 0
 624 818 547 749 478 665 c 1
 478 102 l 2
 478 63 503 56 530 54 c 2
 616 48 l 2
 636 47 644 34 644 16 c 0
 644 -4 635 -12 623 -12 c 0
 597 -12 541 -8 500 -4 c 0
 453 1 402 4 363 4 c 0
 324 4 273 1 226 -4 c 0
 185 -8 129 -12 103 -12 c 0
 91 -12 82 -4 82 16 c 0xd0
EndSplineSet
Layer: 2
SplineSet
82 16 m 0,0,1
 82 47 82 47 110 48 c 2,2,-1
 196 54 l 2,3,4
 220 56 220 56 234 65.5 c 128,-1,5
 248 75 248 75 248 102 c 2,6,-1
 248 784 l 2,7,8
 248 815 248 815 240 830.5 c 128,-1,9
 232 846 232 846 213 856 c 0,10,11
 183 871 183 871 116 876 c 0,12,13
 102 877 102 877 96.5 878.5 c 128,-1,14
 91 880 91 880 86.5 886 c 128,-1,15
 82 892 82 892 82 905 c 0,16,17
 82 923 82 923 89 930.5 c 128,-1,18
 96 938 96 938 115 938 c 0,19,20
 187 938 187 938 279 947 c 0,21,22
 398 958 398 958 433 958 c 0,23,24
 454 958 454 958 464.5 948.5 c 128,-1,25
 475 939 475 939 476.5 929 c 128,-1,26
 478 919 478 919 478 901 c 2,27,-1
 478 772 l 1,28,-1
 485 765 l 1,29,30
 694 968 694 968 836 968 c 0,31,32
 922 968 922 968 974 921.5 c 128,-1,33
 1026 875 1026 875 1026 837 c 0,34,35
 1026 818 1026 818 955 754 c 0,36,37
 873 680 873 680 846 680 c 0,38,39
 831 680 831 680 820 690.5 c 128,-1,40
 809 701 809 701 794 727 c 0,41,42
 768 770 768 770 742.5 794 c 128,-1,43
 717 818 717 818 682 818 c 0,44,45
 604 818 604 818 478 665 c 1,46,-1
 478 102 l 2,47,48
 478 75 478 75 492 65.5 c 128,-1,49
 506 56 506 56 530 54 c 2,50,-1
 616 48 l 2,51,52
 644 47 644 47 644 16 c 0,53,54
 644 -12 644 -12 623 -12 c 0,55,56
 582 -12 582 -12 500 -4 c 0,57,58
 425 4 425 4 363 4 c 128,-1,59
 301 4 301 4 226 -4 c 0,60,61
 144 -12 144 -12 103 -12 c 0,62,63
 82 -12 82 -12 82 16 c 0,0,1
EndSplineSet
EndChar

StartChar: s
Encoding: 115 115 83
Width: 902
VWidth: 0
Flags: W
HStem: -24 60<354.976 588.359> 912 60<351.671 561.252>
VStem: 126 178<680.924 852.949> 654 184<107.751 279.454>
AnchorPoint: "Acute" 472 1140 basechar 0
AnchorPoint: "Grave" 472 1120 basechar 0
AnchorPoint: "Top" 472 1100 basechar 0
AnchorPoint: "Bottom" 474 0 basechar 0
LayerCount: 3
Fore
SplineSet
96 319 m 0
 96 334 107 341 118 341 c 0
 146 341 159 317 169 295 c 0
 225 164 321 36 467 36 c 0
 605 36 654 108 654 182 c 0
 654 280 574 320 420 388 c 0
 264 457 126 523 126 714 c 0
 126 854 236 972 472 972 c 0
 550 972 633 955 696 930 c 0
 767 902 780 888 780 856 c 0
 780 847 779 824 771 778 c 0
 763 733 750 672 739 672 c 0
 721 672 711 685 697 713 c 0
 654 796 579 912 469 912 c 0
 353 912 304 864 304 782 c 0
 304 688 392 636 508 583 c 0
 704 493 838 419 838 263 c 0
 838 80 702 -24 463 -24 c 0
 398 -24 253 0 182 22 c 0
 110 44 104 47 102 80 c 0
 97 158 96 276 96 319 c 0
EndSplineSet
Layer: 2
SplineSet
96 319 m 0,0,1
 96 341 96 341 118 341 c 0,2,3
 148 341 148 341 169 295 c 1,4,5
 217 182 217 182 291.5 109 c 128,-1,6
 366 36 366 36 467 36 c 0,7,8
 563 36 563 36 608.5 78 c 128,-1,9
 654 120 654 120 654 182 c 0,10,11
 654 250 654 250 603 290 c 128,-1,12
 552 330 552 330 420 388 c 0,13,14
 379 406 379 406 354 418 c 128,-1,15
 329 430 329 430 294 449.5 c 128,-1,16
 259 469 259 469 238 485.5 c 128,-1,17
 217 502 217 502 193 527 c 128,-1,18
 169 552 169 552 156 578 c 128,-1,19
 143 604 143 604 134.5 639 c 128,-1,20
 126 674 126 674 126 714 c 0,21,22
 126 826 126 826 214.5 899 c 128,-1,23
 303 972 303 972 472 972 c 0,24,25
 590 972 590 972 696 930 c 0,26,27
 748 909 748 909 764 895 c 128,-1,28
 780 881 780 881 780 856 c 0,29,30
 780 830 780 830 771 778 c 0,31,32
 752 672 752 672 739 672 c 128,-1,33
 726 672 726 672 717 681.5 c 128,-1,34
 708 691 708 691 697 713 c 0,35,36
 594 912 594 912 469 912 c 0,37,38
 304 912 304 912 304 782 c 0,39,40
 304 748 304 748 318.5 719.5 c 128,-1,41
 333 691 333 691 363.5 666.5 c 128,-1,42
 394 642 394 642 426.5 623.5 c 128,-1,43
 459 605 459 605 508 583 c 0,44,45
 576 552 576 552 619 530 c 128,-1,46
 662 508 662 508 708 477 c 128,-1,47
 754 446 754 446 779.5 416.5 c 128,-1,48
 805 387 805 387 821.5 348 c 128,-1,49
 838 309 838 309 838 263 c 0,50,51
 838 126 838 126 740 51 c 128,-1,52
 642 -24 642 -24 463 -24 c 0,53,54
 415 -24 415 -24 325.5 -9.5 c 128,-1,55
 236 5 236 5 182 22 c 0,56,57
 127 39 127 39 115 47.5 c 128,-1,58
 103 56 103 56 102 80 c 0,59,60
 96 174 96 174 96 319 c 0,0,1
EndSplineSet
EndChar

StartChar: t
Encoding: 116 116 84
Width: 860
VWidth: 0
Flags: W
HStem: -24 128<452.667 643.035> 886 60<424 791.618>
VStem: 194 230<129.523 886>
AnchorPoint: "Bottom" 480 0 basechar 0
LayerCount: 3
Fore
SplineSet
28 900 m 0
 28 927 40 932 62 941 c 0
 130 968 190 1014 245 1077 c 0
 284 1122 325 1197 344 1270 c 0
 350 1293 372 1294 398 1294 c 0
 420 1294 440 1289 440 1258 c 0
 440 1242 439 1227 436 1189 c 0
 431 1134 424 1001 424 946 c 1
 780 946 l 2
 788 946 796 940 796 932 c 0
 796 918 780 886 758 886 c 2
 424 886 l 9
 424 238 l 18
 424 174 447 104 559 104 c 0
 620 104 681 147 714 173 c 0
 730 186 743 196 756 196 c 0
 772 196 802 163 802 153 c 0
 802 114 635 -24 473 -24 c 0
 287 -24 194 60 194 214 c 10
 194 886 l 17
 44 886 l 2
 36 886 28 892 28 900 c 0
EndSplineSet
Layer: 2
SplineSet
28 900 m 0,0,1
 28 913 28 913 32.5 921 c 128,-1,2
 37 929 37 929 42.5 932 c 128,-1,3
 48 935 48 935 62 941 c 0,4,5
 160 980 160 980 245 1077 c 0,6,7
 275 1112 275 1112 302.5 1164.5 c 128,-1,8
 330 1217 330 1217 344 1270 c 0,9,10
 348 1286 348 1286 361 1290 c 128,-1,11
 374 1294 374 1294 398 1294 c 0,12,13
 440 1294 440 1294 440 1258 c 0,14,15
 440 1240 440 1240 436 1189 c 0,16,17
 424 1057 424 1057 424 946 c 1,18,-1
 780 946 l 2,19,20
 786 946 786 946 791 942 c 128,-1,21
 796 938 796 938 796 932 c 0,22,23
 796 919 796 919 784.5 902.5 c 128,-1,24
 773 886 773 886 758 886 c 2,25,-1
 424 886 l 1,26,-1
 424 238 l 2,27,28
 424 104 424 104 559 104 c 0,29,30
 626 104 626 104 714 173 c 0,31,32
 742 196 742 196 756 196 c 0,33,34
 767 196 767 196 784.5 178.5 c 128,-1,35
 802 161 802 161 802 153 c 0,36,37
 802 132 802 132 755 90.5 c 128,-1,38
 708 49 708 49 627.5 12.5 c 128,-1,39
 547 -24 547 -24 473 -24 c 0,40,41
 335 -24 335 -24 264.5 37 c 128,-1,42
 194 98 194 98 194 214 c 2,43,-1
 194 886 l 1,44,-1
 44 886 l 2,45,46
 38 886 38 886 33 890 c 128,-1,47
 28 894 28 894 28 900 c 0,0,1
EndSplineSet
EndChar

StartChar: u
Encoding: 117 117 85
Width: 1280
VWidth: 0
Flags: W
HStem: -22 112<362.5 633.049> 876 62<44.0323 173.815 672.032 801.815> 938 20G<379 417 1007 1045>
VStem: 210 230<117.556 855.388> 838 230<175.078 855.388>
AnchorPoint: "Bottom" 636 0 basechar 0
AnchorPoint: "Acute" 616 1140 basechar 0
AnchorPoint: "Grave" 616 1120 basechar 0
AnchorPoint: "Top" 616 1100 basechar 0
LayerCount: 3
Fore
SplineSet
44 905 m 0xd8
 44 929 51 938 77 938 c 0xd8
 105 938 190 942 241 947 c 0
 306 953 363 958 395 958 c 0xb8
 439 958 440 929 440 901 c 2
 440 224 l 2
 440 169 463 90 570 90 c 0
 665 90 763 153 838 205 c 1
 838 784 l 2
 838 826 828 843 803 856 c 0
 778 869 735 874 706 876 c 0
 683 878 672 879 672 905 c 0
 672 929 679 938 705 938 c 0xd8
 733 938 818 942 869 947 c 0
 934 953 991 958 1023 958 c 0xb8
 1067 958 1068 929 1068 901 c 2
 1068 156 l 2
 1068 122 1085 104 1115 104 c 0
 1127 104 1155 107 1176 111 c 0
 1203 116 1223 119 1237 119 c 0
 1249 119 1256 107 1256 95 c 0
 1256 79 1237 60 1192 47 c 0
 1135 31 1083 13 1041 -4 c 0
 1017 -14 979 -20 949 -20 c 0
 898 -20 855 65 839 128 c 1
 831 131 l 1
 714 60 577 -22 460 -22 c 0
 265 -22 210 81 210 249 c 2
 210 784 l 2
 210 826 200 843 175 856 c 0
 150 869 107 874 78 876 c 0
 55 878 44 879 44 905 c 0xd8
EndSplineSet
Layer: 2
SplineSet
44 905 m 0,0,1
 44 923 44 923 51 930.5 c 128,-1,2
 58 938 58 938 77 938 c 0,3,4
 149 938 149 938 241 947 c 0,5,6
 360 958 360 958 395 958 c 0,7,8
 416 958 416 958 426.5 948.5 c 128,-1,9
 437 939 437 939 438.5 929 c 128,-1,10
 440 919 440 919 440 901 c 2,11,-1
 440 224 l 2,12,13
 440 201 440 201 445.5 179.5 c 128,-1,14
 451 158 451 158 464.5 137 c 128,-1,15
 478 116 478 116 505 103 c 128,-1,16
 532 90 532 90 570 90 c 0,17,18
 672 90 672 90 838 205 c 1,19,-1
 838 784 l 2,20,21
 838 815 838 815 830 830.5 c 128,-1,22
 822 846 822 846 803 856 c 0,23,24
 773 871 773 871 706 876 c 0,25,26
 692 877 692 877 686.5 878.5 c 128,-1,27
 681 880 681 880 676.5 886 c 128,-1,28
 672 892 672 892 672 905 c 0,29,30
 672 923 672 923 679 930.5 c 128,-1,31
 686 938 686 938 705 938 c 0,32,33
 777 938 777 938 869 947 c 0,34,35
 988 958 988 958 1023 958 c 0,36,37
 1044 958 1044 958 1054.5 948.5 c 128,-1,38
 1065 939 1065 939 1066.5 929 c 128,-1,39
 1068 919 1068 919 1068 901 c 2,40,-1
 1068 156 l 2,41,42
 1068 104 1068 104 1115 104 c 0,43,44
 1139 104 1139 104 1176 111 c 0,45,46
 1219 119 1219 119 1237 119 c 0,47,48
 1246 119 1246 119 1251 112 c 128,-1,49
 1256 105 1256 105 1256 95 c 0,50,51
 1256 65 1256 65 1192 47 c 0,52,53
 1110 24 1110 24 1041 -4 c 0,54,55
 1003 -20 1003 -20 949 -20 c 0,56,57
 914 -20 914 -20 883.5 26.5 c 128,-1,58
 853 73 853 73 839 128 c 1,59,-1
 831 131 l 1,60,61
 753 83 753 83 705 57 c 128,-1,62
 657 31 657 31 585.5 4.5 c 128,-1,63
 514 -22 514 -22 460 -22 c 0,64,65
 321 -22 321 -22 265.5 46 c 128,-1,66
 210 114 210 114 210 249 c 2,67,-1
 210 784 l 2,68,69
 210 815 210 815 202 830.5 c 128,-1,70
 194 846 194 846 175 856 c 0,71,72
 145 871 145 871 78 876 c 0,73,74
 64 877 64 877 58.5 878.5 c 128,-1,75
 53 880 53 880 48.5 886 c 128,-1,76
 44 892 44 892 44 905 c 0,0,1
EndSplineSet
EndChar

StartChar: v
Encoding: 118 118 86
Width: 1180
VWidth: 0
Flags: W
HStem: -20 21G<550.5 580> 900 60<16.0587 145.206 443.464 560.941 752.065 865.781>
VStem: 889 283<812.5 944>
DStem2: 653 271 188 814 0.368326 -0.929697<-607.918 16.8029>
AnchorPoint: "Bottom" 566 0 basechar 0
LayerCount: 3
Fore
SplineSet
16 932 m 0
 16 952 25 960 37 960 c 0
 58 960 102 956 143 952 c 0
 190 947 241 944 280 944 c 0
 319 944 370 947 417 952 c 0
 458 956 514 960 540 960 c 0
 552 960 561 952 561 932 c 0
 561 914 553 902 533 900 c 0
 484 896 435 892 435 839 c 0
 435 829 441 808 445 798 c 2
 653 271 l 2
 657 261 662 258 666 258 c 0
 670 258 676 262 681 271 c 0
 753 418 820 567 869 717 c 0
 880 752 889 802 889 823 c 0
 889 875 834 896 780 900 c 0
 760 901 752 914 752 932 c 0
 752 952 762 960 774 960 c 0
 788 960 813 957 853 952 c 0
 900 946 930 944 956 944 c 0
 982 944 1012 946 1059 952 c 0
 1099 957 1124 960 1138 960 c 0
 1150 960 1172 956 1172 932 c 0
 1172 914 1151 904 1131 900 c 0
 1039 883 985 831 938 705 c 0
 849 466 726 218 627 28 c 0
 615 6 594 -20 566 -20 c 0
 535 -20 510 1 499 29 c 2
 188 814 l 2
 163 877 113 895 44 900 c 0
 24 901 16 914 16 932 c 0
EndSplineSet
Layer: 2
SplineSet
16 932 m 0,0,1
 16 960 16 960 37 960 c 0,2,3
 61 960 61 960 143 952 c 0,4,5
 218 944 218 944 280 944 c 128,-1,6
 342 944 342 944 417 952 c 0,7,8
 499 960 499 960 540 960 c 0,9,10
 561 960 561 960 561 932 c 0,11,12
 561 903 561 903 533 900 c 0,13,14
 509 898 509 898 496 896 c 128,-1,15
 483 894 483 894 466.5 888 c 128,-1,16
 450 882 450 882 442.5 870 c 128,-1,17
 435 858 435 858 435 839 c 0,18,19
 435 823 435 823 445 798 c 2,20,-1
 653 271 l 2,21,22
 658 258 658 258 666 258 c 128,-1,23
 674 258 674 258 681 271 c 0,24,25
 808 530 808 530 869 717 c 0,26,27
 889 781 889 781 889 823 c 0,28,29
 889 859 889 859 857.5 878 c 128,-1,30
 826 897 826 897 780 900 c 0,31,32
 752 901 752 901 752 932 c 0,33,34
 752 960 752 960 774 960 c 0,35,36
 789 960 789 960 853 952 c 0,37,38
 916 944 916 944 956 944 c 128,-1,39
 996 944 996 944 1059 952 c 0,40,41
 1123 960 1123 960 1138 960 c 0,42,43
 1172 960 1172 960 1172 932 c 0,44,45
 1172 908 1172 908 1131 900 c 0,46,47
 1061 887 1061 887 1017 843 c 128,-1,48
 973 799 973 799 938 705 c 0,49,50
 833 424 833 424 627 28 c 0,51,52
 601 -20 601 -20 566 -20 c 0,53,54
 543 -20 543 -20 525.5 -6.5 c 128,-1,55
 508 7 508 7 499 29 c 2,56,-1
 188 814 l 2,57,58
 170 858 170 858 135 877 c 128,-1,59
 100 896 100 896 44 900 c 0,60,61
 16 901 16 901 16 932 c 0,0,1
EndSplineSet
EndChar

StartChar: w
Encoding: 119 119 87
Width: 1679
VWidth: 0
Flags: W
HStem: -20 21G<497 525.5 1110 1138.5> 900 60<16.0586 130.432 1251.07 1363.45>
VStem: 1389 282<778.5 942>
DStem2: 604 296 168 814 0.339144 -0.940735<-575.485 15.9101> 1003 853 828 647 0.348796 -0.937199<132.024 614.984>
AnchorPoint: "Bottom" 830 0 basechar 0
AnchorPoint: "HighMark" 902 1140 basechar 0
AnchorPoint: "Grave" 902 1120 basechar 0
AnchorPoint: "Top" 902 1100 basechar 0
LayerCount: 3
Fore
SplineSet
16 932 m 0
 16 952 25 960 36 960 c 0
 56 960 96 956 134 952 c 0
 178 947 226 944 262 944 c 0
 298 944 345 947 389 952 c 0
 427 956 480 960 504 960 c 0
 515 960 524 952 524 932 c 0
 524 914 516 902 498 900 c 0
 455 896 412 892 412 839 c 0
 412 829 417 808 421 798 c 2
 604 296 l 2
 608 286 612 283 615 283 c 0
 621 283 624 287 628 296 c 0
 690 455 781 713 823 854 c 0
 833 888 859 956 909 956 c 0
 960 956 990 888 1003 853 c 2
 1209 292 l 2
 1213 282 1221 279 1224 279 c 0
 1230 279 1237 285 1241 294 c 0
 1293 426 1330 521 1368 666 c 0
 1378 705 1389 753 1389 804 c 0
 1389 879 1333 896 1279 900 c 0
 1259 901 1251 914 1251 932 c 0
 1251 952 1261 960 1273 960 c 0
 1287 960 1312 957 1352 952 c 0
 1399 946 1429 944 1455 944 c 0
 1481 944 1511 946 1558 952 c 0
 1598 957 1623 960 1637 960 c 0
 1649 960 1671 952 1671 932 c 0
 1671 914 1650 906 1630 902 c 0
 1538 885 1488 834 1446 702 c 0
 1366 452 1287 208 1186 28 c 0
 1174 6 1152 -20 1125 -20 c 0
 1095 -20 1070 1 1058 29 c 1
 828 647 l 1
 816 647 l 1
 743 430 655 204 571 28 c 0
 560 5 539 -20 512 -20 c 0
 482 -20 463 1 451 29 c 1
 168 814 l 2
 146 877 102 895 41 900 c 0
 23 901 16 914 16 932 c 0
EndSplineSet
Layer: 2
SplineSet
16 932 m 0,0,1
 16 960 16 960 36 960 c 0,2,3
 58 960 58 960 134 952 c 0,4,5
 204 944 204 944 262 944 c 0,6,7
 319 944 319 944 389 952 c 0,8,9
 465 960 465 960 504 960 c 0,10,11
 524 960 524 960 524 932 c 0,12,13
 524 903 524 903 498 900 c 0,14,15
 477 898 477 898 466 896 c 128,-1,16
 455 894 455 894 440 888 c 128,-1,17
 425 882 425 882 418.5 870 c 128,-1,18
 412 858 412 858 412 839 c 128,-1,19
 412 820 412 820 421 798 c 2,20,-1
 604 296 l 2,21,22
 609 283 609 283 615 283 c 0,23,24
 622 283 622 283 628 296 c 0,25,26
 750 609 750 609 823 854 c 0,27,28
 853 956 853 956 909 956 c 128,-1,29
 965 956 965 956 1003 853 c 2,30,-1
 1209 292 l 2,31,32
 1214 279 1214 279 1224 279 c 128,-1,33
 1234 279 1234 279 1241 294 c 1,34,35
 1329 518 1329 518 1368 666 c 0,36,37
 1389 748 1389 748 1389 804 c 0,38,39
 1389 892 1389 892 1279 900 c 1,40,41
 1251 901 1251 901 1251 932 c 0,42,43
 1251 960 1251 960 1273 960 c 0,44,45
 1288 960 1288 960 1352 952 c 0,46,47
 1415 944 1415 944 1455 944 c 128,-1,48
 1495 944 1495 944 1558 952 c 0,49,50
 1622 960 1622 960 1637 960 c 0,51,52
 1648 960 1648 960 1659.5 952.5 c 128,-1,53
 1671 945 1671 945 1671 932 c 0,54,55
 1671 910 1671 910 1630 902 c 0,56,57
 1560 889 1560 889 1518.5 844.5 c 128,-1,58
 1477 800 1477 800 1446 702 c 0,59,60
 1394 541 1394 541 1363 449 c 128,-1,61
 1332 357 1332 357 1282.5 234.5 c 128,-1,62
 1233 112 1233 112 1186 28 c 0,63,64
 1160 -20 1160 -20 1125 -20 c 0,65,66
 1079 -20 1079 -20 1058 29 c 1,67,-1
 828 647 l 1,68,-1
 816 647 l 1,69,70
 696 289 696 289 571 28 c 0,71,72
 548 -20 548 -20 512 -20 c 0,73,74
 472 -20 472 -20 451 29 c 1,75,-1
 168 814 l 2,76,77
 152 858 152 858 121.5 877 c 128,-1,78
 91 896 91 896 41 900 c 0,79,80
 16 901 16 901 16 932 c 0,0,1
EndSplineSet
EndChar

StartChar: x
Encoding: 120 120 88
Width: 1302
VWidth: 0
Flags: W
HStem: -12 60<668.059 777.17 1109.78 1229.94> 900 60<100.059 222.536 546.83 661.941>
VStem: 64 352<6 140> 872 344<804 942>
DStem2: 713 598 551 433 0.600761 -0.799429<-301.298 0 98.1822 438.279>
AnchorPoint: "Bottom" 620 -0 basechar 0
LayerCount: 3
Fore
SplineSet
64 16 m 0
 64 34 73 39 93 46 c 0
 200 86 276 151 344 215 c 0
 410 277 488 363 551 433 c 1
 269 814 l 2
 220 881 209 892 128 900 c 0
 108 902 100 914 100 932 c 0
 100 952 109 960 121 960 c 0
 147 960 203 956 244 952 c 0
 291 947 342 944 381 944 c 0
 420 944 471 947 518 952 c 0
 559 956 615 960 641 960 c 0
 653 960 662 952 662 932 c 0
 662 914 654 902 634 900 c 2
 575 894 l 2
 557 893 542 872 542 847 c 0
 542 834 547 820 557 806 c 2
 713 598 l 1
 792 677 872 768 872 840 c 0
 872 877 849 895 808 900 c 0
 788 902 780 914 780 932 c 0
 780 952 790 960 802 960 c 0
 816 960 855 957 895 952 c 0
 942 946 972 944 998 944 c 0
 1024 944 1054 946 1101 952 c 0
 1141 957 1180 960 1194 960 c 0
 1206 960 1216 952 1216 932 c 0
 1216 914 1207 907 1187 902 c 0
 1096 880 1038 836 970 773 c 0
 897 706 813 622 748 551 c 1
 1062 134 l 2
 1111 69 1121 56 1202 48 c 0
 1222 46 1230 34 1230 16 c 0
 1230 -4 1221 -12 1209 -12 c 0
 1183 -12 1127 -8 1086 -4 c 0
 1039 1 988 4 949 4 c 0
 910 4 859 1 812 -4 c 0
 771 -8 715 -12 689 -12 c 0
 677 -12 668 -4 668 16 c 0
 668 34 676 46 696 48 c 2
 749 54 l 2
 767 55 782 76 782 101 c 0
 782 114 778 128 767 142 c 2
 589 382 l 1
 509 294 416 174 416 106 c 0
 416 66 440 56 480 48 c 0
 500 44 508 34 508 16 c 0
 508 -4 498 -12 486 -12 c 0
 472 -12 429 -9 389 -4 c 0
 342 2 312 4 286 4 c 0
 260 4 226 2 179 -4 c 0
 139 -9 100 -12 86 -12 c 0
 74 -12 64 -4 64 16 c 0
EndSplineSet
Layer: 2
SplineSet
64 16 m 0,0,1
 64 29 64 29 70.5 34.5 c 128,-1,2
 77 40 77 40 93 46 c 0,3,4
 212 90 212 90 344 215 c 0,5,6
 414 281 414 281 551 433 c 1,7,-1
 269 814 l 2,8,9
 231 866 231 866 209 880 c 128,-1,10
 187 894 187 894 128 900 c 0,11,12
 100 903 100 903 100 932 c 0,13,14
 100 960 100 960 121 960 c 0,15,16
 162 960 162 960 244 952 c 0,17,18
 319 944 319 944 381 944 c 128,-1,19
 443 944 443 944 518 952 c 0,20,21
 600 960 600 960 641 960 c 0,22,23
 662 960 662 960 662 932 c 0,24,25
 662 903 662 903 634 900 c 2,26,-1
 575 894 l 2,27,28
 561 893 561 893 551.5 879.5 c 128,-1,29
 542 866 542 866 542 847 c 0,30,31
 542 827 542 827 557 806 c 2,32,-1
 713 598 l 1,33,34
 872 757 872 757 872 840 c 0,35,36
 872 892 872 892 808 900 c 0,37,38
 780 903 780 903 780 932 c 0,39,40
 780 960 780 960 802 960 c 0,41,42
 831 960 831 960 895 952 c 0,43,44
 958 944 958 944 998 944 c 128,-1,45
 1038 944 1038 944 1101 952 c 0,46,47
 1165 960 1165 960 1194 960 c 0,48,49
 1216 960 1216 960 1216 932 c 0,50,51
 1216 909 1216 909 1187 902 c 0,52,53
 1124 887 1124 887 1075.5 856.5 c 128,-1,54
 1027 826 1027 826 970 773 c 0,55,56
 853 665 853 665 748 551 c 1,57,-1
 1062 134 l 2,58,59
 1101 82 1101 82 1122.5 68 c 128,-1,60
 1144 54 1144 54 1202 48 c 0,61,62
 1230 45 1230 45 1230 16 c 0,63,64
 1230 -12 1230 -12 1209 -12 c 0,65,66
 1168 -12 1168 -12 1086 -4 c 0,67,68
 1011 4 1011 4 949 4 c 128,-1,69
 887 4 887 4 812 -4 c 0,70,71
 730 -12 730 -12 689 -12 c 0,72,73
 668 -12 668 -12 668 16 c 0,74,75
 668 45 668 45 696 48 c 2,76,-1
 749 54 l 2,77,78
 763 55 763 55 772.5 68.5 c 128,-1,79
 782 82 782 82 782 101 c 0,80,81
 782 123 782 123 767 142 c 2,82,-1
 589 382 l 1,83,84
 416 192 416 192 416 106 c 0,85,86
 416 78 416 78 431 66.5 c 128,-1,87
 446 55 446 55 480 48 c 0,88,89
 508 42 508 42 508 16 c 0,90,91
 508 -12 508 -12 486 -12 c 0,92,93
 453 -12 453 -12 389 -4 c 0,94,95
 326 4 326 4 286 4 c 0,96,97
 242 4 242 4 179 -4 c 0,98,99
 115 -12 115 -12 86 -12 c 0,100,101
 64 -12 64 -12 64 16 c 0,0,1
EndSplineSet
EndChar

StartChar: y
Encoding: 121 121 89
Width: 1172
VWidth: 0
Flags: W
HStem: -590 21G<331 406.5> 900 60<12.0587 136.862 439.923 556.941 740.065 842>
VStem: 868 300<774 944>
DStem2: 682 236 550 -41 0.398961 -0.916968<-650.461 0> 682 236 934 705 0.360701 0.932681<0 594.228>
AnchorPoint: "Bottom" 892 0 basechar 0
AnchorPoint: "Acute" 614 1140 basechar 0
AnchorPoint: "Grave" 614 1120 basechar 0
AnchorPoint: "Top" 614 1100 basechar 0
LayerCount: 3
Fore
SplineSet
12 932 m 0
 12 952 21 960 33 960 c 0
 54 960 98 956 139 952 c 0
 186 947 237 944 276 944 c 0
 315 944 366 947 413 952 c 0
 454 956 510 960 536 960 c 0
 548 960 557 952 557 932 c 0
 557 914 549 902 529 900 c 0
 480 896 429 889 429 836 c 0
 429 821 440 793 444 783 c 2
 682 236 l 1
 825 611 l 2
 853 686 868 744 868 804 c 0
 868 860 832 895 768 900 c 0
 748 902 740 914 740 932 c 0
 740 952 750 960 762 960 c 0
 776 960 801 957 841 952 c 0
 888 946 922 944 948 944 c 0
 974 944 1008 946 1055 952 c 0
 1095 957 1120 960 1134 960 c 0
 1146 960 1168 956 1168 932 c 0
 1168 914 1147 904 1127 900 c 0
 1035 883 983 830 934 705 c 2
 485 -456 l 26
 461 -517 431 -590 382 -590 c 0
 280 -590 190 -557 190 -523 c 0
 190 -510 213 -489 239 -468 c 0
 363 -366 471 -248 542 -118 c 0
 551 -101 558 -83 558 -72 c 0
 558 -63 556 -54 550 -41 c 2
 178 814 l 2
 151 877 109 895 40 900 c 0
 20 901 12 914 12 932 c 0
EndSplineSet
Layer: 2
SplineSet
12 932 m 0,0,1
 12 960 12 960 33 960 c 0,2,3
 57 960 57 960 139 952 c 0,4,5
 214 944 214 944 276 944 c 128,-1,6
 338 944 338 944 413 952 c 0,7,8
 495 960 495 960 536 960 c 0,9,10
 557 960 557 960 557 932 c 0,11,12
 557 903 557 903 529 900 c 0,13,14
 498 897 498 897 480 893.5 c 128,-1,15
 462 890 462 890 445.5 875.5 c 128,-1,16
 429 861 429 861 429 836 c 0,17,18
 429 820 429 820 444 783 c 1,19,-1
 682 236 l 1,20,-1
 825 611 l 2,21,22
 868 726 868 726 868 804 c 0,23,24
 868 846 868 846 842 871 c 128,-1,25
 816 896 816 896 768 900 c 0,26,27
 740 903 740 903 740 932 c 0,28,29
 740 960 740 960 762 960 c 0,30,31
 777 960 777 960 841 952 c 0,32,33
 904 944 904 944 948 944 c 128,-1,34
 992 944 992 944 1055 952 c 0,35,36
 1119 960 1119 960 1134 960 c 0,37,38
 1168 960 1168 960 1168 932 c 0,39,40
 1168 908 1168 908 1127 900 c 0,41,42
 1058 887 1058 887 1014.5 843 c 128,-1,43
 971 799 971 799 934 705 c 2,44,-1
 485 -456 l 2,45,46
 469 -497 469 -497 458 -520 c 128,-1,47
 447 -543 447 -543 426 -566.5 c 128,-1,48
 405 -590 405 -590 382 -590 c 0,49,50
 306 -590 306 -590 248 -569.5 c 128,-1,51
 190 -549 190 -549 190 -523 c 0,52,53
 190 -508 190 -508 239 -468 c 0,54,55
 442 -301 442 -301 542 -118 c 0,56,57
 558 -88 558 -88 558 -72 c 0,58,59
 558 -58 558 -58 550 -41 c 2,60,-1
 178 814 l 2,61,62
 159 859 159 859 127 877.5 c 128,-1,63
 95 896 95 896 40 900 c 1,64,65
 12 901 12 901 12 932 c 0,0,1
EndSplineSet
EndChar

StartChar: z
Encoding: 122 122 90
Width: 1064
VWidth: 0
Flags: W
HStem: 0 60<392 665.455> 886 60<372.334 650> 960 20G<191 216.5>
DStem2: 117 57 392 60 0.540809 0.841146<151.246 985.561>
AnchorPoint: "Bottom" 532 0 basechar 0
AnchorPoint: "HighMark" 550 1140 basechar 0
AnchorPoint: "Grave" 550 1120 basechar 0
AnchorPoint: "Top" 550 1100 basechar 0
LayerCount: 3
Fore
SplineSet
96 650 m 0
 96 655 99 674 102 688 c 10
 148 927 l 2
 155 961 177 980 205 980 c 0
 228 980 252 971 278 961 c 0
 309 949 335 946 357 946 c 2
 915 946 l 2
 934 946 942 937 942 928 c 0
 942 915 934 901 923 885 c 10
 392 60 l 1
 612 60 685 79 788 162 c 0
 829 195 881 256 915 312 c 0
 924 327 931 338 954 338 c 0
 967 338 984 330 984 311 c 0
 984 302 981 284 978 272 c 10
 910 0 l 9
 129 0 l 18
 106 0 102 10 102 17 c 0
 102 30 110 47 117 57 c 2
 650 886 l 1
 498 886 l 2
 412 886 333 845 274 792 c 0
 232 755 191 695 162 649 c 0
 153 635 145 624 124 624 c 0
 103 624 96 637 96 650 c 0
EndSplineSet
Layer: 2
SplineSet
96 650 m 0,0,1
 96 660 96 660 102 688 c 2,2,-1
 148 927 l 2,3,4
 159 980 159 980 205 980 c 0,5,6
 229 980 229 980 278 961 c 0,7,8
 317 946 317 946 357 946 c 2,9,-1
 915 946 l 2,10,11
 942 946 942 946 942 928 c 0,12,13
 942 913 942 913 923 885 c 2,14,-1
 392 60 l 1,15,16
 557 60 557 60 634 80 c 128,-1,17
 711 100 711 100 788 162 c 0,18,19
 858 219 858 219 915 312 c 0,20,21
 923 326 923 326 930.5 332 c 128,-1,22
 938 338 938 338 954 338 c 0,23,24
 965 338 965 338 974.5 331 c 128,-1,25
 984 324 984 324 984 311 c 0,26,27
 984 296 984 296 978 272 c 2,28,-1
 910 0 l 1,29,-1
 129 0 l 2,30,31
 102 0 102 0 102 17 c 0,32,33
 102 36 102 36 117 57 c 1,34,-1
 650 886 l 1,35,-1
 498 886 l 2,36,37
 379 886 379 886 274 792 c 0,38,39
 225 749 225 749 162 649 c 0,40,41
 146 624 146 624 124 624 c 0,42,43
 96 624 96 624 96 650 c 0,0,1
EndSplineSet
EndChar

StartChar: braceleft
Encoding: 123 123 91
Width: 810
VWidth: 2078
Flags: W
HStem: 1436 20G<656 721.5>
VStem: 348 180<-224.582 285.382 788.618 1298.58> 391 180<-129.429 379.682 694.318 1203.43>
LayerCount: 3
Fore
SplineSet
144 537 m 0xa0
 144 557 168 568 190 574 c 0
 287 599 391 648 391 744 c 0xa0
 391 795 380 873 369 951 c 0
 358 1029 348 1106 348 1156 c 0
 348 1368 592 1456 720 1456 c 0
 723 1456 744 1454 744 1443 c 0
 744 1427 739 1402 690 1390 c 0
 620 1373 528 1348 528 1256 c 0xc0
 528 1197 538 1120 549 1043 c 0
 560 966 571 888 571 828 c 0
 571 677 436 590 260 539 c 1
 260 535 l 1
 436 484 571 397 571 246 c 0xa0
 571 186 560 108 549 31 c 0
 538 -46 528 -123 528 -182 c 0
 528 -274 620 -299 690 -316 c 0
 739 -328 744 -353 744 -369 c 0
 744 -380 723 -382 720 -382 c 0
 592 -382 348 -294 348 -82 c 0xc0
 348 -32 358 45 369 123 c 0
 380 201 391 279 391 330 c 0
 391 426 287 475 190 500 c 0
 168 506 144 517 144 537 c 0xa0
EndSplineSet
Layer: 2
SplineSet
144 537 m 128,-1,1
 144 561 144 561 190 574 c 1,2,3
 391 626 391 626 391 744 c 0,4,5
 391 795 391 795 369 951 c 0,6,7
 348 1100 348 1100 348 1156 c 0,8,9
 348 1231 348 1231 387.5 1291.5 c 128,-1,10
 427 1352 427 1352 486.5 1386 c 128,-1,11
 546 1420 546 1420 607 1438 c 128,-1,12
 668 1456 668 1456 720 1456 c 0,13,14
 744 1456 744 1456 744 1443 c 0,15,16
 744 1403 744 1403 690 1390 c 0,17,18
 663 1383 663 1383 645.5 1378 c 128,-1,19
 628 1373 628 1373 603.5 1362 c 128,-1,20
 579 1351 579 1351 564.5 1338 c 128,-1,21
 550 1325 550 1325 539 1303.5 c 128,-1,22
 528 1282 528 1282 528 1256 c 0,23,24
 528 1190 528 1190 549 1043 c 0,25,26
 571 889 571 889 571 828 c 0,27,28
 571 629 571 629 260 539 c 1,29,-1
 260 535 l 1,30,31
 571 445 571 445 571 246 c 0,32,33
 571 185 571 185 549 31 c 0,34,35
 528 -116 528 -116 528 -182 c 0,36,37
 528 -208 528 -208 539 -229.5 c 128,-1,38
 550 -251 550 -251 564.5 -264 c 128,-1,39
 579 -277 579 -277 603.5 -288 c 128,-1,40
 628 -299 628 -299 645.5 -304 c 128,-1,41
 663 -309 663 -309 690 -316 c 0,42,43
 744 -329 744 -329 744 -369 c 0,44,45
 744 -382 744 -382 720 -382 c 0,46,47
 668 -382 668 -382 607 -364 c 128,-1,48
 546 -346 546 -346 486.5 -312 c 128,-1,49
 427 -278 427 -278 387.5 -217.5 c 128,-1,50
 348 -157 348 -157 348 -82 c 0,51,52
 348 -26 348 -26 369 123 c 0,53,54
 391 279 391 279 391 330 c 0,55,56
 391 448 391 448 190 500 c 1,57,0
 144 513 144 513 144 537 c 128,-1,1
EndSplineSet
EndChar

StartChar: bar
Encoding: 124 124 92
Width: 400
VWidth: 2078
Flags: W
HStem: 1428 20G<155 167>
VStem: 136 128<-351.949 1429.95>
LayerCount: 3
Fore
SplineSet
136 -318 m 2
 136 1413 l 2
 136 1428 149 1448 161 1448 c 0
 173 1448 184 1444 212 1433 c 0
 244 1420 264 1411 264 1396 c 2
 264 -335 l 2
 264 -350 251 -370 239 -370 c 0
 227 -370 216 -366 188 -355 c 0
 156 -342 136 -333 136 -318 c 2
EndSplineSet
Layer: 2
SplineSet
136 -318 m 2,0,-1
 136 1413 l 2,1,2
 136 1425 136 1425 144 1436.5 c 128,-1,3
 152 1448 152 1448 161 1448 c 0,4,5
 174 1448 174 1448 212 1433 c 0,6,7
 240 1422 240 1422 252 1414 c 128,-1,8
 264 1406 264 1406 264 1396 c 2,9,-1
 264 -335 l 2,10,11
 264 -347 264 -347 256 -358.5 c 128,-1,12
 248 -370 248 -370 239 -370 c 0,13,14
 226 -370 226 -370 188 -355 c 0,15,16
 160 -344 160 -344 148 -336 c 128,-1,17
 136 -328 136 -328 136 -318 c 2,0,-1
EndSplineSet
EndChar

StartChar: braceright
Encoding: 125 125 93
Width: 810
VWidth: 2078
Flags: W
HStem: 1436 20G<88.5 154>
VStem: 239 180<-129.429 379.682 694.318 1203.43> 282 180<-224.582 285.382 788.618 1298.58>
LayerCount: 3
Fore
SplineSet
66 -369 m 0xa0
 66 -353 71 -328 120 -316 c 0
 190 -299 282 -274 282 -182 c 0xa0
 282 -123 272 -46 261 31 c 0
 250 108 239 186 239 246 c 0
 239 397 374 484 550 535 c 1
 550 539 l 1
 374 590 239 677 239 828 c 0xc0
 239 888 250 966 261 1043 c 0
 272 1120 282 1197 282 1256 c 0
 282 1348 190 1373 120 1390 c 0
 71 1402 66 1427 66 1443 c 0
 66 1454 87 1456 90 1456 c 0
 218 1456 462 1368 462 1156 c 0xa0
 462 1106 452 1029 441 951 c 0
 430 873 419 795 419 744 c 0
 419 648 523 599 620 574 c 0
 642 568 666 557 666 537 c 0
 666 517 642 506 620 500 c 0
 523 475 419 426 419 330 c 0xc0
 419 279 430 201 441 123 c 0
 452 45 462 -32 462 -82 c 0
 462 -294 218 -382 90 -382 c 0
 87 -382 66 -380 66 -369 c 0xa0
EndSplineSet
Layer: 2
SplineSet
66 -369 m 0,0,1
 66 -329 66 -329 120 -316 c 0,2,3
 147 -309 147 -309 164.5 -304 c 128,-1,4
 182 -299 182 -299 206.5 -288 c 128,-1,5
 231 -277 231 -277 245.5 -264 c 128,-1,6
 260 -251 260 -251 271 -229.5 c 128,-1,7
 282 -208 282 -208 282 -182 c 0,8,9
 282 -116 282 -116 261 31 c 0,10,11
 239 185 239 185 239 246 c 0,12,13
 239 445 239 445 550 535 c 1,14,-1
 550 539 l 1,15,16
 239 629 239 629 239 828 c 0,17,18
 239 889 239 889 261 1043 c 0,19,20
 282 1190 282 1190 282 1256 c 0,21,22
 282 1282 282 1282 271 1303.5 c 128,-1,23
 260 1325 260 1325 245.5 1338 c 128,-1,24
 231 1351 231 1351 206.5 1362 c 128,-1,25
 182 1373 182 1373 164.5 1378 c 128,-1,26
 147 1383 147 1383 120 1390 c 0,27,28
 66 1403 66 1403 66 1443 c 0,29,30
 66 1456 66 1456 90 1456 c 0,31,32
 142 1456 142 1456 203 1438 c 128,-1,33
 264 1420 264 1420 323.5 1386 c 128,-1,34
 383 1352 383 1352 422.5 1291.5 c 128,-1,35
 462 1231 462 1231 462 1156 c 0,36,37
 462 1100 462 1100 441 951 c 0,38,39
 419 795 419 795 419 744 c 0,40,41
 419 626 419 626 620 574 c 1,42,43
 666 561 666 561 666 537 c 128,-1,44
 666 513 666 513 620 500 c 1,45,46
 419 448 419 448 419 330 c 0,47,48
 419 279 419 279 441 123 c 0,49,50
 462 -26 462 -26 462 -82 c 0,51,52
 462 -157 462 -157 422.5 -217.5 c 128,-1,53
 383 -278 383 -278 323.5 -312 c 128,-1,54
 264 -346 264 -346 203 -364 c 128,-1,55
 142 -382 142 -382 90 -382 c 0,56,57
 66 -382 66 -382 66 -369 c 0,0,1
EndSplineSet
EndChar

StartChar: asciitilde
Encoding: 126 126 94
Width: 1260
VWidth: 0
Flags: W
HStem: 312 176<736.466 935.919> 434 176<324.081 523.534>
LayerCount: 3
Fore
SplineSet
112 362 m 0x40
 112 412 322 610 459 610 c 0x40
 556 610 629 579 697 549 c 0
 766 519 840 488 932 488 c 0
 985 488 1023 522 1053 554 c 0
 1072 574 1090 590 1106 590 c 0
 1126 590 1148 581 1148 560 c 0
 1148 510 938 312 801 312 c 0x80
 704 312 631 343 563 373 c 0
 494 403 420 434 328 434 c 0
 275 434 237 400 207 368 c 0
 188 348 170 332 154 332 c 0
 134 332 112 341 112 362 c 0x40
EndSplineSet
Layer: 2
SplineSet
112 362 m 0,0,1
 112 388 112 388 169 447 c 128,-1,2
 226 506 226 506 311 558 c 128,-1,3
 396 610 396 610 459 610 c 0,4,5
 504 610 504 610 550.5 600 c 128,-1,6
 597 590 597 590 625 579 c 128,-1,7
 653 568 653 568 697 549 c 0,8,9
 742 530 742 530 770 519 c 128,-1,10
 798 508 798 508 843.5 498 c 128,-1,11
 889 488 889 488 932 488 c 0,12,13
 991 488 991 488 1053 554 c 0,14,15
 1087 590 1087 590 1106 590 c 0,16,17
 1123 590 1123 590 1135.5 582.5 c 128,-1,18
 1148 575 1148 575 1148 560 c 0,19,20
 1148 534 1148 534 1091 475 c 128,-1,21
 1034 416 1034 416 949 364 c 128,-1,22
 864 312 864 312 801 312 c 0,23,24
 756 312 756 312 709.5 322 c 128,-1,25
 663 332 663 332 635 343 c 128,-1,26
 607 354 607 354 563 373 c 0,27,28
 518 392 518 392 490 403 c 128,-1,29
 462 414 462 414 416.5 424 c 128,-1,30
 371 434 371 434 328 434 c 0,31,32
 269 434 269 434 207 368 c 0,33,34
 173 332 173 332 154 332 c 0,35,36
 137 332 137 332 124.5 339.5 c 128,-1,37
 112 347 112 347 112 362 c 0,0,1
EndSplineSet
EndChar

StartChar: exclamdown
Encoding: 161 161 96
Width: 528
VWidth: 2078
Flags: W
HStem: -36 21G<115 157.5> 1128 320<153.751 374.249>
VStem: 78 354<120.259 390.688> 104 320<1177.75 1398.25>
LayerCount: 3
Fore
SplineSet
78 18 m 0xe0
 78 63 96 207 103 257 c 2
 208 970 l 2
 212 995 236 1016 264 1016 c 0
 292 1016 314 1006 320 970 c 2
 408 401 l 2
 416 347 432 227 432 207 c 0
 432 158 373 97 312 51 c 0
 249 3 174 -36 141 -36 c 0
 89 -36 78 -3 78 18 c 0xe0
104 1288 m 0xd0
 104 1376 176 1448 264 1448 c 0
 352 1448 424 1376 424 1288 c 0
 424 1200 352 1128 264 1128 c 0
 176 1128 104 1200 104 1288 c 0xd0
EndSplineSet
Layer: 2
SplineSet
78 18 m 0,0,1
 78 78 78 78 103 257 c 1,2,-1
 208 970 l 2,3,4
 211 989 211 989 227 1002.5 c 128,-1,5
 243 1016 243 1016 264 1016 c 0,6,7
 312 1016 312 1016 320 970 c 2,8,-1
 408 401 l 1,9,10
 432 239 432 239 432 207 c 0,11,12
 432 141 432 141 312 51 c 0,13,14
 264 15 264 15 214.5 -10.5 c 128,-1,15
 165 -36 165 -36 141 -36 c 0,16,17
 106 -36 106 -36 92 -19.5 c 128,-1,18
 78 -3 78 -3 78 18 c 0,0,1
104 1288 m 128,-1,20
 104 1354 104 1354 151 1401 c 128,-1,21
 198 1448 198 1448 264 1448 c 128,-1,22
 330 1448 330 1448 377 1401 c 128,-1,23
 424 1354 424 1354 424 1288 c 128,-1,24
 424 1222 424 1222 377 1175 c 128,-1,25
 330 1128 330 1128 264 1128 c 128,-1,26
 198 1128 198 1128 151 1175 c 128,-1,19
 104 1222 104 1222 104 1288 c 128,-1,20
EndSplineSet
EndChar

StartChar: cent
Encoding: 162 162 97
Width: 968
VWidth: 0
Flags: W
HStem: -24 148<470.5 682.597> 910 68<432.439 614.39>
VStem: 80 238<346.687 678.238>
DStem2: 301 26 374 -6 0.342438 0.93954<-363.353 -1.65132 270.49 873.127 1004.68 1369.68>
LayerCount: 3
Fore
SplineSet
80 466 m 0
 80 732 272 978 561 978 c 0
 591 978 619 974 645 969 c 1
 773 1320 l 2
 778 1333 789 1348 796 1348 c 0
 803 1348 812 1339 824 1324 c 0
 836 1309 844 1297 844 1286 c 0
 844 1284 843 1280 842 1277 c 2
 721 946 l 1
 748 935 773 921 797 905 c 0
 852 869 904 826 904 793 c 0
 904 761 818 684 789 684 c 0
 762 684 738 720 709 767 c 0
 697 787 686 804 675 819 c 1
 452 206 l 1
 504 155 571 124 650 124 c 0
 687 124 769 157 795 180 c 0
 828 209 849 224 871 224 c 0
 892 224 902 210 902 193 c 0
 902 124 665 -24 491 -24 c 0
 450 -24 411 -18 374 -6 c 1
 249 -350 l 2
 244 -363 233 -378 226 -378 c 0
 219 -378 210 -369 198 -354 c 0
 186 -339 178 -327 178 -316 c 0
 178 -314 179 -310 180 -307 c 2
 301 26 l 1
 167 104 80 265 80 466 c 0
318 568 m 0
 318 464 345 361 394 280 c 1
 615 886 l 1
 591 903 564 910 528 910 c 0
 421 910 318 797 318 568 c 0
EndSplineSet
Layer: 2
SplineSet
80 466 m 0,0,1
 80 600 80 600 139 716 c 128,-1,2
 198 832 198 832 309.5 905 c 128,-1,3
 421 978 421 978 561 978 c 0,4,5
 598 978 598 978 645 969 c 1,6,-1
 773 1320 l 2,7,8
 784 1348 784 1348 796 1348 c 0,9,10
 805 1348 805 1348 824 1324 c 0,11,12
 844 1299 844 1299 844 1286 c 0,13,14
 844 1283 844 1283 842 1277 c 2,15,-1
 721 946 l 1,16,17
 758 931 758 931 797 905 c 0,18,19
 904 835 904 835 904 793 c 0,20,21
 904 770 904 770 857.5 727 c 128,-1,22
 811 684 811 684 789 684 c 0,23,24
 771 684 771 684 753 704 c 128,-1,25
 735 724 735 724 709 767 c 0,26,27
 690 798 690 798 675 819 c 1,28,-1
 452 206 l 1,29,30
 536 124 536 124 650 124 c 0,31,32
 677 124 677 124 726 143 c 128,-1,33
 775 162 775 162 795 180 c 0,34,35
 845 224 845 224 871 224 c 0,36,37
 902 224 902 224 902 193 c 0,38,39
 902 159 902 159 836.5 107.5 c 128,-1,40
 771 56 771 56 672 16 c 128,-1,41
 573 -24 573 -24 491 -24 c 0,42,43
 429.5 -24 429.5 -24 374 -6 c 1,44,-1
 249 -350 l 2,45,46
 238 -378 238 -378 226 -378 c 0,47,48
 217 -378 217 -378 198 -354 c 0,49,50
 178 -329 178 -329 178 -316 c 0,51,52
 178 -313 178 -313 180 -307 c 2,53,-1
 301 26 l 1,54,55
 199 85 199 85 139.5 201 c 128,-1,56
 80 317 80 317 80 466 c 0,0,1
318 568 m 0,57,58
 318 406 318 406 394 280 c 1,59,-1
 615 886 l 1,60,61
 581 910 581 910 528 910 c 0,62,63
 441 910 441 910 379.5 820.5 c 128,-1,64
 318 731 318 731 318 568 c 0,57,58
EndSplineSet
EndChar

StartChar: sterling
Encoding: 163 163 98
Width: 1340
VWidth: 0
Flags: W
HStem: -24 188<742.632 1084.55> 207 63<375.33 446.06> 708 72<138.449 421 659 1086.55> 1328 124<686.051 894.755>
VStem: 398 224<784.948 1209.5> 421 232<780 1003.57> 474 190<409.34 704.621>
LayerCount: 3
Fore
SplineSet
110 152 m 0xf2
 110 173 125 215 156 231 c 0
 205 256 300 270 375 270 c 0
 441 270 474 311 474 425 c 0xf2
 474 501 453 610 434 708 c 1
 150 708 l 2
 142 708 134 714 134 724 c 0
 134 740 150 780 172 780 c 2
 421 780 l 1xf4
 408 856 398 934 398 1007 c 0
 398 1171 603 1452 859 1452 c 0
 1036 1452 1230 1366 1230 1330 c 0
 1230 1280 1135 1194 1096 1194 c 0
 1038 1194 1008 1213 928 1265 c 0
 850 1316 810 1328 746 1328 c 0
 674 1328 622 1245 622 1174 c 0xf8
 622 1056 637 915 653 780 c 1xf4
 1075 780 l 2
 1083 780 1091 774 1091 764 c 0
 1091 748 1075 708 1053 708 c 2
 659 708 l 1
 662 662 664 616 664 571 c 0
 664 459 600 340 488 266 c 1
 488 261 l 1
 562 243 605 231 673 211 c 0
 793 176 891 164 976 164 c 0
 1062 164 1134 193 1179 248 c 0
 1194 266 1206 280 1219 280 c 0
 1241 280 1252 258 1252 244 c 0
 1252 168 1121 -24 931 -24 c 0
 762 -24 654 69 578 136 c 0
 531 178 481 207 448 207 c 0
 413 207 359 169 297 115 c 0
 255 78 214 48 188 48 c 0
 156 48 110 117 110 152 c 0xf2
EndSplineSet
Layer: 2
SplineSet
110 152 m 0,0,1
 110 171 110 171 122.5 195.5 c 128,-1,2
 135 220 135 220 156 231 c 0,3,4
 191 249 191 249 253.5 259.5 c 128,-1,5
 316 270 316 270 375 270 c 0,6,7
 426 270 426 270 450 306 c 128,-1,8
 474 342 474 342 474 425 c 0,9,10
 474 502 474 502 434 708 c 1,11,-1
 150 708 l 2,12,13
 134 708 134 708 134 724 c 0,14,15
 134 739 134 739 145.5 759.5 c 128,-1,16
 157 780 157 780 172 780 c 2,17,-1
 421 780 l 1,18,19
 398 914 398 914 398 1007 c 0,20,21
 398 1069 398 1069 435 1146 c 128,-1,22
 472 1223 472 1223 532 1291 c 128,-1,23
 592 1359 592 1359 680 1405.5 c 128,-1,24
 768 1452 768 1452 859 1452 c 0,25,26
 942 1452 942 1452 1031.5 1429 c 128,-1,27
 1121 1406 1121 1406 1175.5 1377.5 c 128,-1,28
 1230 1349 1230 1349 1230 1330 c 0,29,30
 1230 1294 1230 1294 1178.5 1244 c 128,-1,31
 1127 1194 1127 1194 1096 1194 c 0,32,33
 1055 1194 1055 1194 1025 1208 c 128,-1,34
 995 1222 995 1222 928 1265 c 0,35,36
 871 1302 871 1302 833 1315 c 128,-1,37
 795 1328 795 1328 746 1328 c 0,38,39
 694 1328 694 1328 658 1279 c 128,-1,40
 622 1230 622 1230 622 1174 c 0,41,42
 622 1042 622 1042 653 780 c 1,43,-1
 1075 780 l 2,44,45
 1091 780 1091 780 1091 764 c 0,46,47
 1091 749 1091 749 1079.5 728.5 c 128,-1,48
 1068 708 1068 708 1053 708 c 2,49,-1
 659 708 l 1,50,51
 664 631 664 631 664 571 c 0,52,53
 664 486 664 486 617.5 403.5 c 128,-1,54
 571 321 571 321 488 266 c 1,55,-1
 488 261 l 1,56,57
 575 240 575 240 673 211 c 0,58,59
 834 164 834 164 976 164 c 0,60,61
 1110 164 1110 164 1179 248 c 0,62,63
 1206 280 1206 280 1219 280 c 0,64,65
 1234 280 1234 280 1243 268 c 128,-1,66
 1252 256 1252 256 1252 244 c 0,67,68
 1252 214 1252 214 1228 170 c 128,-1,69
 1204 126 1204 126 1163.5 82 c 128,-1,70
 1123 38 1123 38 1060.5 7 c 128,-1,71
 998 -24 998 -24 931 -24 c 0,72,73
 871 -24 871 -24 817.5 -10 c 128,-1,74
 764 4 764 4 717.5 32.5 c 128,-1,75
 671 61 671 61 644 81.5 c 128,-1,76
 617 102 617 102 578 136 c 0,77,78
 499 207 499 207 448 207 c 0,79,80
 403 207 403 207 297 115 c 0,81,82
 221 48 221 48 188 48 c 0,83,84
 165 48 165 48 137.5 86.5 c 128,-1,85
 110 125 110 125 110 152 c 0,0,1
EndSplineSet
EndChar

